<?xml version="1.0" encoding="UTF-8"?><svg xmlns="http://www.w3.org/2000/svg" viewBox="0 0 24 24"><g id="a"/><g id="b"/><g id="c"><path d="M21,5.25c-.41,0-.75,.34-.75,.75v4.76c0,.59-.24,1.17-.66,1.59l-.38,.38c-.58-.89-1.58-1.47-2.72-1.47-1.35,0-2.51,.83-3,2h-3c-.49-1.17-1.65-2-3-2-1.14,0-2.13,.59-2.72,1.47l-.38-.38c-.42-.42-.66-1-.66-1.59V6c0-.41-.34-.75-.75-.75s-.75,.34-.75,.75v4.76c0,.99,.4,1.95,1.1,2.65l.92,.92c0,.06-.02,.11-.02,.17,0,1.79,1.46,3.25,3.25,3.25s3.09-1.33,3.22-3h2.55c.13,1.67,1.52,3,3.22,3,1.79,0,3.25-1.46,3.25-3.25,0-.06-.01-.11-.02-.17l.92-.92c.7-.7,1.1-1.66,1.1-2.65V6c0-.41-.34-.75-.75-.75Z"/></g><g id="d"/><g id="e"/><g id="f"/><g id="g"/><g id="h"/><g id="i"/><g id="j"/><g id="k"/><g id="l"/><g id="m"/><g id="n"/><g id="o"/><g id="p"/><g id="q"/><g id="r"/><g id="s"/><g id="t"/><g id="u"/></svg>