<?xml version="1.0" encoding="UTF-8"?><svg xmlns="http://www.w3.org/2000/svg" viewBox="0 0 24 24"><g id="a"/><g id="b"/><g id="c"/><g id="d"/><g id="e"><g><path d="M15.1,8.25c-.51-1.66-1.43-3.55-3.09-5.13-.79,.78-2.29,2.53-3.14,5.13h6.23Z"/><path d="M6.75,12.18c0-.86,.08-1.67,.21-2.43H2.52c-.17,.72-.27,1.47-.27,2.25s.1,1.53,.27,2.25H6.92c-.15-.99-.17-1.74-.17-2.07Z"/><path d="M8.25,12.18c0,.21,.02,1,.2,2.07h7.12c.11-.65,.17-1.34,.17-2.07,0-.23-.02-1.17-.27-2.43h-7c-.15,.75-.23,1.56-.23,2.43Z"/><path d="M8.79,15.75c.49,1.74,1.42,3.8,3.2,5.49,.82-.82,2.42-2.69,3.24-5.49h-6.44Z"/><path d="M21.48,9.75h-4.46c.2,1.16,.23,2.06,.23,2.43,0,.73-.06,1.42-.15,2.07h4.38c.17-.72,.27-1.47,.27-2.25s-.1-1.53-.27-2.25Z"/><path d="M3,15.75c1.26,3,3.97,5.24,7.25,5.83-1.69-1.89-2.58-4.05-3.03-5.83H3Z"/><path d="M13.72,21.59c3.29-.59,6.02-2.83,7.28-5.84h-4.2c-.69,2.69-2.04,4.65-3.08,5.84Z"/><path d="M10.66,2.35c-3.46,.48-6.35,2.77-7.66,5.9H7.3c.81-2.85,2.34-4.83,3.36-5.9Z"/><path d="M21,8.25c-1.3-3.12-4.18-5.41-7.63-5.89,1.83,1.87,2.8,4.04,3.31,5.89h4.32Z"/></g></g><g id="f"/><g id="g"/><g id="h"/><g id="i"/><g id="j"/><g id="k"/><g id="l"/><g id="m"/><g id="n"/><g id="o"/><g id="p"/><g id="q"/><g id="r"/><g id="s"/><g id="t"/><g id="u"/></svg>