<?xml version="1.0" encoding="UTF-8"?><svg xmlns="http://www.w3.org/2000/svg" viewBox="0 0 24 24"><g id="a"/><g id="b"/><g id="c"/><g id="d"/><g id="e"/><g id="f"/><g id="g"/><g id="h"/><g id="i"/><g id="j"/><g id="k"/><g id="l"/><g id="m"/><g id="n"><g><path d="M7,17.75h12c.41,0,.75-.34,.75-.75V4c0-.96-.79-1.75-1.75-1.75H7c-1.52,0-2.75,1.23-2.75,2.75v14c0,1.52,1.23,2.75,2.75,2.75h12c.41,0,.75-.34,.75-.75s-.34-.75-.75-.75H7c-.69,0-1.25-.56-1.25-1.25s.56-1.25,1.25-1.25Zm1.25-10.75c0-.96,.79-1.75,1.75-1.75h5c.96,0,1.75,.79,1.75,1.75v1c0,.96-.79,1.75-1.75,1.75h-5c-.96,0-1.75-.79-1.75-1.75v-1Z"/><rect x="9.75" y="6.75" width="5.5" height="1.5" rx=".25" ry=".25"/></g></g><g id="o"/><g id="p"/><g id="q"/><g id="r"/><g id="s"/><g id="t"/><g id="u"/></svg>