<?xml version="1.0" encoding="UTF-8"?><svg xmlns="http://www.w3.org/2000/svg" viewBox="0 0 24 24"><g id="a"/><g id="b"/><g id="c"/><g id="d"/><g id="e"/><g id="f"/><g id="g"/><g id="h"/><g id="i"/><g id="j"/><g id="k"/><g id="l"/><g id="m"/><g id="n"/><g id="o"/><g id="p"/><g id="q"/><g id="r"/><g id="s"><g><path d="M21.95,18.22l-1.73-3.47H3.79l-1.73,3.47c-.27,.55-.24,1.18,.08,1.7,.32,.52,.88,.83,1.49,.83H20.38c.61,0,1.17-.31,1.49-.83s.35-1.16,.08-1.7Zm-7.95-.47h-4c-.41,0-.75-.34-.75-.75s.34-.75,.75-.75h4c.41,0,.75,.34,.75,.75s-.34,.75-.75,.75Z"/><path d="M19.75,7c0-1.52-1.23-2.75-2.75-2.75H7c-1.52,0-2.75,1.23-2.75,2.75v6.25h15.5V7Z"/></g></g><g id="t"/><g id="u"/></svg>