<?xml version="1.0" encoding="UTF-8"?><svg xmlns="http://www.w3.org/2000/svg" viewBox="0 0 24 24"><g id="a"/><g id="b"/><g id="c"/><g id="d"/><g id="e"/><g id="f"/><g id="g"><g><path d="M16,20.25c-1.24,0-2.25-1.01-2.25-2.25v-1c0-.41-.34-.75-.75-.75H3c-.41,0-.75,.34-.75,.75v1c0,2.07,1.68,3.75,3.75,3.75h10c.41,0,.75-.34,.75-.75s-.34-.75-.75-.75Z"/><path d="M19.5,2.25c-.11,0-.21,0-.32,.02-.06-.01-.12-.02-.18-.02H7c-1.52,0-2.75,1.23-2.75,2.75V14.75H13c1.24,0,2.25,1.01,2.25,2.25v1c0,.41,.34,.75,.75,.75,1.11,0,2.03,.81,2.21,1.87,.33-.46,.54-1.01,.54-1.62V4.5c0-.41,.34-.75,.75-.75s.75,.34,.75,.75v2.5c0,.41,.34,.75,.75,.75s.75-.34,.75-.75v-2.5c0-1.24-1.01-2.25-2.25-2.25Zm-4.5,10.5h-7c-.41,0-.75-.34-.75-.75s.34-.75,.75-.75h7c.41,0,.75,.34,.75,.75s-.34,.75-.75,.75Zm0-4h-7c-.41,0-.75-.34-.75-.75s.34-.75,.75-.75h7c.41,0,.75,.34,.75,.75s-.34,.75-.75,.75Z"/></g></g><g id="h"/><g id="i"/><g id="j"/><g id="k"/><g id="l"/><g id="m"/><g id="n"/><g id="o"/><g id="p"/><g id="q"/><g id="r"/><g id="s"/><g id="t"/><g id="u"/></svg>