<?xml version="1.0" encoding="UTF-8"?><svg xmlns="http://www.w3.org/2000/svg" viewBox="0 0 24 24"><g id="a"/><g id="b"/><g id="c"/><g id="d"/><g id="e"/><g id="f"/><g id="g"/><g id="h"/><g id="i"/><g id="j"/><g id="k"/><g id="l"/><g id="m"/><g id="n"/><g id="o"/><g id="p"><path d="M21.59,17.03l-.67-1c-.33-.49-.87-.78-1.46-.78h-.19c.65-1.39,1.39-3.83,.43-6.5-1.18-3.29-4.27-5.5-7.71-5.5s-6.53,2.21-7.71,5.5c-.96,2.68-.21,5.11,.43,6.5h-.19c-.59,0-1.13,.29-1.46,.78l-.67,1c-.36,.54-.39,1.23-.09,1.8,.31,.57,.9,.92,1.54,.92h4.41c.75,0,1.42-.48,1.66-1.2l.77-2.32c.1-.3,0-.64-.26-.83-1.69-1.29-2.41-3.4-1.75-5.14,.46-1.21,1.69-2.52,3.3-2.52s2.84,1.3,3.3,2.52c.66,1.74-.06,3.85-1.75,5.14-.26,.19-.36,.53-.26,.83l.77,2.32c.24,.72,.91,1.2,1.66,1.2h4.41c.65,0,1.24-.35,1.54-.92,.3-.57,.27-1.26-.09-1.8Z"/></g><g id="q"/><g id="r"/><g id="s"/><g id="t"/><g id="u"/></svg>