<?xml version="1.0" encoding="UTF-8"?><svg xmlns="http://www.w3.org/2000/svg" viewBox="0 0 24 24"><g id="a"/><g id="b"/><g id="c"/><g id="d"/><g id="e"/><g id="f"/><g id="g"/><g id="h"/><g id="i"/><g id="j"/><g id="k"/><g id="l"/><g id="m"/><g id="n"/><g id="o"/><g id="p"/><g id="q"/><g id="r"/><g id="s"/><g id="t"/><g id="u"><g><circle cx="16.5" cy="7.5" r=".75"/><path d="M20,2.25H4c-.96,0-1.75,.79-1.75,1.75v5.66l.25-.22c1.41-1.33,2.91-2.07,4.44-2.19,2.03-.15,3.5,.79,5.06,1.78,1.44,.91,2.93,1.85,5.12,2.23,1.22,.21,2.48,.21,3.75,0l.87-.2V4c0-.96-.79-1.75-1.75-1.75Zm-3.5,7.5c-1.24,0-2.25-1.01-2.25-2.25s1.01-2.25,2.25-2.25,2.25,1.01,2.25,2.25-1.01,2.25-2.25,2.25Z"/><path d="M18.97,12.92c-.71,0-1.41-.06-2.09-.18-2.49-.43-4.18-1.5-5.67-2.44-1.47-.93-2.63-1.66-4.15-1.55-1.18,.09-2.37,.69-3.54,1.8l-1.27,1.13v2.32c0,.96,.79,1.75,1.75,1.75H20c.96,0,1.75-.79,1.75-1.75v-1.4l-.58,.13c-.75,.12-1.48,.18-2.2,.18Z"/><path d="M19.54,17.25h-4.58l1.33,3.99c.1,.31,.39,.51,.71,.51h3c.24,0,.47-.12,.61-.31,.14-.2,.18-.45,.1-.68l-1.17-3.51Z"/><path d="M3.29,20.76c-.08,.23-.04,.48,.1,.68,.14,.2,.37,.31,.61,.31h3c.32,0,.61-.21,.71-.51l1.33-3.99H4.46l-1.17,3.51Z"/></g></g></svg>