<?xml version="1.0" encoding="UTF-8"?><svg xmlns="http://www.w3.org/2000/svg" viewBox="0 0 24 24"><g id="a"/><g id="b"/><g id="c"/><g id="d"/><g id="e"/><g id="f"/><g id="g"/><g id="h"/><g id="i"/><g id="j"/><g id="k"/><g id="l"/><g id="m"/><g id="n"/><g id="o"/><g id="p"/><g id="q"><g><circle cx="15" cy="5" r="2.75"/><circle cx="4.5" cy="8.5" r="2.25"/><path d="M21.71,10.39c-.76-1.6-3.48-1.34-5.7-.81-1.15-.85-2.55-1.33-4.01-1.33-3.61,0-6.57,2.86-6.73,6.43-2.51,1.92-3.58,3.66-2.98,4.92,.41,.86,1.43,1.22,2.78,1.22,.86,0,1.86-.15,2.92-.4,0,0,0,0,.01,.01,1.16,.86,2.55,1.31,4,1.31,3.61,0,6.56-2.86,6.73-6.43,.38-.29,.74-.59,1.07-.88,2.22-2,2.26-3.31,1.91-4.05Zm-2.92,2.94c-1.41,1.27-3.48,2.59-5.83,3.7-5.51,2.61-9.03,2.54-9.32,1.93-.12-.25,.23-1.14,1.79-2.49,.06,.26,.11,.52,.2,.78,.11,.3,.39,.5,.71,.5,.02,0,.04,0,.06,0,2.33-.18,4.57-.81,6.65-1.84,1.73-.86,3.3-2,4.68-3.37,.24-.24,.29-.61,.12-.91-.16-.28-.34-.53-.53-.78,2.03-.35,2.93-.05,3.04,.19,.11,.24-.21,1.07-1.56,2.29Z"/></g></g><g id="r"/><g id="s"/><g id="t"/><g id="u"/></svg>