<?xml version="1.0" encoding="UTF-8"?><svg xmlns="http://www.w3.org/2000/svg" viewBox="0 0 24 24"><g id="a"/><g id="b"><g><path d="M17.81,18.31l.94-12.25c.02-.21-.06-.41-.2-.57-.14-.15-.34-.24-.55-.24H5c-.21,0-.41,.09-.55,.24-.14,.15-.21,.36-.2,.57l.94,12.25c-.54,.14-.94,.61-.94,1.19v1.5c0,.41,.34,.75,.75,.75h13c.41,0,.75-.34,.75-.75v-1.5c0-.58-.41-1.05-.94-1.19ZM8.25,10c0-.96,.79-1.75,1.75-1.75h3c.96,0,1.75,.79,1.75,1.75v5c0,.96-.79,1.75-1.75,1.75h-3c-.96,0-1.75-.79-1.75-1.75v-5Z"/><rect x="9.75" y="9.75" width="3.5" height="5.5" rx=".25" ry=".25"/><path d="M19.5,2.25H3.5c-.69,0-1.25,.56-1.25,1.25v2c0,.42,.22,.77,.53,.99l-.02-.32c-.05-.63,.17-1.25,.59-1.7,.42-.46,1.02-.72,1.65-.72h13c.63,0,1.23,.26,1.65,.72,.42,.45,.64,1.07,.59,1.7l-.02,.32c.31-.23,.53-.58,.53-.99V3.5c0-.69-.56-1.25-1.25-1.25Z"/></g></g><g id="c"/><g id="d"/><g id="e"/><g id="f"/><g id="g"/><g id="h"/><g id="i"/><g id="j"/><g id="k"/><g id="l"/><g id="m"/><g id="n"/><g id="o"/><g id="p"/><g id="q"/><g id="r"/><g id="s"/><g id="t"/><g id="u"/></svg>