<?xml version="1.0" encoding="UTF-8"?><svg xmlns="http://www.w3.org/2000/svg" viewBox="0 0 24 24"><g id="a"/><g id="b"/><g id="c"/><g id="d"/><g id="e"/><g id="f"><g><path d="M7.11,16.84c-.11-.06-.24-.09-.36-.09-.26,0-.52,.14-.66,.39-.2,.36-.07,.82,.29,1.02s.82,.07,1.02-.29c.1-.18,.12-.38,.06-.57-.06-.19-.18-.35-.36-.45Z"/><path d="M8.59,13.67c-1.09-.53-2.34-.57-3.47-.1-1.2,.5-2.11,1.51-2.47,2.79-.46,1.57,.09,3.34,1.36,4.39,.78,.65,1.75,1,2.74,1,.26,0,.52-.02,.78-.07,1.25-.23,2.32-1.01,2.93-2.11l.93-1.64-2.6-4.6-.19,.34Zm.12,4.92c-.41,.74-1.18,1.16-1.97,1.16-.37,0-.74-.09-1.09-.28-1.08-.6-1.48-1.97-.88-3.06,.6-1.08,1.97-1.48,3.06-.88,.53,.29,.91,.77,1.07,1.35,.17,.58,.1,1.19-.2,1.71Z"/><path d="M17.38,16.84c-.36,.2-.49,.66-.29,1.02,.2,.36,.66,.49,1.02,.29,.36-.2,.49-.66,.29-1.02-.2-.36-.66-.49-1.02-.29Z"/><path d="M21.84,16.36c-.37-1.28-1.27-2.29-2.47-2.79-1.13-.47-2.38-.43-3.47,.1L10.1,3.49c-.47-.83-1.54-1.13-2.37-.67l-.88,.49c-.41,.23-.71,.6-.84,1.05-.13,.45-.07,.93,.16,1.34l7.84,13.86c.62,1.11,1.68,1.88,2.93,2.11,.26,.05,.52,.07,.78,.07,.99,0,1.96-.35,2.74-1,1.27-1.05,1.81-2.82,1.36-4.39Zm-3.01,3.11c-.34,.19-.72,.28-1.09,.28-.79,0-1.56-.42-1.97-1.16h0c-.29-.53-.36-1.13-.19-1.71,.17-.58,.55-1.06,1.07-1.35,1.08-.6,2.46-.21,3.06,.88,.6,1.08,.21,2.46-.88,3.06Z"/><path d="M18.3,5.7c.23-.41,.29-.89,.16-1.34-.13-.45-.42-.83-.83-1.05l-.88-.49c-.83-.46-1.9-.17-2.37,.67l-1.27,2.24,2.6,4.57,2.6-4.59Z"/></g></g><g id="g"/><g id="h"/><g id="i"/><g id="j"/><g id="k"/><g id="l"/><g id="m"/><g id="n"/><g id="o"/><g id="p"/><g id="q"/><g id="r"/><g id="s"/><g id="t"/><g id="u"/></svg>