<?xml version="1.0" encoding="UTF-8"?><svg xmlns="http://www.w3.org/2000/svg" viewBox="0 0 24 24"><g id="a"/><g id="b"/><g id="c"/><g id="d"/><g id="e"/><g id="f"/><g id="g"/><g id="h"/><g id="i"/><g id="j"/><g id="k"><g><rect x="4.25" y="6.25" width="15.5" height="6.5" rx=".75" ry=".75"/><path d="M15.25,14.25v5.75c0,.41,.34,.75,.75,.75h3c.41,0,.75-.34,.75-.75v-5.89c-.24,.08-.49,.14-.75,.14h-3.75Z"/><path d="M4.25,14.11v5.89c0,.41,.34,.75,.75,.75h3c.41,0,.75-.34,.75-.75v-5.75h-3.75c-.26,0-.51-.05-.75-.14Z"/><path d="M20,3.25H4c-.96,0-1.75,.79-1.75,1.75v1c0,.47,.19,.91,.5,1.22v-.22c0-1.24,1.01-2.25,2.25-2.25h14c1.24,0,2.25,1.01,2.25,2.25v.22c.31-.32,.5-.75,.5-1.22v-1c0-.96-.79-1.75-1.75-1.75Z"/></g></g><g id="l"/><g id="m"/><g id="n"/><g id="o"/><g id="p"/><g id="q"/><g id="r"/><g id="s"/><g id="t"/><g id="u"/></svg>