<?xml version="1.0" encoding="UTF-8"?><svg xmlns="http://www.w3.org/2000/svg" viewBox="0 0 24 24"><g id="a"/><g id="b"/><g id="c"/><g id="d"/><g id="e"/><g id="f"/><g id="g"/><g id="h"/><g id="i"/><g id="j"/><g id="k"/><g id="l"/><g id="m"><g><circle cx="12" cy="17" r="4.75"/><path d="M20.56,3.29c-.42-.65-1.12-1.04-1.89-1.04h-1.66c-.31,0-.58,.19-.7,.47l-3.25,8.12c1.65,.28,3.08,1.21,4.02,2.52l3.63-7.93c.32-.7,.26-1.5-.15-2.15Z"/><path d="M10.95,10.85L7.7,2.72c-.11-.29-.39-.47-.7-.47h-1.66c-.77,0-1.48,.39-1.89,1.04-.42,.65-.47,1.45-.15,2.15l3.63,7.93c.94-1.31,2.37-2.24,4.02-2.52Z"/><polygon points="12.68 7.75 14.88 2.25 9.12 2.25 11.32 7.75 12.68 7.75"/></g></g><g id="n"/><g id="o"/><g id="p"/><g id="q"/><g id="r"/><g id="s"/><g id="t"/><g id="u"/></svg>