<?xml version="1.0" encoding="UTF-8"?><svg xmlns="http://www.w3.org/2000/svg" viewBox="0 0 24 24"><g id="a"/><g id="b"/><g id="c"/><g id="d"><g><path d="M11.47,16.53c.15,.15,.34,.22,.53,.22s.38-.07,.53-.22l4-4c.29-.29,.29-.77,0-1.06s-.77-.29-1.06,0l-2.72,2.72V4c0-.41-.34-.75-.75-.75s-.75,.34-.75,.75V14.19l-2.72-2.72c-.29-.29-.77-.29-1.06,0s-.29,.77,0,1.06l4,4Z"/><path d="M21,14.25h-4.07l-3.34,3.34c-.42,.42-.99,.66-1.59,.66s-1.17-.23-1.59-.66l-3.34-3.34H3c-.41,0-.75,.34-.75,.75v3c0,1.52,1.23,2.75,2.75,2.75h14c1.52,0,2.75-1.23,2.75-2.75v-3c0-.41-.34-.75-.75-.75Z"/></g></g><g id="e"/><g id="f"/><g id="g"/><g id="h"/><g id="i"/><g id="j"/><g id="k"/><g id="l"/><g id="m"/><g id="n"/><g id="o"/><g id="p"/><g id="q"/><g id="r"/><g id="s"/><g id="t"/><g id="u"/></svg>