<?xml version="1.0" encoding="UTF-8"?><svg xmlns="http://www.w3.org/2000/svg" viewBox="0 0 24 24"><g id="a"/><g id="b"/><g id="c"/><g id="d"/><g id="e"/><g id="f"/><g id="g"/><g id="h"/><g id="i"/><g id="j"/><g id="k"/><g id="l"/><g id="m"/><g id="n"/><g id="o"/><g id="p"/><g id="q"/><g id="r"><g><path d="M20,7.25H4c-.41,0-.75,.34-.75,.75v8c0,2.62,2.13,4.75,4.75,4.75h8c2.62,0,4.75-2.13,4.75-4.75V8c0-.41-.34-.75-.75-.75Zm-5,5.5h-6c-.41,0-.75-.34-.75-.75s.34-.75,.75-.75h6c.41,0,.75,.34,.75,.75s-.34,.75-.75,.75Z"/><path d="M20,3.25H4c-.96,0-1.75,.79-1.75,1.75v1.6c.41-.52,1.04-.85,1.75-.85H20c.71,0,1.34,.34,1.75,.85v-1.6c0-.96-.79-1.75-1.75-1.75Z"/></g></g><g id="s"/><g id="t"/><g id="u"/></svg>