<?xml version="1.0" encoding="UTF-8"?><svg xmlns="http://www.w3.org/2000/svg" viewBox="0 0 24 24"><g id="a"/><g id="b"/><g id="c"/><g id="d"/><g id="e"/><g id="f"/><g id="g"/><g id="h"/><g id="i"/><g id="j"/><g id="k"/><g id="l"/><g id="m"/><g id="n"/><g id="o"/><g id="p"/><g id="q"><g><path d="M8.25,16.13v.87c0,.96,.79,1.75,1.75,1.75h4c.96,0,1.75-.78,1.75-1.75v-.87c0-.13,.03-.25,.04-.38h-7.58c.02,.13,.04,.25,.04,.38Z"/><path d="M18.67,7.92c-.46-2.91-2.92-5.27-5.85-5.62-1.93-.23-3.86,.38-5.3,1.66-1.44,1.28-2.27,3.12-2.27,5.05s.72,3.55,2.04,4.83c.13,.13,.24,.27,.35,.42h8.74c.12-.17,.25-.34,.41-.49,1.53-1.54,2.22-3.67,1.88-5.84Z"/><path d="M15,20.25h-6c-.41,0-.75,.34-.75,.75s.34,.75,.75,.75h6c.41,0,.75-.34,.75-.75s-.34-.75-.75-.75Z"/></g></g><g id="r"/><g id="s"/><g id="t"/><g id="u"/></svg>