<?xml version="1.0" encoding="UTF-8"?><svg xmlns="http://www.w3.org/2000/svg" viewBox="0 0 24 24"><g id="a"/><g id="b"/><g id="c"/><g id="d"/><g id="e"/><g id="f"/><g id="g"/><g id="h"/><g id="i"/><g id="j"/><g id="k"/><g id="l"/><g id="m"/><g id="n"/><g id="o"/><g id="p"><g><path d="M7.25,9.25h-2.25c-1.52,0-2.75,1.23-2.75,2.75v5c0,1.52,1.23,2.75,2.75,2.75h2.25V9.25Z"/><path d="M21.46,10.39c-.52-.73-1.34-1.14-2.23-1.14h-1.91c-.1,0-.17-.06-.2-.09-.03-.04-.07-.1-.05-.18,.19-1.14,.06-2.27-.38-3.28-.7-1.62-1.99-2.48-2.94-2.92-.55-.25-1.18-.21-1.69,.11-.5,.32-.81,.87-.81,1.47v2.64c0,1.24-1.01,2.25-2.25,2.25h-.25v10.5h8.81c1.19,0,2.23-.76,2.61-1.88l1.67-5c.28-.85,.15-1.75-.38-2.48Z"/></g></g><g id="q"/><g id="r"/><g id="s"/><g id="t"/><g id="u"/></svg>