<?xml version="1.0" encoding="UTF-8"?><svg xmlns="http://www.w3.org/2000/svg" viewBox="0 0 24 24"><g id="a"/><g id="b"/><g id="c"/><g id="d"/><g id="e"/><g id="f"/><g id="g"/><g id="h"/><g id="i"/><g id="j"/><g id="k"/><g id="l"/><g id="m"/><g id="n"/><g id="o"/><g id="p"/><g id="q"/><g id="r"/><g id="s"/><g id="t"><path d="M19,5.25h-3.25v10.75c0,.41-.34,.75-.75,.75s-.75-.34-.75-.75V4.96l-4.71-1.57c-.28-.09-.57-.14-.87-.14h-3.68c-1.52,0-2.75,1.23-2.75,2.75v10c0,1.52,1.23,2.75,2.75,2.75h3.25V8c0-.41,.34-.75,.75-.75s.75,.34,.75,.75v11.04l4.71,1.57c.28,.09,.57,.14,.87,.14h3.68c1.52,0,2.75-1.23,2.75-2.75V8c0-1.52-1.23-2.75-2.75-2.75Z"/></g><g id="u"/></svg>