<?xml version="1.0" encoding="UTF-8"?><svg xmlns="http://www.w3.org/2000/svg" viewBox="0 0 24 24"><g id="a"/><g id="b"/><g id="c"/><g id="d"/><g id="e"/><g id="f"/><g id="g"/><g id="h"/><g id="i"/><g id="j"><path d="M20.65,16.2l-5.13-5.13c-.42-.42-.66-1-.66-1.59v-.34c0-.99-.4-1.95-1.1-2.65l-3.72-3.72c-.47-.47-1.3-.47-1.77,0l-1.41,1.41c-.49,.49-.49,1.28,0,1.77l2.65,2.65-1.06,1.06-2.65-2.65c-.47-.47-1.3-.47-1.77,0l-1.41,1.41c-.24,.24-.37,.55-.37,.88s.13,.65,.37,.88l3.72,3.72c.71,.71,1.65,1.1,2.65,1.1h.34c.6,0,1.17,.23,1.59,.66l5.13,5.13c.61,.61,1.43,.95,2.3,.95s1.68-.34,2.3-.95c1.27-1.27,1.27-3.33,0-4.6Z"/></g><g id="k"/><g id="l"/><g id="m"/><g id="n"/><g id="o"/><g id="p"/><g id="q"/><g id="r"/><g id="s"/><g id="t"/><g id="u"/></svg>