<?xml version="1.0" encoding="UTF-8"?><svg xmlns="http://www.w3.org/2000/svg" viewBox="0 0 24 24"><g id="a"/><g id="b"/><g id="c"><path d="M12,22.5c-3.58,0-6.5-2.92-6.5-6.5V8c0-3.58,2.92-6.5,6.5-6.5s6.5,2.92,6.5,6.5v5.5c0,2.21-1.79,4-4,4s-4-1.79-4-4v-4.5c0-.83,.67-1.5,1.5-1.5s1.5,.67,1.5,1.5v4.5c0,.55,.45,1,1,1s1-.45,1-1v-5.5c0-1.93-1.57-3.5-3.5-3.5s-3.5,1.57-3.5,3.5v8c0,1.93,1.57,3.5,3.5,3.5,.76,0,1.49-.24,2.1-.7,.66-.5,1.6-.37,2.1,.3,.5,.66,.36,1.6-.3,2.1-1.13,.85-2.48,1.3-3.9,1.3Z"/></g><g id="d"/><g id="e"/><g id="f"/><g id="g"/><g id="h"/><g id="i"/><g id="j"/><g id="k"/><g id="l"/><g id="m"/><g id="n"/><g id="o"/><g id="p"/><g id="q"/><g id="r"/><g id="s"/><g id="t"/><g id="u"/></svg>