<?xml version="1.0" encoding="UTF-8"?><svg xmlns="http://www.w3.org/2000/svg" viewBox="0 0 24 24"><g id="a"/><g id="b"/><g id="c"/><g id="d"/><g id="e"/><g id="f"/><g id="g"/><g id="h"/><g id="i"/><g id="j"/><g id="k"/><g id="l"/><g id="m"/><g id="n"/><g id="o"/><g id="p"/><g id="q"/><g id="r"/><g id="s"/><g id="t"/><g id="u"><g><path d="M21.18,15.78l-1.41-1.41c-1.07-1.07-2.82-1.07-3.89,0l-.71,.71c-.07,.07-.17,.07-.18,.08-.05,0-.11-.01-.17-.07l-5.66-5.67c-.06-.06-.07-.13-.07-.17,0-.04,.01-.11,.08-.18l.71-.71c1.07-1.07,1.07-2.82,0-3.89l-1.41-1.41c-1.07-1.07-2.82-1.07-3.89,0l-.62,.62c-1.68,1.68-2.15,4.27-1.17,6.45,1.11,2.48,2.71,4.81,4.62,6.72,1.96,1.96,4.24,3.52,6.8,4.65,.73,.32,1.51,.48,2.29,.48,1.5,0,2.99-.58,4.08-1.68l.62-.62c1.07-1.07,1.07-2.82,0-3.89Z"/><path d="M14,7.75c1.24,0,2.25,1.01,2.25,2.25,0,.41,.34,.75,.75,.75s.75-.34,.75-.75c0-2.07-1.68-3.75-3.75-3.75-.41,0-.75,.34-.75,.75s.34,.75,.75,.75Z"/><path d="M14,4.75c2.9,0,5.25,2.35,5.25,5.25,0,.41,.34,.75,.75,.75s.75-.34,.75-.75c0-3.72-3.03-6.75-6.75-6.75-.41,0-.75,.34-.75,.75s.34,.75,.75,.75Z"/></g></g></svg>