<?xml version="1.0" encoding="UTF-8"?><svg xmlns="http://www.w3.org/2000/svg" viewBox="0 0 24 24"><g id="a"/><g id="b"/><g id="c"/><g id="d"/><g id="e"/><g id="f"/><g id="g"/><g id="h"/><g id="i"/><g id="j"/><g id="k"/><g id="l"/><g id="m"/><g id="n"/><g id="o"/><g id="p"/><g id="q"/><g id="r"/><g id="s"><path d="M14.83,13.19s-.08-.08-.08-.11V5c0-1.52-1.24-2.75-2.75-2.75s-2.75,1.23-2.75,2.75V13.05c0,.05-.05,.11-.1,.15-1.55,1.17-2.22,3.08-1.75,5,.42,1.68,1.78,3.02,3.47,3.42,.38,.09,.75,.13,1.13,.13,1.07,0,2.11-.35,2.96-1.03,1.14-.91,1.8-2.26,1.8-3.72s-.72-2.92-1.92-3.81Zm-2.81,4.56c-.41,0-.75-.34-.75-.75s.33-.75,.74-.75h.01c.41,0,.75,.34,.75,.75s-.34,.75-.75,.75Z"/></g><g id="t"/><g id="u"/></svg>