<?xml version="1.0" encoding="UTF-8"?><svg xmlns="http://www.w3.org/2000/svg" viewBox="0 0 24 24"><g id="a"/><g id="b"><path d="M21.63,16.51L14.31,5.19c-.51-.79-1.37-1.26-2.31-1.26s-1.8,.47-2.31,1.26L2.37,16.51c-.56,.86-.6,1.91-.11,2.81,.49,.9,1.39,1.44,2.42,1.44h14.65c1.02,0,1.93-.54,2.42-1.44,.49-.9,.45-1.95-.11-2.81Zm-10.38-7.51c0-.41,.34-.75,.75-.75s.75,.34,.75,.75v5c0,.41-.34,.75-.75,.75s-.75-.34-.75-.75v-5Zm.77,8.75c-.41,0-.75-.34-.75-.75s.33-.75,.75-.75h0c.42,0,.75,.34,.75,.75s-.33,.75-.75,.75Z"/></g><g id="c"/><g id="d"/><g id="e"/><g id="f"/><g id="g"/><g id="h"/><g id="i"/><g id="j"/><g id="k"/><g id="l"/><g id="m"/><g id="n"/><g id="o"/><g id="p"/><g id="q"/><g id="r"/><g id="s"/><g id="t"/><g id="u"/></svg>