<?xml version="1.0" encoding="UTF-8"?><svg xmlns="http://www.w3.org/2000/svg" viewBox="0 0 24 24"><g id="a"/><g id="b"/><g id="c"/><g id="d"><g><path d="M20,13.25h-1.25v-4.25c0-1.81-1.29-3.33-3-3.67v-.33c0-1.52-1.23-2.75-2.75-2.75h-2c-1.52,0-2.75,1.23-2.75,2.75v.33c-1.71,.35-3,1.86-3,3.67v4.25h-1.25c-.96,0-1.75,.79-1.75,1.75v2c0,1.52,1.23,2.75,2.75,2.75h.37c.33,1.15,1.38,2,2.63,2h8c1.25,0,2.3-.85,2.63-2h.37c1.52,0,2.75-1.23,2.75-2.75v-2c0-.96-.79-1.75-1.75-1.75ZM9.75,5c0-.69,.56-1.25,1.25-1.25h2c.69,0,1.25,.56,1.25,1.25v.25h-4.5v-.25ZM3.75,17v-2c0-.14,.11-.25,.25-.25h1.25v3.5h-.25c-.69,0-1.25-.56-1.25-1.25Zm5.16,3.25l.5-2.5c.12-.58,.63-1,1.23-1h2.72c.59,0,1.11,.42,1.23,1l.5,2.5h-6.17Zm7.67-.16l-.53-2.63c-.26-1.28-1.39-2.21-2.7-2.21h-2.72c-1.31,0-2.44,.93-2.7,2.21l-.53,2.63c-.39-.21-.67-.61-.67-1.09V9c0-1.24,1.01-2.25,2.25-2.25h6c1.24,0,2.25,1.01,2.25,2.25v10c0,.48-.28,.88-.67,1.09Zm3.67-3.09c0,.69-.56,1.25-1.25,1.25h-.25v-3.5h1.25c.14,0,.25,.11,.25,.25v2Z"/><path d="M14,9.25h-4c-.41,0-.75,.34-.75,.75s.34,.75,.75,.75h4c.41,0,.75-.34,.75-.75s-.34-.75-.75-.75Z"/></g></g><g id="e"/><g id="f"/><g id="g"/><g id="h"/><g id="i"/><g id="j"/><g id="k"/><g id="l"/><g id="m"/><g id="n"/><g id="o"/><g id="p"/><g id="q"/><g id="r"/><g id="s"/><g id="t"/><g id="u"/></svg>