<?xml version="1.0" encoding="UTF-8"?><svg xmlns="http://www.w3.org/2000/svg" viewBox="0 0 24 24"><g id="a"/><g id="b"/><g id="c"/><g id="d"/><g id="e"/><g id="f"/><g id="g"/><g id="h"/><g id="i"/><g id="j"/><g id="k"/><g id="l"/><g id="m"/><g id="n"/><g id="o"/><g id="p"/><g id="q"/><g id="r"/><g id="s"><g><path d="M21.75,9.5c0-1.24-1.01-2.25-2.25-2.25s-2.25,1.01-2.25,2.25,.94,2.17,2.12,2.24c-.09,1.52-.74,2.86-1.82,3.66-.6,.45-1.24,.66-1.8,.76v-.16c0-.89-.67-1.62-1.53-1.73,.95-1.16,1.53-2.65,1.53-4.27,0-3.72-3.03-6.75-6.75-6.75S2.25,6.28,2.25,10c0,1.62,.57,3.11,1.53,4.27-.86,.11-1.53,.84-1.53,1.73v3c0,.96,.79,1.75,1.75,1.75H14c.96,0,1.75-.79,1.75-1.75v-1.31c.81-.11,1.79-.41,2.7-1.09,1.57-1.17,2.45-3.14,2.42-5.33,.53-.41,.88-1.05,.88-1.77ZM9,4.75c2.9,0,5.25,2.35,5.25,5.25s-2.35,5.25-5.25,5.25-5.25-2.35-5.25-5.25,2.35-5.25,5.25-5.25Zm5.25,14.25c0,.14-.11,.25-.25,.25H4c-.14,0-.25-.11-.25-.25v-3c0-.14,.11-.25,.25-.25h1.48c1.03,.63,2.23,1,3.52,1s2.49-.37,3.52-1h1.48c.14,0,.25,.11,.25,.25v3Zm4.5-9.5c0-.41,.34-.75,.75-.75s.75,.34,.75,.75-.34,.75-.75,.75-.75-.34-.75-.75Z"/><path d="M9,12.75c1.52,0,2.75-1.23,2.75-2.75s-1.23-2.75-2.75-2.75-2.75,1.23-2.75,2.75,1.23,2.75,2.75,2.75Zm0-4c.69,0,1.25,.56,1.25,1.25s-.56,1.25-1.25,1.25-1.25-.56-1.25-1.25,.56-1.25,1.25-1.25Z"/></g></g><g id="t"/><g id="u"/></svg>