<?xml version="1.0" encoding="UTF-8"?><svg xmlns="http://www.w3.org/2000/svg" viewBox="0 0 24 24"><g id="a"/><g id="b"/><g id="c"/><g id="d"/><g id="e"/><g id="f"><path d="M20.75,16.43V7c0-1.52-1.23-2.75-2.75-2.75H6c-1.52,0-2.75,1.23-2.75,2.75v9.43c-.59,.28-1,.88-1,1.57v1c0,.96,.79,1.75,1.75,1.75H20c.96,0,1.75-.79,1.75-1.75v-1c0-.7-.41-1.29-1-1.57ZM4.75,7c0-.69,.56-1.25,1.25-1.25h12c.69,0,1.25,.56,1.25,1.25v9.25h-1.5v-1.25c0-.96-.79-1.75-1.75-1.75h-3c-.96,0-1.75,.79-1.75,1.75v1.25H4.75V7Zm11.5,9.25h-3.5v-1.25c0-.14,.11-.25,.25-.25h3c.14,0,.25,.11,.25,.25v1.25Zm4,2.75c0,.14-.11,.25-.25,.25H4c-.14,0-.25-.11-.25-.25v-1c0-.14,.11-.25,.25-.25H20c.14,0,.25,.11,.25,.25v1Z"/></g><g id="g"/><g id="h"/><g id="i"/><g id="j"/><g id="k"/><g id="l"/><g id="m"/><g id="n"/><g id="o"/><g id="p"/><g id="q"/><g id="r"/><g id="s"/><g id="t"/><g id="u"/></svg>