<?xml version="1.0" encoding="UTF-8"?><svg xmlns="http://www.w3.org/2000/svg" viewBox="0 0 24 24"><g id="a"/><g id="b"/><g id="c"/><g id="d"/><g id="e"/><g id="f"/><g id="g"/><g id="h"/><g id="i"/><g id="j"/><g id="k"/><g id="l"/><g id="m"/><g id="n"/><g id="o"/><g id="p"/><g id="q"/><g id="r"/><g id="s"/><g id="t"/><g id="u"><path d="M21.2,5.16c-.7-.64-2.61-2.1-5.26-1.89-1.83,.15-3.17,1.02-3.94,1.7-.77-.68-2.11-1.55-3.94-1.7-2.65-.21-4.56,1.25-5.26,1.89-.35,.32-.55,.79-.55,1.27v10.57c0,.63,.32,1.18,.86,1.49,.54,.31,1.22,.31,1.77,0,.97-.56,2-.81,3.06-.72,1.87,.15,3.07,1.28,3.5,1.76,.14,.16,.34,.25,.56,.25s.41-.09,.56-.25c.43-.48,1.64-1.6,3.5-1.76,1.06-.09,2.09,.16,3.06,.72,.55,.32,1.23,.32,1.77,0,.54-.31,.86-.87,.86-1.49V6.43c0-.49-.2-.95-.55-1.27Zm-13.14,11.11c-.17-.01-.35-.02-.53-.02-1.17,0-2.34,.32-3.41,.94-.13,.07-.23,.03-.27,0-.07-.04-.11-.11-.11-.19V6.43s.01-.12,.07-.17c.69-.63,2.14-1.66,4.12-1.5,1.64,.13,2.77,1.02,3.31,1.55v11.08c-.78-.52-1.85-1.02-3.19-1.13Zm12.19,.73c0,.09-.04,.15-.11,.19-.04,.02-.14,.07-.27,0-1.23-.71-2.59-1.03-3.93-.92-1.34,.11-2.41,.61-3.19,1.13V6.32c.54-.54,1.67-1.42,3.31-1.55,1.99-.16,3.43,.87,4.12,1.5,.06,.05,.07,.12,.07,.17v10.57Z"/></g></svg>