<?xml version="1.0" encoding="UTF-8"?><svg xmlns="http://www.w3.org/2000/svg" viewBox="0 0 24 24"><g id="a"/><g id="b"/><g id="c"/><g id="d"/><g id="e"/><g id="f"/><g id="g"/><g id="h"/><g id="i"/><g id="j"><path d="M19,2.25H5c-1.52,0-2.75,1.23-2.75,2.75v7c0,1.52,1.23,2.75,2.75,2.75h4.17c.41,0,.75-.34,.75-.75s-.34-.75-.75-.75H5c-.69,0-1.25-.56-1.25-1.25V5c0-.69,.56-1.25,1.25-1.25h14c.69,0,1.25,.56,1.25,1.25v7c0,.69-.56,1.25-1.25,1.25h-.28c0-.08,.03-.16,.03-.25,0-2.07-1.68-3.75-3.75-3.75s-3.75,1.68-3.75,3.75c0,.98,.38,1.86,1,2.53v4.47c0,.26,.13,.5,.36,.64,.22,.14,.5,.15,.73,.03l1.66-.83,1.66,.83c.11,.05,.22,.08,.34,.08,.14,0,.27-.04,.39-.11,.22-.14,.36-.38,.36-.64v-4.47c.22-.23,.4-.5,.55-.78h.7c1.52,0,2.75-1.23,2.75-2.75V5c0-1.52-1.23-2.75-2.75-2.75Zm-4,8.5c1.24,0,2.25,1.01,2.25,2.25s-1.01,2.25-2.25,2.25-2.25-1.01-2.25-2.25,1.01-2.25,2.25-2.25Zm.34,7.58c-.21-.11-.46-.11-.67,0l-.91,.46v-2.27c.39,.14,.81,.23,1.25,.23s.86-.09,1.25-.23v2.27l-.91-.46Z"/></g><g id="k"/><g id="l"/><g id="m"/><g id="n"/><g id="o"/><g id="p"/><g id="q"/><g id="r"/><g id="s"/><g id="t"/><g id="u"/></svg>