<?xml version="1.0" encoding="UTF-8"?><svg xmlns="http://www.w3.org/2000/svg" viewBox="0 0 24 24"><g id="a"/><g id="b"/><g id="c"/><g id="d"/><g id="e"/><g id="f"/><g id="g"/><g id="h"/><g id="i"/><g id="j"/><g id="k"><path d="M19.9,15.7l-3.86-4.63c-.19-.22-.29-.51-.29-.8V3.75h.25c.41,0,.75-.34,.75-.75s-.34-.75-.75-.75H8c-.41,0-.75,.34-.75,.75s.34,.75,.75,.75h.25v6.53c0,.29-.1,.58-.29,.8l-3.86,4.63c-.55,.66-.85,1.5-.85,2.36,0,2.03,1.65,3.69,3.69,3.69h10.13c2.03,0,3.69-1.65,3.69-3.69,0-.86-.3-1.7-.85-2.36Zm-2.83,4.55H6.94c-1.21,0-2.19-.98-2.19-2.19,0-.51,.18-1.01,.51-1.4l.76-.91H15c.41,0,.75-.34,.75-.75s-.34-.75-.75-.75H7.27l1.84-2.21c.41-.49,.64-1.12,.64-1.76V3.75h4.5v6.53c0,.64,.23,1.27,.64,1.76l3.86,4.63c.33,.39,.51,.89,.51,1.4,0,1.21-.98,2.19-2.19,2.19Z"/></g><g id="l"/><g id="m"/><g id="n"/><g id="o"/><g id="p"/><g id="q"/><g id="r"/><g id="s"/><g id="t"/><g id="u"/></svg>