<?xml version="1.0" encoding="UTF-8"?><svg xmlns="http://www.w3.org/2000/svg" viewBox="0 0 24 24"><g id="a"/><g id="b"><path d="M19,3.25H5c-1.52,0-2.75,1.23-2.75,2.75V14c0,1.52,1.23,2.75,2.75,2.75h4.25v2.5h-1.25c-.41,0-.75,.34-.75,.75s.34,.75,.75,.75h8c.41,0,.75-.34,.75-.75s-.34-.75-.75-.75h-1.25v-2.5h4.25c1.52,0,2.75-1.23,2.75-2.75V6c0-1.52-1.23-2.75-2.75-2.75Zm-14,1.5h14c.69,0,1.25,.56,1.25,1.25v6.25H3.75V6c0-.69,.56-1.25,1.25-1.25Zm8.25,14.5h-2.5v-2.5h2.5v2.5Zm5.75-4H5c-.69,0-1.25-.56-1.25-1.25v-.25H20.25v.25c0,.69-.56,1.25-1.25,1.25Z"/></g><g id="c"/><g id="d"/><g id="e"/><g id="f"/><g id="g"/><g id="h"/><g id="i"/><g id="j"/><g id="k"/><g id="l"/><g id="m"/><g id="n"/><g id="o"/><g id="p"/><g id="q"/><g id="r"/><g id="s"/><g id="t"/><g id="u"/></svg>