<?xml version="1.0" encoding="UTF-8"?><svg xmlns="http://www.w3.org/2000/svg" viewBox="0 0 24 24"><g id="a"/><g id="b"/><g id="c"/><g id="d"/><g id="e"><path d="M13.37,2.36s-.02-.02-.04-.03c-.18-.09-.39-.1-.57-.04-.25-.02-.51-.04-.77-.04C6.62,2.25,2.25,6.62,2.25,12s4.37,9.75,9.75,9.75,9.75-4.37,9.75-9.75c0-4.91-3.65-8.97-8.38-9.64Zm6.26,6.53l-1.43-.36c-.81-.2-1.65-.17-2.44,.09l-.49,.16c-.17,.06-.3,0-.36-.05-.06-.04-.16-.15-.16-.32v-.26c0-1.04-.85-1.9-1.9-1.9-.2,0-.3-.13-.34-.19-.04-.06-.11-.21-.02-.39l.9-1.8c2.83,.49,5.17,2.42,6.24,5.01Zm-15.57,.89l2.46,.49c.28,.06,.37,.27,.4,.36,.03,.09,.07,.32-.13,.52l-.42,.42c-.79,.79-.79,2.07,0,2.86,.15,.15,.16,.33,.15,.42,0,.09-.05,.26-.23,.38l-1.4,.93c-.72-1.23-1.14-2.65-1.14-4.17,0-.77,.11-1.51,.31-2.22Zm5.12,9.97l.66-.33c1.14-.57,1.98-1.61,2.28-2.85l.13-.53c.04-.16,.16-.22,.23-.24,.07-.02,.2-.03,.32,.08l.89,.89c.71,.71,1.87,.71,2.59,0,.11-.11,.24-.1,.31-.09,.07,.02,.19,.06,.24,.22l.45,1.34s.02,.04,.03,.06c-1.44,1.22-3.29,1.96-5.32,1.96-.99,0-1.93-.18-2.81-.5Zm9.3-2.66l-.22-.66c-.2-.61-.69-1.06-1.32-1.2-.62-.15-1.26,.04-1.71,.49-.13,.13-.34,.13-.47,0l-.89-.89c-.47-.47-1.14-.65-1.78-.47-.64,.18-1.13,.67-1.29,1.32l-.13,.53c-.2,.81-.75,1.5-1.5,1.87l-1.67,.84c-.65-.42-1.23-.94-1.74-1.52l1.36-.9c.51-.34,.83-.88,.89-1.49,.06-.61-.15-1.2-.58-1.63-.2-.2-.2-.54,0-.74l.42-.42c.53-.53,.72-1.3,.51-2.02s-.81-1.25-1.54-1.4l-2.2-.44c1.32-2.66,4.03-4.51,7.17-4.6l-.62,1.25c-.3,.59-.26,1.28,.08,1.84,.35,.56,.95,.9,1.61,.9,.22,0,.4,.18,.4,.4v.26c0,.61,.29,1.18,.79,1.54,.49,.36,1.13,.45,1.71,.26l.5-.17c.52-.17,1.07-.19,1.6-.06l2.28,.57c.08,.47,.14,.95,.14,1.45,0,1.92-.66,3.68-1.77,5.08Z"/></g><g id="f"/><g id="g"/><g id="h"/><g id="i"/><g id="j"/><g id="k"/><g id="l"/><g id="m"/><g id="n"/><g id="o"/><g id="p"/><g id="q"/><g id="r"/><g id="s"/><g id="t"/><g id="u"/></svg>