<?xml version="1.0" encoding="UTF-8"?><svg xmlns="http://www.w3.org/2000/svg" viewBox="0 0 24 24"><g id="a"/><g id="b"/><g id="c"/><g id="d"/><g id="e"/><g id="f"/><g id="g"/><g id="h"/><g id="i"/><g id="j"/><g id="k"/><g id="l"/><g id="m"/><g id="n"/><g id="o"/><g id="p"/><g id="q"/><g id="r"/><g id="s"/><g id="t"><path d="M20.73,7.31l-7.84-3.86c-.56-.28-1.23-.28-1.79,0L3.27,7.31c-.65,.32-1.04,.95-1.01,1.64,.03,.7,.47,1.3,1.16,1.57l1.78,.7-.79,3.93c-.15,.76,.21,1.52,.89,1.89,1.44,.78,3.76,1.71,6.7,1.71,1.64,0,4.14-.3,6.74-1.73,.65-.36,1-1.13,.85-1.87l-.79-3.93,1.78-.7c.69-.27,1.13-.87,1.16-1.57,.03-.69-.36-1.32-1.01-1.64Zm-2.61,8.13c.02,.1-.02,.22-.11,.26-2.32,1.28-4.56,1.54-6.02,1.54-2.63,0-4.71-.83-5.99-1.53-.1-.06-.16-.17-.14-.28l.73-3.67,4.65,1.83c.24,.09,.49,.14,.74,.14s.51-.05,.75-.14l4.65-1.83,.73,3.66Zm1.91-6.32l-7.84,3.09c-.12,.05-.27,.05-.39,0l-7.84-3.09c-.13-.05-.21-.14-.21-.23,0-.09,.06-.17,.18-.23l7.84-3.86c.07-.03,.15-.05,.23-.05s.16,.02,.23,.05l7.84,3.86c.12,.06,.18,.14,.18,.23,0,.1-.08,.18-.21,.23Z"/></g><g id="u"/></svg>