<?xml version="1.0" encoding="UTF-8"?><svg xmlns="http://www.w3.org/2000/svg" viewBox="0 0 24 24"><g id="a"/><g id="b"/><g id="c"/><g id="d"/><g id="e"/><g id="f"/><g id="g"/><g id="h"/><g id="i"/><g id="j"/><g id="k"/><g id="l"/><g id="m"/><g id="n"/><g id="o"/><g id="p"/><g id="q"><path d="M17.43,4.48c-1.49-1.47-3.43-2.24-5.56-2.22-4.05,.07-7.47,3.41-7.62,7.46-.1,2.7,1.18,5.21,3.41,6.72,.37,.25,.58,.64,.58,1.05v1.52c0,1.52,1.23,2.75,2.75,2.75h2c1.52,0,2.75-1.23,2.75-2.75v-1.52c0-.41,.21-.8,.57-1.04,2.15-1.44,3.43-3.85,3.43-6.43,0-2.09-.82-4.06-2.32-5.52Zm-4.43,15.77h-2c-.69,0-1.25-.56-1.25-1.25v-.25h4.5v.25c0,.69-.56,1.25-1.25,1.25Zm2.48-5.06c-.71,.48-1.14,1.24-1.21,2.06h-4.56c-.07-.82-.5-1.59-1.21-2.07-1.8-1.22-2.83-3.25-2.75-5.42,.12-3.26,2.88-5.96,6.14-6.01,1.69-.02,3.28,.61,4.49,1.79,1.2,1.18,1.87,2.77,1.87,4.46,0,2.08-1.03,4.02-2.77,5.19Z"/></g><g id="r"/><g id="s"/><g id="t"/><g id="u"/></svg>