<?xml version="1.0" encoding="UTF-8"?><svg xmlns="http://www.w3.org/2000/svg" viewBox="0 0 24 24"><g id="a"/><g id="b"/><g id="c"/><g id="d"/><g id="e"/><g id="f"/><g id="g"/><g id="h"/><g id="i"/><g id="j"/><g id="k"/><g id="l"/><g id="m"><path d="M18,20.25h-1.81c1.29-1.03,2.22-2.51,2.48-4.2,.49-3.19-1.35-6.23-4.24-7.35l1.11-1.11,.18,.18c.15,.15,.34,.22,.53,.22s.38-.07,.53-.22c.29-.29,.29-.77,0-1.06l-2.12-2.12-1.41-1.41h0l-.71-.71c-.29-.29-.77-.29-1.06,0s-.29,.77,0,1.06l.18,.18-5.83,5.83c-.33,.33-.51,.77-.51,1.24s.18,.91,.51,1.24l1.42,1.41c.33,.33,.77,.51,1.24,.51h0c.47,0,.91-.18,1.24-.51l3.51-3.51c2.66,.63,4.39,3.14,3.97,5.91-.35,2.3-2.29,4.14-4.61,4.39-2.06,.22-3.99-.77-5.04-2.47h1.46c.41,0,.75-.34,.75-.75s-.34-.75-.75-.75H4c-.41,0-.75,.34-.75,.75s.34,.75,.75,.75h1.86c.45,1,1.11,1.84,1.92,2.5h-1.78c-.41,0-.75,.34-.75,.75s.34,.75,.75,.75h12c.41,0,.75-.34,.75-.75s-.34-.75-.75-.75Zm-9.36-7.88c-.06,.06-.14,.07-.18,.07-.01,0-.11,0-.18-.07h0l-1.42-1.41c-.06-.06-.07-.14-.07-.18s0-.11,.07-.18l5.83-5.83,.88,.88,.88,.88-5.83,5.83Z"/></g><g id="n"/><g id="o"/><g id="p"/><g id="q"/><g id="r"/><g id="s"/><g id="t"/><g id="u"/></svg>