<?xml version="1.0" encoding="UTF-8"?><svg xmlns="http://www.w3.org/2000/svg" viewBox="0 0 24 24"><g id="a"/><g id="b"/><g id="c"/><g id="d"/><g id="e"/><g id="f"/><g id="g"/><g id="h"/><g id="i"/><g id="j"/><g id="k"/><g id="l"/><g id="m"/><g id="n"/><g id="o"/><g id="p"/><g id="q"/><g id="r"><g><path d="M16,2.25H8c-2.07,0-3.75,1.68-3.75,3.75v1.25h-.25c-.41,0-.75,.34-.75,.75s.34,.75,.75,.75h.25v2.5h-.25c-.41,0-.75,.34-.75,.75s.34,.75,.75,.75h.25v2.5h-.25c-.41,0-.75,.34-.75,.75s.34,.75,.75,.75h.25v1.25c0,2.07,1.68,3.75,3.75,3.75h8c2.07,0,3.75-1.68,3.75-3.75V6c0-2.07-1.68-3.75-3.75-3.75Zm2.25,15.75c0,1.24-1.01,2.25-2.25,2.25H8c-1.24,0-2.25-1.01-2.25-2.25v-1.25h.25c.41,0,.75-.34,.75-.75s-.34-.75-.75-.75h-.25v-2.5h.25c.41,0,.75-.34,.75-.75s-.34-.75-.75-.75h-.25v-2.5h.25c.41,0,.75-.34,.75-.75s-.34-.75-.75-.75h-.25v-1.25c0-1.24,1.01-2.25,2.25-2.25h8c1.24,0,2.25,1.01,2.25,2.25v12Z"/><path d="M14,6.25h-4c-.96,0-1.75,.79-1.75,1.75v1c0,.96,.79,1.75,1.75,1.75h4c.96,0,1.75-.79,1.75-1.75v-1c0-.96-.79-1.75-1.75-1.75Zm.25,2.75c0,.14-.11,.25-.25,.25h-4c-.14,0-.25-.11-.25-.25v-1c0-.14,.11-.25,.25-.25h4c.14,0,.25,.11,.25,.25v1Z"/></g></g><g id="s"/><g id="t"/><g id="u"/></svg>