<?xml version="1.0" encoding="UTF-8"?><svg xmlns="http://www.w3.org/2000/svg" viewBox="0 0 24 24"><g id="a"/><g id="b"/><g id="c"/><g id="d"/><g id="e"/><g id="f"/><g id="g"/><g id="h"><g><path d="M18.94,4.88l-1.83-1.83c-.52-.52-1.21-.81-1.94-.81H7c-1.52,0-2.75,1.23-2.75,2.75v14c0,1.52,1.23,2.75,2.75,2.75h10c1.52,0,2.75-1.23,2.75-2.75V6.83c0-.73-.29-1.42-.81-1.94Zm-1.06,1.06c.09,.09,.15,.2,.2,.31h-2.09c-.14,0-.25-.11-.25-.25V3.91c.11,.06,.22,.12,.31,.2l1.83,1.83Zm-.88,14.31H7c-.69,0-1.25-.56-1.25-1.25V5c0-.69,.56-1.25,1.25-1.25h7.25v2.25c0,.96,.79,1.75,1.75,1.75h2.25v11.25c0,.69-.56,1.25-1.25,1.25Z"/><path d="M8,8.75h4c.41,0,.75-.34,.75-.75s-.34-.75-.75-.75h-4c-.41,0-.75,.34-.75,.75s.34,.75,.75,.75Z"/><path d="M16,11.25H8c-.41,0-.75,.34-.75,.75s.34,.75,.75,.75h8c.41,0,.75-.34,.75-.75s-.34-.75-.75-.75Z"/><path d="M16,15.25H8c-.41,0-.75,.34-.75,.75s.34,.75,.75,.75h8c.41,0,.75-.34,.75-.75s-.34-.75-.75-.75Z"/></g></g><g id="i"/><g id="j"/><g id="k"/><g id="l"/><g id="m"/><g id="n"/><g id="o"/><g id="p"/><g id="q"/><g id="r"/><g id="s"/><g id="t"/><g id="u"/></svg>