<?xml version="1.0" encoding="UTF-8"?><svg xmlns="http://www.w3.org/2000/svg" viewBox="0 0 24 24"><g id="a"/><g id="b"/><g id="c"/><g id="d"/><g id="e"/><g id="f"/><g id="g"/><g id="h"/><g id="i"/><g id="j"/><g id="k"/><g id="l"><path d="M21.75,2.93c-.02-.22-.14-.43-.33-.55-.19-.12-.42-.16-.64-.09-1.01,.31-2.03,.65-3.04,1.01-5.63,2.02-8.45,3.03-10.31,5.22-1.06,1.25-2.72,4.1-2.2,9.2l-2.76,2.76c-.29,.29-.29,.77,0,1.06,.15,.15,.34,.22,.53,.22s.38-.07,.53-.22l2.83-2.83c1.33-.2,2.64-.53,3.9-1,1.47-.54,2.87-1.27,4.16-2.14,.19-.13,.31-.33,.33-.56,0-.11,0-.21-.04-.31l1.32-.05c.14,0,.27-.05,.38-.12,1.27-.82,2.35-1.87,3.21-3.09,.13-.18,.17-.4,.11-.61-.05-.21-.2-.39-.39-.49l-.36-.18,1.36-.44c.21-.07,.38-.22,.46-.42,.52-1.21,.84-2.52,.96-3.89,.07-.83,.07-1.66-.01-2.47Zm-1.48,2.34c-.09,1.1-.34,2.14-.72,3.12l-2.78,.89c-.29,.09-.5,.35-.52,.66s.14,.59,.41,.73l1.19,.59c-.6,.72-1.3,1.35-2.09,1.89l-2.79,.1c-.3,.01-.57,.2-.68,.49s-.03,.6,.19,.81l.3,.28c-.97,.58-1.99,1.08-3.05,1.47-.97,.36-1.97,.63-2.99,.82,.57-1.88,1.49-3.42,2.75-4.56,.56-.51,1.02-.79,2.88-1.91,1.97-1.19,3.67-2.2,5-3,.36-.21,.47-.67,.26-1.03-.21-.35-.67-.47-1.03-.26-1.33,.79-3.03,1.81-5,3-1.82,1.09-2.43,1.46-3.12,2.09-.63,.57-1.18,1.25-1.66,1.98,.37-2,1.16-3.26,1.73-3.94,1.61-1.88,4.3-2.85,9.68-4.78,.68-.24,1.37-.48,2.06-.7,0,.42,0,.84-.04,1.26Z"/></g><g id="m"/><g id="n"/><g id="o"/><g id="p"/><g id="q"/><g id="r"/><g id="s"/><g id="t"/><g id="u"/></svg>