<?xml version="1.0" encoding="UTF-8"?><svg xmlns="http://www.w3.org/2000/svg" viewBox="0 0 24 24"><g id="a"/><g id="b"/><g id="c"/><g id="d"/><g id="e"/><g id="f"/><g id="g"/><g id="h"/><g id="i"/><g id="j"/><g id="k"/><g id="l"/><g id="m"/><g id="n"/><g id="o"/><g id="p"><g><path d="M19.5,9.25h-.78c-.13-2.23-1.97-4-4.22-4s-4.09,1.77-4.22,4H4.5c-1.24,0-2.25,1.01-2.25,2.25v3c0,1.16,.88,2.1,2,2.22v1.28c0,.41,.34,.75,.75,.75s.75-.34,.75-.75v-1.25h12.5v1.25c0,.41,.34,.75,.75,.75s.75-.34,.75-.75v-1.28c1.12-.13,2-1.07,2-2.22v-3c0-1.24-1.01-2.25-2.25-2.25Zm-5-2.5c1.52,0,2.75,1.23,2.75,2.75s-1.23,2.75-2.75,2.75-2.75-1.23-2.75-2.75,1.23-2.75,2.75-2.75Zm5.75,7.75c0,.41-.34,.75-.75,.75H4.5c-.41,0-.75-.34-.75-.75v-3c0-.41,.34-.75,.75-.75h5.96c.54,1.73,2.14,3,4.04,3s3.5-1.27,4.04-3h.96c.41,0,.75,.34,.75,.75v3Z"/><path d="M8,12.25h-2c-.41,0-.75,.34-.75,.75s.34,.75,.75,.75h2c.41,0,.75-.34,.75-.75s-.34-.75-.75-.75Z"/></g></g><g id="q"/><g id="r"/><g id="s"/><g id="t"/><g id="u"/></svg>