<?xml version="1.0" encoding="UTF-8"?><svg xmlns="http://www.w3.org/2000/svg" viewBox="0 0 24 24"><g id="a"/><g id="b"/><g id="c"/><g id="d"/><g id="e"/><g id="f"/><g id="g"/><g id="h"/><g id="i"/><g id="j"/><g id="k"/><g id="l"/><g id="m"/><g id="n"><path d="M19,6.25h-2.25v-1.25c0-1.52-1.23-2.75-2.75-2.75h-4c-1.52,0-2.75,1.23-2.75,2.75v1.25h-2.25c-1.52,0-2.75,1.23-2.75,2.75v9c0,1.52,1.23,2.75,2.75,2.75h14c1.52,0,2.75-1.23,2.75-2.75V9c0-1.52-1.23-2.75-2.75-2.75Zm-10.25-1.25c0-.69,.56-1.25,1.25-1.25h4c.69,0,1.25,.56,1.25,1.25v1.25h-6.5v-1.25Zm-3.75,2.75h14c.69,0,1.25,.56,1.25,1.25v1.51c-2.36,1.03-4.92,1.6-7.5,1.69v-1.19c0-.41-.34-.75-.75-.75s-.75,.34-.75,.75v1.19c-2.58-.09-5.14-.65-7.5-1.69v-1.51c0-.69,.56-1.25,1.25-1.25Zm14,11.5H5c-.69,0-1.25-.56-1.25-1.25v-5.86c2.38,.96,4.94,1.5,7.5,1.59v1.27c0,.41,.34,.75,.75,.75s.75-.34,.75-.75v-1.27c2.56-.09,5.12-.63,7.5-1.59v5.86c0,.69-.56,1.25-1.25,1.25Z"/></g><g id="o"/><g id="p"/><g id="q"/><g id="r"/><g id="s"/><g id="t"/><g id="u"/></svg>