<?xml version="1.0" encoding="UTF-8"?><svg xmlns="http://www.w3.org/2000/svg" viewBox="0 0 24 24"><g id="a"/><g id="b"/><g id="c"/><g id="d"/><g id="e"/><g id="f"/><g id="g"/><g id="h"/><g id="i"/><g id="j"/><g id="k"/><g id="l"/><g id="m"><path d="M20.87,11.06l-6.12-3.5v-2.56c0-1.52-1.23-2.75-2.75-2.75s-2.75,1.23-2.75,2.75v2.56l-6.12,3.5c-.54,.31-.88,.89-.88,1.52v1.09c0,.55,.25,1.06,.7,1.4,.44,.33,1,.44,1.53,.29l4.77-1.36v2.6l-2.44,1.63c-.35,.23-.56,.62-.56,1.04v1.12c0,.38,.17,.73,.46,.97,.23,.19,.5,.28,.79,.28,.08,0,.17,0,.25-.02l4.25-.85,4.25,.85c.37,.07,.75-.02,1.04-.26,.29-.24,.46-.59,.46-.97v-1.12c0-.42-.21-.81-.56-1.04l-2.44-1.63v-2.6l4.77,1.36c.54,.15,1.09,.05,1.53-.29,.44-.33,.7-.84,.7-1.4v-1.09c0-.63-.34-1.21-.88-1.52Z"/></g><g id="n"/><g id="o"/><g id="p"/><g id="q"/><g id="r"/><g id="s"/><g id="t"/><g id="u"/></svg>