<?xml version="1.0" encoding="UTF-8"?><svg xmlns="http://www.w3.org/2000/svg" viewBox="0 0 24 24"><g id="a"/><g id="b"/><g id="c"/><g id="d"/><g id="e"/><g id="f"/><g id="g"/><g id="h"/><g id="i"/><g id="j"/><g id="k"/><g id="l"/><g id="m"/><g id="n"/><g id="o"/><g id="p"/><g id="q"><path d="M20.16,8.25L14.49,3.21c-1.42-1.26-3.56-1.26-4.98,0L3.84,8.25c-1.01,.9-1.59,2.19-1.59,3.55v5.2c0,2.62,2.13,4.75,4.75,4.75h10c2.62,0,4.75-2.13,4.75-4.75v-5.2c0-1.36-.58-2.65-1.59-3.55Zm-4.16,9.5H8c-.41,0-.75-.34-.75-.75s.34-.75,.75-.75h8c.41,0,.75,.34,.75,.75s-.34,.75-.75,.75Z"/></g><g id="r"/><g id="s"/><g id="t"/><g id="u"/></svg>