<?xml version="1.0" encoding="UTF-8"?><svg xmlns="http://www.w3.org/2000/svg" viewBox="0 0 24 24"><g id="a"/><g id="b"/><g id="c"><path d="M17,5.25H8.87c-1.41,0-2.74,.62-3.65,1.71l-2.2,2.64c-1.16,1.39-1.16,3.41,0,4.8l2.2,2.64c.91,1.09,2.23,1.71,3.65,1.71h8.13c2.62,0,4.75-2.13,4.75-4.75v-4c0-2.62-2.13-4.75-4.75-4.75Zm-.47,5.28l-4,4c-.15,.15-.34,.22-.53,.22s-.38-.07-.53-.22l-2-2c-.29-.29-.29-.77,0-1.06s.77-.29,1.06,0l1.47,1.47,3.47-3.47c.29-.29,.77-.29,1.06,0s.29,.77,0,1.06Z"/></g><g id="d"/><g id="e"/><g id="f"/><g id="g"/><g id="h"/><g id="i"/><g id="j"/><g id="k"/><g id="l"/><g id="m"/><g id="n"/><g id="o"/><g id="p"/><g id="q"/><g id="r"/><g id="s"/><g id="t"/><g id="u"/></svg>