<?xml version="1.0" encoding="UTF-8"?><svg xmlns="http://www.w3.org/2000/svg" viewBox="0 0 24 24"><g id="a"/><g id="b"/><g id="c"/><g id="d"/><g id="e"/><g id="f"/><g id="g"/><g id="h"/><g id="i"><g><circle cx="12" cy="15" r="1.25"/><circle cx="12" cy="11" r="1.25"/><path d="M17.75,4.33v-1.33c0-.41-.34-.75-.75-.75s-.75,.34-.75,.75v1.25H7.75v-1.25c0-.41-.34-.75-.75-.75s-.75,.34-.75,.75v1.33c-1.71,.35-3,1.86-3,3.67v10c0,2.07,1.68,3.75,3.75,3.75h10c2.07,0,3.75-1.68,3.75-3.75V8c0-1.81-1.29-3.33-3-3.67Zm-3,10.67c0,1.52-1.23,2.75-2.75,2.75s-2.75-1.23-2.75-2.75c0-.79,.34-1.5,.87-2-.54-.5-.87-1.21-.87-2,0-1.52,1.23-2.75,2.75-2.75s2.75,1.23,2.75,2.75c0,.79-.34,1.5-.87,2,.54,.5,.87,1.21,.87,2Z"/></g></g><g id="j"/><g id="k"/><g id="l"/><g id="m"/><g id="n"/><g id="o"/><g id="p"/><g id="q"/><g id="r"/><g id="s"/><g id="t"/><g id="u"/></svg>