<?xml version="1.0" encoding="UTF-8"?><svg xmlns="http://www.w3.org/2000/svg" viewBox="0 0 24 24"><g id="a"/><g id="b"><g><path d="M8.22,13.47l.81,1.22c.23,.35,.62,.56,1.04,.56h3.86c.42,0,.81-.21,1.04-.56l.81-1.22c.51-.77,1.37-1.22,2.29-1.22h3.52l-1.29-5.16c-.42-1.67-1.91-2.84-3.64-2.84H7.34c-1.72,0-3.22,1.17-3.64,2.84l-1.29,5.16h3.52c.92,0,1.78,.46,2.29,1.22Z"/><path d="M18.07,13.75c-.42,0-.81,.21-1.04,.56l-.81,1.22c-.51,.77-1.37,1.22-2.29,1.22h-3.86c-.92,0-1.78-.46-2.29-1.22l-.81-1.22c-.23-.35-.62-.56-1.04-.56H2.25v3.25c0,2.07,1.68,3.75,3.75,3.75h12c2.07,0,3.75-1.68,3.75-3.75v-3.25h-3.68Z"/></g></g><g id="c"/><g id="d"/><g id="e"/><g id="f"/><g id="g"/><g id="h"/><g id="i"/><g id="j"/><g id="k"/><g id="l"/><g id="m"/><g id="n"/><g id="o"/><g id="p"/><g id="q"/><g id="r"/><g id="s"/><g id="t"/><g id="u"/></svg>