<?xml version="1.0" encoding="UTF-8"?><svg xmlns="http://www.w3.org/2000/svg" viewBox="0 0 24 24"><g id="a"/><g id="b"/><g id="c"/><g id="d"/><g id="e"/><g id="f"/><g id="g"/><g id="h"/><g id="i"/><g id="j"/><g id="k"><path d="M20.03,3.07c-.46-.33-1.06-.42-1.6-.24-1.13,.37-2.27,.51-3.37,.43-.95-.08-1.57-.28-2.36-.53-.44-.14-.92-.3-1.52-.45-1.69-.43-3.52-.49-5.45-.18-.86,.14-1.49,.87-1.49,1.73V21c0,.41,.34,.75,.75,.75s.75-.34,.75-.75v-7.52c1.08-.5,2.17-.76,3.24-.73,1.11,.02,1.88,.29,2.76,.61,.33,.12,.67,.24,1.03,.35,1.11,.34,2.29,.51,3.54,.51,.96,0,1.97-.1,3-.3,.83-.16,1.43-.89,1.43-1.72V4.48c0-.57-.26-1.08-.72-1.41Z"/></g><g id="l"/><g id="m"/><g id="n"/><g id="o"/><g id="p"/><g id="q"/><g id="r"/><g id="s"/><g id="t"/><g id="u"/></svg>