<?xml version="1.0" encoding="UTF-8"?><svg xmlns="http://www.w3.org/2000/svg" viewBox="0 0 24 24"><g id="a"/><g id="b"/><g id="c"/><g id="d"/><g id="e"/><g id="f"/><g id="g"/><g id="h"/><g id="i"/><g id="j"/><g id="k"/><g id="l"/><g id="m"/><g id="n"/><g id="o"/><g id="p"><path d="M12,2.25C6.62,2.25,2.25,6.62,2.25,12v6c0,1.52,1.23,2.75,2.75,2.75h1c1.52,0,2.75-1.23,2.75-2.75v-2c0-1.52-1.23-2.75-2.75-2.75H3.75v-1.25C3.75,7.45,7.45,3.75,12,3.75s8.25,3.7,8.25,8.25v1.25h-2.25c-1.52,0-2.75,1.23-2.75,2.75v2c0,1.52,1.23,2.75,2.75,2.75h1c1.52,0,2.75-1.23,2.75-2.75v-6c0-5.38-4.37-9.75-9.75-9.75Z"/></g><g id="q"/><g id="r"/><g id="s"/><g id="t"/><g id="u"/></svg>