<?xml version="1.0" encoding="UTF-8"?><svg xmlns="http://www.w3.org/2000/svg" viewBox="0 0 24 24"><g id="a"/><g id="b"/><g id="c"/><g id="d"/><g id="e"/><g id="f"/><g id="g"/><g id="h"/><g id="i"/><g id="j"/><g id="k"/><g id="l"/><g id="m"/><g id="n"/><g id="o"/><g id="p"/><g id="q"/><g id="r"/><g id="s"><g><path d="M13.04,13.21c-.46-.7-1.62-.7-2.08,0l-3.07,4.6c-.26,.38-.28,.88-.06,1.28,.22,.41,.64,.66,1.1,.66h6.13c.46,0,.88-.25,1.1-.66,.22-.41,.19-.9-.06-1.28l-3.07-4.6Z"/><path d="M18,4.25H6c-2.07,0-3.75,1.68-3.75,3.75v6c0,2.07,1.68,3.75,3.75,3.75h.3c.08-.27,.18-.53,.35-.77l3.07-4.6c.5-.75,1.35-1.19,2.29-1.19s1.79,.45,2.29,1.19l3.06,4.6c.16,.24,.27,.5,.35,.78h.3c2.07,0,3.75-1.68,3.75-3.75v-6c0-2.07-1.68-3.75-3.75-3.75Z"/></g></g><g id="t"/><g id="u"/></svg>