<?xml version="1.0" encoding="UTF-8"?><svg xmlns="http://www.w3.org/2000/svg" viewBox="0 0 24 24"><g id="a"/><g id="b"/><g id="c"/><g id="d"/><g id="e"/><g id="f"/><g id="g"><g><circle cx="12" cy="10" r="2.25"/><path d="M19.28,6.34c-.95-1.81-2.55-3.12-4.51-3.67-1.38-.39-2.47-.42-2.77-.42-.9,0-1.79,.12-2.65,.36-1.95,.54-3.57,1.85-4.56,3.71-1.03,1.93-1.22,4.21-.5,6.36,1.04,3.06,2.79,5.78,5.21,8.07,.7,.67,1.6,1,2.5,1s1.8-.33,2.5-1c2.42-2.3,4.17-5.01,5.23-8.13,.71-2.09,.54-4.37-.45-6.27Zm-7.28,7.41c-2.07,0-3.75-1.68-3.75-3.75s1.68-3.75,3.75-3.75,3.75,1.68,3.75,3.75-1.68,3.75-3.75,3.75Z"/></g></g><g id="h"/><g id="i"/><g id="j"/><g id="k"/><g id="l"/><g id="m"/><g id="n"/><g id="o"/><g id="p"/><g id="q"/><g id="r"/><g id="s"/><g id="t"/><g id="u"/></svg>