<?xml version="1.0" encoding="UTF-8"?><svg xmlns="http://www.w3.org/2000/svg" viewBox="0 0 24 24"><g id="a"/><g id="b"/><g id="c"/><g id="d"/><g id="e"/><g id="f"/><g id="g"/><g id="h"/><g id="i"/><g id="j"/><g id="k"/><g id="l"/><g id="m"/><g id="n"><path d="M18,14.25c-1.36,0-2.54,.73-3.2,1.81l-5.33-2.67c.17-.43,.28-.9,.28-1.4s-.1-.97-.28-1.4l5.33-2.67c.66,1.08,1.84,1.81,3.2,1.81,2.07,0,3.75-1.68,3.75-3.75s-1.68-3.75-3.75-3.75-3.75,1.68-3.75,3.75c0,.17,.03,.34,.05,.51l-5.64,2.82s-.01,.01-.02,.02c-.68-.68-1.61-1.09-2.64-1.09-2.07,0-3.75,1.68-3.75,3.75s1.68,3.75,3.75,3.75c1.03,0,1.97-.42,2.64-1.09,0,0,.01,.01,.02,.02l5.64,2.82c-.02,.17-.05,.34-.05,.51,0,2.07,1.68,3.75,3.75,3.75s3.75-1.68,3.75-3.75-1.68-3.75-3.75-3.75Z"/></g><g id="o"/><g id="p"/><g id="q"/><g id="r"/><g id="s"/><g id="t"/><g id="u"/></svg>