<?xml version="1.0" encoding="UTF-8"?><svg xmlns="http://www.w3.org/2000/svg" viewBox="0 0 24 24"><g id="a"/><g id="b"/><g id="c"/><g id="d"/><g id="e"/><g id="f"/><g id="g"/><g id="h"/><g id="i"/><g id="j"/><g id="k"/><g id="l"><g><path d="M19,1.5c-.83,0-1.5,.67-1.5,1.5V21c0,.83,.67,1.5,1.5,1.5s1.5-.67,1.5-1.5V3c0-.83-.67-1.5-1.5-1.5Z"/><path d="M14,6.5c-.83,0-1.5,.67-1.5,1.5v13c0,.83,.67,1.5,1.5,1.5s1.5-.67,1.5-1.5V8c0-.83-.67-1.5-1.5-1.5Z"/><path d="M9,11.5c-.83,0-1.5,.67-1.5,1.5v8c0,.83,.67,1.5,1.5,1.5s1.5-.67,1.5-1.5V13c0-.83-.67-1.5-1.5-1.5Z"/><path d="M4,16.5c-.83,0-1.5,.67-1.5,1.5v3c0,.83,.67,1.5,1.5,1.5s1.5-.67,1.5-1.5v-3c0-.83-.67-1.5-1.5-1.5Z"/></g></g><g id="m"/><g id="n"/><g id="o"/><g id="p"/><g id="q"/><g id="r"/><g id="s"/><g id="t"/><g id="u"/></svg>