<?xml version="1.0" encoding="UTF-8"?><svg xmlns="http://www.w3.org/2000/svg" viewBox="0 0 24 24"><g id="a"/><g id="b"/><g id="c"/><g id="d"/><g id="e"/><g id="f"/><g id="g"/><g id="h"/><g id="i"/><g id="j"/><g id="k"/><g id="l"/><g id="m"/><g id="n"/><g id="o"/><g id="p"/><g id="q"/><g id="r"/><g id="s"/><g id="t"/><g id="u"><path d="M16,2.25h-6.17c-.73,0-1.43,.29-1.94,.81l-2.83,2.83c-.52,.52-.81,1.21-.81,1.94v10.17c0,2.07,1.68,3.75,3.75,3.75h8c2.07,0,3.75-1.68,3.75-3.75V6c0-2.07-1.68-3.75-3.75-3.75Zm-5.25,6.75c0,.41-.34,.75-.75,.75s-.75-.34-.75-.75v-2c0-.41,.34-.75,.75-.75s.75,.34,.75,.75v2Zm3,0c0,.41-.34,.75-.75,.75s-.75-.34-.75-.75v-3c0-.41,.34-.75,.75-.75s.75,.34,.75,.75v3Zm3,0c0,.41-.34,.75-.75,.75s-.75-.34-.75-.75v-3c0-.41,.34-.75,.75-.75s.75,.34,.75,.75v3Z"/></g></svg>