<?xml version="1.0" encoding="UTF-8"?><svg xmlns="http://www.w3.org/2000/svg" viewBox="0 0 24 24"><g id="a"/><g id="b"/><g id="c"/><g id="d"/><g id="e"/><g id="f"><path d="M21.96,9.6c-.22-.69-.8-1.18-1.52-1.28l-4.66-.69-2.08-4.23c-.32-.65-.96-1.05-1.69-1.05h0c-.72,0-1.37,.4-1.69,1.05l-2.1,4.22-4.67,.67c-.71,.1-1.3,.59-1.52,1.28-.22,.69-.04,1.42,.47,1.93l3.37,3.3-.81,4.64c-.12,.71,.16,1.42,.74,1.84,.58,.43,1.34,.48,1.98,.15l4.18-2.18,4.17,2.2c.28,.15,.58,.22,.88,.22,.39,0,.77-.12,1.1-.36,.58-.42,.87-1.13,.75-1.84l-.79-4.65,3.38-3.28c.52-.5,.7-1.24,.48-1.93Z"/></g><g id="g"/><g id="h"/><g id="i"/><g id="j"/><g id="k"/><g id="l"/><g id="m"/><g id="n"/><g id="o"/><g id="p"/><g id="q"/><g id="r"/><g id="s"/><g id="t"/><g id="u"/></svg>