<?xml version="1.0" encoding="UTF-8"?><svg xmlns="http://www.w3.org/2000/svg" viewBox="0 0 24 24"><g id="a"/><g id="b"/><g id="c"/><g id="d"/><g id="e"/><g id="f"/><g id="g"/><g id="h"/><g id="i"/><g id="j"/><g id="k"/><g id="l"/><g id="m"/><g id="n"/><g id="o"/><g id="p"/><g id="q"/><g id="r"><g><path d="M21.35,7.22c-.07-.14-.16-.26-.27-.36-.31-.32-.74-.49-1.18-.45-.13,0-.25,.04-.38,.08-.07,.02-.13,.04-.2,.08h0l-2.01,1.03c-.74,.38-1.03,1.28-.65,2.02,.26,.52,.79,.82,1.34,.82,.23,0,.46-.05,.68-.16l.55-.28c.39,1.41,.37,2.9-.09,4.32-1.28,3.93-5.52,6.1-9.45,4.82-1.91-.62-3.46-1.94-4.37-3.73-.91-1.78-1.07-3.82-.45-5.72,1.28-3.93,5.51-6.1,9.45-4.82,.39,.13,.77,.28,1.13,.47,.74,.38,1.64,.09,2.02-.65,.38-.74,.09-1.64-.65-2.02-.5-.26-1.04-.48-1.58-.66C9.74,.22,3.8,3.25,2.01,8.76c-.87,2.67-.64,5.51,.63,8.01,1.28,2.5,3.45,4.35,6.11,5.22,1.07,.35,2.16,.51,3.23,.51,4.43,0,8.56-2.83,10-7.26,.87-2.67,.64-5.51-.64-8.01Z"/><circle cx="12" cy="12" r="3.75"/></g></g><g id="s"/><g id="t"/><g id="u"/></svg>