<?xml version="1.0" encoding="UTF-8"?><svg xmlns="http://www.w3.org/2000/svg" viewBox="0 0 24 24"><g id="a"/><g id="b"/><g id="c"/><g id="d"/><g id="e"><g><circle cx="12" cy="17" r="2.5"/><path d="M12,10.81c-1.84,0-3.61,.67-4.98,1.89-.62,.55-.67,1.5-.12,2.12,.55,.62,1.5,.67,2.12,.12,1.64-1.46,4.33-1.46,5.97,0,.29,.25,.64,.38,1,.38,.41,0,.83-.17,1.12-.5,.55-.62,.5-1.57-.12-2.12-1.37-1.22-3.14-1.89-4.98-1.89Z"/><path d="M12,7.17c-2.71,0-5.35,.96-7.42,2.71-.63,.53-.71,1.48-.18,2.11,.3,.35,.72,.53,1.15,.53,.34,0,.69-.12,.97-.35,1.53-1.29,3.48-2,5.48-2s3.94,.71,5.46,1.99c.64,.53,1.58,.45,2.11-.18,.53-.63,.45-1.58-.18-2.11-2.07-1.74-4.69-2.69-7.39-2.69Z"/><path d="M21.96,7.13c-2.78-2.34-6.32-3.63-9.96-3.63s-7.18,1.29-9.96,3.63c-.63,.53-.72,1.48-.18,2.11,.53,.63,1.48,.72,2.11,.18,2.24-1.89,5.1-2.92,8.04-2.92s5.79,1.04,8.04,2.92c.28,.24,.62,.35,.96,.35,.43,0,.85-.18,1.15-.54,.53-.63,.45-1.58-.18-2.11Z"/></g></g><g id="f"/><g id="g"/><g id="h"/><g id="i"/><g id="j"/><g id="k"/><g id="l"/><g id="m"/><g id="n"/><g id="o"/><g id="p"/><g id="q"/><g id="r"/><g id="s"/><g id="t"/><g id="u"/></svg>