<?xml version="1.0" encoding="UTF-8"?><svg xmlns="http://www.w3.org/2000/svg" viewBox="0 0 24 24"><g id="a"/><g id="b"/><g id="c"/><g id="d"/><g id="e"/><g id="f"/><g id="g"/><g id="h"/><g id="i"/><g id="j"/><g id="k"/><g id="l"/><g id="m"/><g id="n"/><g id="o"/><g id="p"/><g id="q"><g><path d="M9.2,4.09c-.98-.67-2.15-.97-3.29-.83-1.4,.17-2.37,.94-2.94,1.56-.46,.5-.72,1.16-.72,1.86v1.98c0,1.48,1.13,2.68,2.56,2.75h.12c.33,0,.66-.03,.99-.1,.12-.03,.21,.02,.24,.05,.06,.05,.09,.11,.09,.19v6.98c0,1.24,1.01,2.25,2.25,2.25s2.25-1.01,2.25-2.25V7.13c0-1.24-.58-2.37-1.55-3.05Zm-3.2,5.69c-.13,0-.27,.02-.41,.05-.21,.05-.43,.07-.71,.06-.62-.03-1.13-.59-1.13-1.25v-1.98c0-.32,.11-.61,.32-.84,.4-.43,1.07-.97,2.02-1.08,.77-.1,1.58,.11,2.25,.58,.57,.39,.91,1.07,.91,1.81v9.12h-1.5v-4.73c0-.53-.24-1.03-.65-1.36-.32-.25-.7-.39-1.1-.39Zm2.51,9.47c-.41,0-.75-.34-.75-.75v-.75h1.5v.75c0,.41-.34,.75-.75,.75Z"/><path d="M6,6.25c-.41,0-.75,.34-.75,.75v1c0,.41,.34,.75,.75,.75s.75-.34,.75-.75v-1c0-.41-.34-.75-.75-.75Z"/><path d="M21.03,4.81c-.57-.62-1.54-1.38-2.94-1.55-1.14-.14-2.31,.16-3.29,.83-.97,.67-1.55,1.81-1.55,3.05v11.37c0,1.24,1.01,2.25,2.25,2.25s2.25-1.01,2.25-2.25v-6.98c0-.08,.03-.14,.09-.19,.03-.02,.12-.08,.24-.05,.32,.07,.65,.11,1,.1h.11c1.44-.07,2.56-1.28,2.56-2.75v-1.98c0-.69-.25-1.35-.72-1.86Zm-5.53,14.44c-.41,0-.75-.34-.75-.75v-.75h1.5v.75c0,.41-.34,.75-.75,.75Zm4.75-10.61c0,.66-.51,1.22-1.21,1.25-.21,0-.42-.02-.63-.07-.54-.12-1.09,0-1.51,.34-.42,.33-.65,.83-.65,1.36v4.73h-1.5V7.13c0-.74,.34-1.42,.91-1.81s1.22-.6,1.88-.6c.13,0,.25,0,.37,.02,.95,.11,1.62,.65,2.02,1.08,.21,.22,.32,.52,.32,.84v1.98Z"/><path d="M18,6.25c-.41,0-.75,.34-.75,.75v1c0,.41,.34,.75,.75,.75s.75-.34,.75-.75v-1c0-.41-.34-.75-.75-.75Z"/></g></g><g id="r"/><g id="s"/><g id="t"/><g id="u"/></svg>