<?xml version="1.0" encoding="UTF-8"?><svg xmlns="http://www.w3.org/2000/svg" viewBox="0 0 24 24"><g id="a"/><g id="b"/><g id="c"/><g id="d"/><g id="e"/><g id="f"/><g id="g"/><g id="h"/><g id="i"/><g id="j"/><g id="k"/><g id="l"/><g id="m"/><g id="n"/><g id="o"/><g id="p"/><g id="q"/><g id="r"/><g id="s"/><g id="t"/><g id="u"><path d="M20,2.25h-4c-.96,0-1.75,.79-1.75,1.75v3.25h-1.5v-.25c0-.41-.34-.75-.75-.75s-.75,.34-.75,.75v.25h-1.5v-3.25c0-.96-.79-1.75-1.75-1.75H4c-.96,0-1.75,.79-1.75,1.75v6.53c0,.42,.1,.85,.29,1.23l.51,1.02c.3,.6,.9,.97,1.57,.97h2.76c.67,0,1.27-.37,1.57-.97l.51-1.03c.19-.38,.29-.81,.29-1.23v-1.78h1.5v8.58c-1.71,.35-3,1.86-3,3.67,0,.41,.34,.75,.75,.75s.75-.34,.75-.75c0-.98,.63-1.8,1.5-2.11v2.11c0,.41,.34,.75,.75,.75s.75-.34,.75-.75v-2.11c.87,.31,1.5,1.14,1.5,2.11,0,.41,.34,.75,.75,.75s.75-.34,.75-.75c0-1.81-1.29-3.33-3-3.67V8.75h1.5v1.78c0,.42,.1,.85,.29,1.23l.51,1.02c.3,.6,.9,.97,1.57,.97h2.76c.67,0,1.27-.37,1.57-.97l.51-1.03c.19-.38,.29-.81,.29-1.23V4c0-.96-.79-1.75-1.75-1.75ZM4,3.75h4c.14,0,.25,.11,.25,.25v1.25H3.75v-1.25c0-.14,.11-.25,.25-.25Zm4.25,6.78c0,.19-.05,.39-.13,.56l-.51,1.02c-.04,.09-.13,.14-.22,.14h-2.76c-.1,0-.18-.05-.22-.14l-.51-1.02c-.09-.17-.13-.37-.13-.56v-3.78h4.5v3.78Zm7.75-6.78h4c.14,0,.25,.11,.25,.25v1.25h-4.5v-1.25c0-.14,.11-.25,.25-.25Zm4.12,7.34l-.51,1.02c-.04,.09-.13,.14-.22,.14h-2.76c-.1,0-.18-.05-.22-.14l-.51-1.02c-.09-.17-.13-.37-.13-.56v-3.78h4.5v3.78c0,.19-.05,.39-.13,.56Z"/></g></svg>