<?xml version="1.0" encoding="UTF-8"?><svg xmlns="http://www.w3.org/2000/svg" viewBox="0 0 24 24"><g id="a"/><g id="b"/><g id="c"/><g id="d"/><g id="e"/><g id="f"/><g id="g"/><g id="h"/><g id="i"/><g id="j"/><g id="k"/><g id="l"/><g id="m"/><g id="n"/><g id="o"/><g id="p"/><g id="q"/><g id="r"/><g id="s"/><g id="t"><g><path d="M20,20.25h-.25V10c0-4.27-3.48-7.75-7.75-7.75s-7.75,3.48-7.75,7.75v10.25h-.25c-.41,0-.75,.34-.75,.75s.34,.75,.75,.75H20c.41,0,.75-.34,.75-.75s-.34-.75-.75-.75ZM13.27,3.88s-.02,.08-.02,.12v2.25h-2.5v-2.25s-.02-.08-.02-.12c.41-.09,.84-.13,1.27-.13s.86,.05,1.27,.13Zm-1.27,6.87c1.79,0,3.25,1.46,3.25,3.25s-1.46,3.25-3.25,3.25-3.25-1.46-3.25-3.25,1.46-3.25,3.25-3.25Zm0-1.5c-.44,0-.85,.08-1.25,.19v-1.69h2.5v1.69c-.4-.11-.81-.19-1.25-.19Zm-6.25,11V10c0-2.46,1.43-4.58,3.5-5.6v1.85h-.25c-.41,0-.75,.34-.75,.75s.34,.75,.75,.75h.25v2.25s.02,.08,.02,.12c-1.22,.86-2.02,2.27-2.02,3.88,0,2.62,2.13,4.75,4.75,4.75s4.75-2.13,4.75-4.75c0-1.6-.8-3.02-2.02-3.88,0-.04,.02-.08,.02-.12v-2.25h.25c.41,0,.75-.34,.75-.75s-.34-.75-.75-.75h-.25v-1.85c2.07,1.02,3.5,3.15,3.5,5.6v10.25H5.75Z"/><path d="M12.02,14.75c.41,0,.75-.34,.75-.75s-.34-.75-.75-.75h-.01c-.41,0-.74,.34-.74,.75s.34,.75,.75,.75Z"/></g></g><g id="u"/></svg>