<?xml version="1.0" encoding="UTF-8"?><svg xmlns="http://www.w3.org/2000/svg" viewBox="0 0 24 24"><g id="a"/><g id="b"/><g id="c"/><g id="d"/><g id="e"/><g id="f"/><g id="g"/><g id="h"/><g id="i"/><g id="j"><path d="M20.07,3.93c-1.09-1.09-2.53-1.68-4.07-1.68s-2.98,.6-4.07,1.68l-2.83,2.83c-1.09,1.09-1.68,2.53-1.68,4.07,0,.55,.1,1.09,.25,1.61l-4.93,4.93c-.52,.52-.81,1.21-.81,1.94s.29,1.43,.81,1.94c.54,.54,1.24,.8,1.94,.8s1.41-.27,1.94-.8l4.94-4.94c.52,.15,1.06,.25,1.6,.25,1.47,0,2.94-.56,4.07-1.68l2.83-2.83c1.09-1.09,1.68-2.53,1.68-4.07s-.6-2.98-1.68-4.07Zm-1.06,1.06c.8,.8,1.24,1.87,1.24,3,0,.52-.1,1.02-.28,1.49l-5.46-5.46c.47-.18,.97-.28,1.49-.28,1.14,0,2.2,.44,3.01,1.25ZM5.57,20.2c-.49,.49-1.28,.49-1.77,0-.24-.24-.37-.55-.37-.88s.13-.65,.37-.88l4.52-4.52c.22,.35,.48,.69,.78,.99s.64,.56,.99,.78l-4.52,4.52Zm4.6-6.36c-.8-.8-1.24-1.87-1.24-3.01,0-.7,.19-1.36,.5-1.96l2.29,.46v2.21c0,.41,.34,.75,.75,.75h2.21l.46,2.29c-1.6,.84-3.62,.6-4.97-.74Zm6.29-.28l-.43-2.16c-.07-.35-.38-.6-.74-.6h-2.08v-2.08c0-.36-.25-.67-.6-.74l-2.16-.43,2.54-2.54c.06-.06,.13-.1,.19-.16l5.98,5.98c-.06,.06-.1,.13-.16,.19l-2.54,2.55Z"/></g><g id="k"/><g id="l"/><g id="m"/><g id="n"/><g id="o"/><g id="p"/><g id="q"/><g id="r"/><g id="s"/><g id="t"/><g id="u"/></svg>