<?xml version="1.0" encoding="UTF-8"?><svg xmlns="http://www.w3.org/2000/svg" viewBox="0 0 24 24"><g id="a"/><g id="b"/><g id="c"/><g id="d"/><g id="e"><g><path d="M20,5.25H4c-.96,0-1.75,.79-1.75,1.75v3c0,.96,.79,1.75,1.75,1.75H20c.96,0,1.75-.79,1.75-1.75v-3c0-.96-.79-1.75-1.75-1.75Zm.25,4.75c0,.14-.11,.25-.25,.25H4c-.14,0-.25-.11-.25-.25v-3c0-.14,.11-.25,.25-.25H20c.14,0,.25,.11,.25,.25v3Z"/><path d="M21,13.25H3c-.41,0-.75,.34-.75,.75s.34,.75,.75,.75H21c.41,0,.75-.34,.75-.75s-.34-.75-.75-.75Z"/><path d="M21,16.25H3c-.41,0-.75,.34-.75,.75s.34,.75,.75,.75H21c.41,0,.75-.34,.75-.75s-.34-.75-.75-.75Z"/></g></g><g id="f"/><g id="g"/><g id="h"/><g id="i"/><g id="j"/><g id="k"/><g id="l"/><g id="m"/><g id="n"/><g id="o"/><g id="p"/><g id="q"/><g id="r"/><g id="s"/><g id="t"/><g id="u"/></svg>