<?xml version="1.0" encoding="UTF-8"?><svg xmlns="http://www.w3.org/2000/svg" viewBox="0 0 24 24"><g id="a"/><g id="b"/><g id="c"/><g id="d"/><g id="e"/><g id="f"/><g id="g"/><g id="h"/><g id="i"/><g id="j"/><g id="k"/><g id="l"/><g id="m"/><g id="n"/><g id="o"/><g id="p"><g><path d="M21.51,9.83c-.09-.4-.49-.66-.9-.57-.4,.09-.66,.49-.57,.9,.14,.6,.2,1.21,.2,1.83,0,4.55-3.7,8.25-8.25,8.25S3.75,16.55,3.75,12,7.45,3.75,12,3.75c.41,0,.75-.34,.75-.75s-.34-.75-.75-.75C6.62,2.25,2.25,6.62,2.25,12s4.37,9.75,9.75,9.75,9.75-4.37,9.75-9.75c0-.73-.08-1.46-.24-2.17Z"/><path d="M12,8.25c-2.07,0-3.75,1.68-3.75,3.75s1.68,3.75,3.75,3.75,3.75-1.68,3.75-3.75V4.65c1.02,.52,1.94,1.27,2.67,2.17,.26,.32,.73,.37,1.05,.11,.32-.26,.37-.73,.11-1.05-.95-1.18-2.18-2.13-3.55-2.75-.4-.18-.85-.15-1.21,.09-.36,.23-.57,.62-.57,1.05v4.77c-.63-.48-1.4-.77-2.25-.77Zm0,6c-1.24,0-2.25-1.01-2.25-2.25s1.01-2.25,2.25-2.25,2.25,1.01,2.25,2.25-1.01,2.25-2.25,2.25Z"/></g></g><g id="q"/><g id="r"/><g id="s"/><g id="t"/><g id="u"/></svg>