<?xml version="1.0" encoding="UTF-8"?><svg xmlns="http://www.w3.org/2000/svg" viewBox="0 0 24 24"><g id="a"/><g id="b"/><g id="c"/><g id="d"/><g id="e"/><g id="f"/><g id="g"><g><path d="M15.07,9.07l-6.01-3.41c-.99-.56-2.17-.56-3.16,.02-1.03,.6-1.65,1.69-1.65,2.91v6.81c0,1.22,.62,2.31,1.65,2.91,.5,.29,1.05,.44,1.6,.44s1.07-.14,1.57-.42l6.01-3.41c1.05-.6,1.68-1.69,1.68-2.93s-.63-2.33-1.68-2.93Zm-.74,4.55l-6.01,3.41c-.53,.3-1.14,.3-1.67,0-.56-.33-.9-.93-.9-1.61v-6.81c0-.68,.34-1.28,.9-1.61,.27-.16,.55-.23,.84-.23s.56,.07,.83,.22l6.01,3.41c.58,.33,.92,.93,.92,1.62s-.34,1.29-.92,1.62Z"/><path d="M19,5.25c-.41,0-.75,.34-.75,.75v12c0,.41,.34,.75,.75,.75s.75-.34,.75-.75V6c0-.41-.34-.75-.75-.75Z"/></g></g><g id="h"/><g id="i"/><g id="j"/><g id="k"/><g id="l"/><g id="m"/><g id="n"/><g id="o"/><g id="p"/><g id="q"/><g id="r"/><g id="s"/><g id="t"/><g id="u"/></svg>