<?xml version="1.0" encoding="UTF-8"?><svg xmlns="http://www.w3.org/2000/svg" viewBox="0 0 24 24"><g id="a"/><g id="b"/><g id="c"><path d="M21,6.25h-.25v-2.25c0-.96-.79-1.75-1.75-1.75H5c-.96,0-1.75,.79-1.75,1.75v2.25h-.25c-.41,0-.75,.34-.75,.75v3c0,.41,.34,.75,.75,.75h.25v9.25c0,.96,.79,1.75,1.75,1.75h2c.96,0,1.75-.79,1.75-1.75v-.28c.08,.01,.16,.03,.25,.03h2c.96,0,1.75-.79,1.75-1.75v-.28c.08,.01,.16,.03,.25,.03h2c.96,0,1.75-.79,1.75-1.75v-.28c.08,.01,.16,.03,.25,.03h2c.96,0,1.75-.79,1.75-1.75v-3.25h.25c.41,0,.75-.34,.75-.75v-3c0-.41-.34-.75-.75-.75ZM3.75,9.25v-1.5H20.25v1.5H3.75Zm15.5-5.25v2.25h-2.5V3.75h2.25c.14,0,.25,.11,.25,.25Zm-4,2.25h-2.5V3.75h2.5v2.5Zm-4,0h-2.5V3.75h2.5v2.5Zm-6.5-2.25c0-.14,.11-.25,.25-.25h2.25v2.5h-2.5v-2.25Zm2.5,16c0,.14-.11,.25-.25,.25h-2c-.14,0-.25-.11-.25-.25V10.75h2.5v9.25Zm4-2c0,.14-.11,.25-.25,.25h-2c-.14,0-.25-.11-.25-.25v-7.25h2.5v7.25Zm4-2c0,.14-.11,.25-.25,.25h-2c-.14,0-.25-.11-.25-.25v-5.25h2.5v5.25Zm4-2c0,.14-.11,.25-.25,.25h-2c-.14,0-.25-.11-.25-.25v-3.25h2.5v3.25Z"/></g><g id="d"/><g id="e"/><g id="f"/><g id="g"/><g id="h"/><g id="i"/><g id="j"/><g id="k"/><g id="l"/><g id="m"/><g id="n"/><g id="o"/><g id="p"/><g id="q"/><g id="r"/><g id="s"/><g id="t"/><g id="u"/></svg>