<?xml version="1.0" encoding="UTF-8"?><svg xmlns="http://www.w3.org/2000/svg" viewBox="0 0 24 24"><g id="a"/><g id="b"/><g id="c"/><g id="d"/><g id="e"/><g id="f"/><g id="g"/><g id="h"/><g id="i"/><g id="j"/><g id="k"/><g id="l"/><g id="m"/><g id="n"/><g id="o"/><g id="p"/><g id="q"/><g id="r"><g><path d="M3.33,15.52c.29,.16,.6,.23,.91,.23,.36,0,.72-.11,1.04-.32l2.53-1.66c.59-.38,.94-1.05,.94-1.78s-.35-1.39-.94-1.78l-2.53-1.66c-.6-.39-1.33-.42-1.95-.08-.67,.36-1.08,1.07-1.08,1.86v3.31c0,.79,.41,1.5,1.08,1.86Zm.42-5.17c0-.24,.11-.44,.29-.54,.05-.03,.12-.05,.19-.05,.07,0,.14,.02,.22,.07l2.53,1.66c.16,.11,.26,.3,.26,.52s-.1,.42-.26,.52l-2.53,1.66c-.17,.11-.32,.07-.42,.02-.18-.1-.29-.3-.29-.54v-3.31Z"/><path d="M3,6.75H21c.41,0,.75-.34,.75-.75s-.34-.75-.75-.75H3c-.41,0-.75,.34-.75,.75s.34,.75,.75,.75Z"/><path d="M21,17.25H3c-.41,0-.75,.34-.75,.75s.34,.75,.75,.75H21c.41,0,.75-.34,.75-.75s-.34-.75-.75-.75Z"/><path d="M21,13.25H11c-.41,0-.75,.34-.75,.75s.34,.75,.75,.75h10c.41,0,.75-.34,.75-.75s-.34-.75-.75-.75Z"/><path d="M21,9.25H11c-.41,0-.75,.34-.75,.75s.34,.75,.75,.75h10c.41,0,.75-.34,.75-.75s-.34-.75-.75-.75Z"/></g></g><g id="s"/><g id="t"/><g id="u"/></svg>