<?xml version="1.0" encoding="UTF-8"?><svg xmlns="http://www.w3.org/2000/svg" viewBox="0 0 24 24"><g id="a"/><g id="b"/><g id="c"/><g id="d"/><g id="e"/><g id="f"><g><path d="M3.75,12c0-2.89,2.35-5.25,5.25-5.25h4.19l-.72,.72c-.29,.29-.29,.77,0,1.06,.15,.15,.34,.22,.53,.22s.38-.07,.53-.22l2-2c.07-.07,.12-.15,.16-.24,.08-.18,.08-.39,0-.57-.04-.09-.09-.17-.16-.24l-2-2c-.29-.29-.77-.29-1.06,0s-.29,.77,0,1.06l.72,.72h-4.19c-3.72,0-6.75,3.03-6.75,6.75,0,2.27,1.13,4.37,3.02,5.63,.13,.08,.27,.13,.41,.13,.24,0,.48-.12,.63-.33,.23-.34,.14-.81-.21-1.04-1.47-.98-2.35-2.61-2.35-4.38Z"/><path d="M18.73,6.38c-.34-.23-.81-.14-1.04,.21-.23,.34-.14,.81,.21,1.04,1.47,.98,2.35,2.61,2.35,4.38,0,2.89-2.35,5.25-5.25,5.25h-4.19l.72-.72c.29-.29,.29-.77,0-1.06s-.77-.29-1.06,0l-2,2c-.07,.07-.12,.15-.16,.24-.08,.18-.08,.39,0,.57,.04,.09,.09,.17,.16,.24l2,2c.15,.15,.34,.22,.53,.22s.38-.07,.53-.22c.29-.29,.29-.77,0-1.06l-.72-.72h4.19c3.72,0,6.75-3.03,6.75-6.75,0-2.27-1.13-4.37-3.02-5.63Z"/></g></g><g id="g"/><g id="h"/><g id="i"/><g id="j"/><g id="k"/><g id="l"/><g id="m"/><g id="n"/><g id="o"/><g id="p"/><g id="q"/><g id="r"/><g id="s"/><g id="t"/><g id="u"/></svg>