<?xml version="1.0" encoding="UTF-8"?><svg xmlns="http://www.w3.org/2000/svg" viewBox="0 0 24 24"><g id="a"/><g id="b"><path d="M20.79,3.06c-1.07-1.07-2.82-1.07-3.89,0l-3.84,3.84c-.62-.22-1.33-.09-1.82,.41l-5.66,5.66c-1.28,1.28-1.44,3.28-.47,4.73l-2.67,2.8c-.29,.3-.27,.77,.03,1.06,.15,.14,.33,.21,.52,.21,.2,0,.4-.08,.54-.23l2.65-2.77c.62,.41,1.34,.61,2.05,.61,.96,0,1.92-.37,2.65-1.1l5.66-5.66c.49-.49,.62-1.2,.41-1.82l3.84-3.84c1.07-1.07,1.07-2.82,0-3.89Zm-4.77,3l1.77,1.77-1.77,1.77-.88-.88-.88-.88,1.77-1.77Zm-.53,5.48l-5.66,5.66c-.88,.88-2.31,.88-3.18,0-.88-.88-.88-2.3,0-3.18l5.66-5.66s.11-.07,.18-.07,.13,.02,.18,.07l2.83,2.83c.1,.1,.1,.26,0,.35Zm4.24-5.66l-.88,.88-1.77-1.77,.88-.88c.49-.49,1.28-.49,1.77,0s.49,1.28,0,1.77Z"/></g><g id="c"/><g id="d"/><g id="e"/><g id="f"/><g id="g"/><g id="h"/><g id="i"/><g id="j"/><g id="k"/><g id="l"/><g id="m"/><g id="n"/><g id="o"/><g id="p"/><g id="q"/><g id="r"/><g id="s"/><g id="t"/><g id="u"/></svg>