<?xml version="1.0" encoding="UTF-8"?><svg xmlns="http://www.w3.org/2000/svg" viewBox="0 0 24 24"><g id="a"/><g id="b"/><g id="c"/><g id="d"/><g id="e"/><g id="f"/><g id="g"/><g id="h"/><g id="i"/><g id="j"/><g id="k"/><g id="l"/><g id="m"/><g id="n"><g><path d="M12,8.25c-1.52,0-2.75,1.23-2.75,2.75s1.23,2.75,2.75,2.75,2.75-1.23,2.75-2.75-1.23-2.75-2.75-2.75Zm0,4c-.69,0-1.25-.56-1.25-1.25s.56-1.25,1.25-1.25,1.25,.56,1.25,1.25-.56,1.25-1.25,1.25Z"/><path d="M12,5.25c-3.17,0-5.75,2.58-5.75,5.75,0,1.26,.4,2.45,1.15,3.45,.15,.2,.37,.3,.6,.3,.16,0,.31-.05,.45-.15,.33-.25,.4-.72,.15-1.05-.56-.74-.85-1.62-.85-2.55,0-2.34,1.91-4.25,4.25-4.25s4.25,1.91,4.25,4.25c0,.93-.29,1.81-.85,2.55-.25,.33-.18,.8,.15,1.05,.33,.25,.8,.18,1.05-.15,.75-1,1.15-2.19,1.15-3.45,0-3.17-2.58-5.75-5.75-5.75Z"/><path d="M12,2.25C7.18,2.25,3.25,6.18,3.25,11c0,2.13,.78,4.19,2.19,5.79,.27,.31,.75,.34,1.06,.07,.31-.27,.34-.75,.07-1.06-1.17-1.32-1.81-3.03-1.81-4.79,0-4,3.25-7.25,7.25-7.25s7.25,3.25,7.25,7.25c0,1.77-.64,3.47-1.81,4.79-.27,.31-.24,.78,.07,1.06,.14,.13,.32,.19,.5,.19,.21,0,.41-.09,.56-.25,1.41-1.6,2.19-3.65,2.19-5.79,0-4.82-3.92-8.75-8.75-8.75Z"/><path d="M12.78,15.25h-1.56c-.53,0-1.02,.23-1.35,.64s-.47,.94-.36,1.45l.6,3c.16,.81,.88,1.41,1.72,1.41h.36c.83,0,1.55-.59,1.72-1.41l.6-3c.1-.52-.03-1.05-.36-1.45s-.83-.64-1.35-.64Zm-.35,4.8c-.02,.12-.13,.2-.25,.2h-.36c-.12,0-.22-.08-.25-.2l-.6-3c-.02-.1,.02-.17,.05-.21s.09-.09,.19-.09h1.56c.1,0,.17,.06,.19,.09,.03,.03,.07,.11,.05,.21l-.6,3Z"/></g></g><g id="o"/><g id="p"/><g id="q"/><g id="r"/><g id="s"/><g id="t"/><g id="u"/></svg>