<?xml version="1.0" encoding="UTF-8"?><svg xmlns="http://www.w3.org/2000/svg" viewBox="0 0 24 24"><g id="a"/><g id="b"/><g id="c"/><g id="d"/><g id="e"/><g id="f"/><g id="g"/><g id="h"/><g id="i"/><g id="j"/><g id="k"/><g id="l"/><g id="m"/><g id="n"/><g id="o"/><g id="p"/><g id="q"/><g id="r"/><g id="s"><path d="M21.29,5.31c-.28-.12-.6-.05-.82,.16l-2.41,2.41c-.23,.23-.55,.37-.88,.37h-2.42v-.25c0-.41-.34-.75-.75-.75s-.75,.34-.75,.75v.25h-.25c-.06,0-.11,.02-.17,.03-.11,0-.22-.03-.33-.03h-.75v-.25c0-.41-.34-.75-.75-.75s-.75,.34-.75,.75v.25h-1.5v-.25c0-.41-.34-.75-.75-.75s-.75,.34-.75,.75v.25H3.75v-.25c0-.41-.34-.75-.75-.75s-.75,.34-.75,.75v5c0,.41,.34,.75,.75,.75s.75-.34,.75-.75v-.25h1.5v1.25c0,2.62,2.13,4.75,4.75,4.75h2.5c2.89,0,5.25-2.35,5.25-5.25,0-.22-.04-.42-.06-.63,.14,.06,.26,.14,.37,.25l2.41,2.41c.14,.14,.33,.22,.53,.22,.1,0,.19-.02,.29-.06,.28-.12,.46-.39,.46-.69V6c0-.3-.18-.58-.46-.69Zm-8.79,11.94h-2.5c-1.79,0-3.25-1.46-3.25-3.25v-1.25h1.5v.75c0,1.24,1.01,2.25,2.25,2.25h2c1.24,0,2.25-1.01,2.25-2.25s-1.01-2.25-2.25-2.25H3.75v-1.5H12.5c2.07,0,3.75,1.68,3.75,3.75s-1.68,3.75-3.75,3.75Zm-2.75-3.75v-.75h2.75c.41,0,.75,.34,.75,.75s-.34,.75-.75,.75h-2c-.41,0-.75-.34-.75-.75Zm10.5-.31l-1.13-1.13c-.51-.51-1.18-.79-1.89-.8-.27-.56-.62-1.07-1.06-1.51h1.01c.73,0,1.42-.29,1.94-.81l1.13-1.13v5.38Z"/></g><g id="t"/><g id="u"/></svg>