<?xml version="1.0" encoding="UTF-8"?><svg xmlns="http://www.w3.org/2000/svg" viewBox="0 0 24 24"><g id="a"/><g id="b"/><g id="c"/><g id="d"/><g id="e"/><g id="f"/><g id="g"/><g id="h"/><g id="i"/><g id="j"/><g id="k"><g><path d="M20,2.25H4c-.96,0-1.75,.79-1.75,1.75V20c0,.96,.79,1.75,1.75,1.75H20c.96,0,1.75-.79,1.75-1.75V4c0-.96-.79-1.75-1.75-1.75ZM3.75,14.25v-4.5h2.5v2.25c0,.41,.34,.75,.75,.75s.75-.34,.75-.75v-2.25h3.5v2.25c0,.41,.34,.75,.75,.75s.75-.34,.75-.75v-2.25h3.5v2.25c0,.41,.34,.75,.75,.75s.75-.34,.75-.75v-2.25h2.5v4.5H3.75ZM14.25,3.75v1.25c0,.14-.11,.25-.25,.25h-4c-.14,0-.25-.11-.25-.25v-1.25h4.5Zm-10.5,.25c0-.14,.11-.25,.25-.25h4.25v1.25c0,.96,.79,1.75,1.75,1.75h4c.96,0,1.75-.79,1.75-1.75v-1.25h4.25c.14,0,.25,.11,.25,.25v4.25H3.75V4ZM20.25,20c0,.14-.11,.25-.25,.25H4c-.14,0-.25-.11-.25-.25v-4.25h2.5v2.25c0,.41,.34,.75,.75,.75s.75-.34,.75-.75v-2.25h3.5v2.25c0,.41,.34,.75,.75,.75s.75-.34,.75-.75v-2.25h3.5v2.25c0,.41,.34,.75,.75,.75s.75-.34,.75-.75v-2.25h2.5v4.25Z"/><path d="M18.02,6.75c.41,0,.75-.34,.75-.75s-.34-.75-.75-.75h-.01c-.41,0-.74,.34-.74,.75s.34,.75,.75,.75Z"/><path d="M6.02,5.25h-.01c-.41,0-.74,.34-.74,.75s.34,.75,.75,.75,.75-.34,.75-.75-.34-.75-.75-.75Z"/></g></g><g id="l"/><g id="m"/><g id="n"/><g id="o"/><g id="p"/><g id="q"/><g id="r"/><g id="s"/><g id="t"/><g id="u"/></svg>