<?xml version="1.0" encoding="UTF-8"?><svg xmlns="http://www.w3.org/2000/svg" viewBox="0 0 24 24"><g id="a"/><g id="b"/><g id="c"/><g id="d"/><g id="e"/><g id="f"/><g id="g"/><g id="h"><g><path d="M18,3.25H6c-2.07,0-3.75,1.68-3.75,3.75v11c0,2.07,1.68,3.75,3.75,3.75h12c2.07,0,3.75-1.68,3.75-3.75V7c0-2.07-1.68-3.75-3.75-3.75Zm2.25,14.75c0,1.24-1.01,2.25-2.25,2.25H6c-1.24,0-2.25-1.01-2.25-2.25V7c0-1.24,1.01-2.25,2.25-2.25h12c1.24,0,2.25,1.01,2.25,2.25v11Z"/><path d="M12,11.25c-2.07,0-3.75,1.68-3.75,3.75s1.68,3.75,3.75,3.75,3.75-1.68,3.75-3.75-1.68-3.75-3.75-3.75Zm0,6c-1.24,0-2.25-1.01-2.25-2.25,0-.98,.63-1.8,1.5-2.11v1.11c0,.41,.34,.75,.75,.75s.75-.34,.75-.75v-1.11c.87,.31,1.5,1.14,1.5,2.11,0,1.24-1.01,2.25-2.25,2.25Z"/><path d="M17.53,9.53c.29-.29,.29-.77,0-1.06s-.77-.29-1.06,0l-.85,.85c-.85-.54-1.82-.9-2.87-1.02v-1.29c0-.41-.34-.75-.75-.75s-.75,.34-.75,.75v1.29c-1.05,.12-2.03,.48-2.87,1.02l-.85-.85c-.29-.29-.77-.29-1.06,0s-.29,.77,0,1.06l.73,.73c-1.2,1.22-1.95,2.89-1.95,4.74,0,.41,.34,.75,.75,.75s.75-.34,.75-.75c0-2.89,2.36-5.25,5.25-5.25s5.25,2.36,5.25,5.25c0,.41,.34,.75,.75,.75s.75-.34,.75-.75c0-1.85-.75-3.52-1.95-4.74l.73-.73Z"/></g></g><g id="i"/><g id="j"/><g id="k"/><g id="l"/><g id="m"/><g id="n"/><g id="o"/><g id="p"/><g id="q"/><g id="r"/><g id="s"/><g id="t"/><g id="u"/></svg>