<svg xmlns="http://www.w3.org/2000/svg" viewBox="0 0 32 32"><g id="bag"><path d="M25.91,11.09A3.52,3.52,0,0,0,23.38,10H22V8A6,6,0,0,0,10,8v2H8.62a3.52,3.52,0,0,0-2.53,1.09,3.47,3.47,0,0,0-.94,2.58l.72,13A3.48,3.48,0,0,0,9.34,30H22.66a3.48,3.48,0,0,0,3.47-3.29l.72-13A3.47,3.47,0,0,0,25.91,11.09ZM12,8a4,4,0,0,1,8,0v2H12ZM7.55,12.46A1.44,1.44,0,0,1,8.62,12H10v4a1,1,0,0,0,2,0V12h8v4a1,1,0,0,0,2,0V12h1.38a1.49,1.49,0,0,1,1.48,1.56L24.28,24H7.72L7.14,13.56A1.46,1.46,0,0,1,7.55,12.46ZM22.66,28H9.34a1.47,1.47,0,0,1-1.47-1.4l0-.6H24.17l0,.6A1.47,1.47,0,0,1,22.66,28Z"/></g></svg>