<svg xmlns="http://www.w3.org/2000/svg" viewBox="0 0 32 32"><g id="basket"><path d="M30,11a3,3,0,0,0-3-3H24.62L21.89,2.55a1,1,0,1,0-1.78.9L22.38,8H9.62l2.27-4.55a1,1,0,0,0-1.78-.9L7.38,8H5a3,3,0,0,0-3,3,3,3,0,0,0,1,2.24L5,26.14A4.94,4.94,0,0,0,10,30H22A4.94,4.94,0,0,0,27,26.14L29,13.24A3,3,0,0,0,30,11ZM5,10H27a1,1,0,0,1,0,2H5a1,1,0,0,1,0-2ZM25.06,25.84A3,3,0,0,1,22,28H10a3,3,0,0,1-3.1-2.16L5.16,14H26.84Z"/><path d="M16,26a1,1,0,0,0,1-1V17a1,1,0,0,0-2,0v8A1,1,0,0,0,16,26Z"/><path d="M21,25a1,1,0,0,0,1-1V18a1,1,0,0,0-2,0v6A1,1,0,0,0,21,25Z"/><path d="M11,25a1,1,0,0,0,1-1V18a1,1,0,0,0-2,0v6A1,1,0,0,0,11,25Z"/></g></svg>