<svg xmlns="http://www.w3.org/2000/svg" viewBox="0 0 32 32"><g id="bill"><path d="M22.92,2H9.08A3.08,3.08,0,0,0,6,5.08V29a1,1,0,0,0,1.51.86l4.43-2.66,3.46,2.6a1,1,0,0,0,1.2,0l3.46-2.6,4.43,2.66A1,1,0,0,0,26,29V5.08A3.08,3.08,0,0,0,22.92,2ZM24,27.23l-3.49-2.09a1,1,0,0,0-1.11.06L16,27.75,12.6,25.2A1,1,0,0,0,12,25a1,1,0,0,0-.51.14L8,27.23V5.08A1.08,1.08,0,0,1,9.08,4H22.92A1.08,1.08,0,0,1,24,5.08Z"/><path d="M11,11h5a1,1,0,0,0,0-2H11a1,1,0,0,0,0,2Z"/><path d="M21,14H11a1,1,0,0,0,0,2H21a1,1,0,0,0,0-2Z"/><path d="M21,19H11a1,1,0,0,0,0,2H21a1,1,0,0,0,0-2Z"/></g></svg>