<svg xmlns="http://www.w3.org/2000/svg" viewBox="0 0 32 32"><g id="call_center" data-name="call center"><path d="M16,2a14,14,0,1,0,5.76,26.76.92.92,0,0,0,.23-.09l.39-.22.5-.25,0,0a3,3,0,0,0,1.46-2,3,3,0,0,0-.56-2.45l-.47-.62a5.88,5.88,0,0,0,.6-.52,1.91,1.91,0,0,0,.58-1.37A2,2,0,0,0,24,19.84L21.8,17.63a2,2,0,0,0-1.37-.58h0a2,2,0,0,0-1.37.56,2.88,2.88,0,0,1-1.5.79A1.56,1.56,0,0,1,16.12,18l-2.06-2.09a1.57,1.57,0,0,1-.42-1.43A2.88,2.88,0,0,1,14.45,13a2,2,0,0,0,0-2.76L12.3,8A2,2,0,0,0,9.54,8,6.71,6.71,0,0,0,8,10.24H8a7.43,7.43,0,0,0,1.59,8l4.05,4.12a7.41,7.41,0,0,0,7.93,1.72l.65.85a1,1,0,0,1-.31,1.48l-.16.09a12,12,0,1,1,5.31-5.9,1,1,0,0,0,1.85.76A14,14,0,0,0,16,2Zm-.92,19L11,16.86A5.44,5.44,0,0,1,9.87,11h0a6.08,6.08,0,0,1,1-1.61L13,11.52A5,5,0,0,0,11.68,14a3.55,3.55,0,0,0,1,3.24l2.07,2.1a3.59,3.59,0,0,0,3.22,1A4.54,4.54,0,0,0,20.38,19l2.16,2.13a4.68,4.68,0,0,1-1.61,1A5.43,5.43,0,0,1,15.08,21Z"/></g></svg>