<svg xmlns="http://www.w3.org/2000/svg" viewBox="0 0 32 32"><g id="chat"><path d="M26.8,8H24V7.2A3.2,3.2,0,0,0,20.8,4H5.2A3.2,3.2,0,0,0,2,7.2v9.6A3.2,3.2,0,0,0,5.2,20H9.38l2.73,5.45a1,1,0,0,0,1.78,0L14.62,24h.81l2.71,4.51a1,1,0,0,0,1.72,0L22.57,24H26.8A3.2,3.2,0,0,0,30,20.8V11.2A3.2,3.2,0,0,0,26.8,8ZM10.89,18.55A1,1,0,0,0,10,18H5.2A1.2,1.2,0,0,1,4,16.8V7.2A1.2,1.2,0,0,1,5.2,6H20.8A1.2,1.2,0,0,1,22,7.2v9.6A1.2,1.2,0,0,1,20.8,18H16a1,1,0,0,0-.89.55L13,22.76ZM28,20.8A1.2,1.2,0,0,1,26.8,22H22a1,1,0,0,0-.86.49L19,26.06l-2.14-3.57A1,1,0,0,0,16,22h-.38l1-2H20.8A3.2,3.2,0,0,0,24,16.8V10h2.8A1.2,1.2,0,0,1,28,11.2Z"/><path d="M16.62,9.22a1,1,0,0,0-1.4.16l-3.3,4.12-1.21-1.21a1,1,0,0,0-1.42,1.42l2,2A1,1,0,0,0,12,16h.06a1,1,0,0,0,.72-.38l4-5A1,1,0,0,0,16.62,9.22Z"/></g></svg>