<svg xmlns="http://www.w3.org/2000/svg" viewBox="0 0 32 32"><g id="delivery"><path d="M22.93,10H20V8.72A1.72,1.72,0,0,0,18.28,7H6.72A1.72,1.72,0,0,0,5,8.72V11H4a1,1,0,0,0,0,2H6a1,1,0,0,0,1-1V9H18V21H14.82a3,3,0,0,0-5.64,0H7V18a1,1,0,0,0-1-1H4a1,1,0,0,0,0,2H5v2.28A1.72,1.72,0,0,0,6.72,23H9.18a3,3,0,0,0,5.64,0h6.36a3,3,0,0,0,5.64,0H29a1,1,0,0,0,1-1V17.07A7.08,7.08,0,0,0,22.93,10ZM12,23a1,1,0,1,1,1-1A1,1,0,0,1,12,23Zm12,0a1,1,0,1,1,1-1A1,1,0,0,1,24,23Zm4-2H26.82a3,3,0,0,0-5.64,0H20V12h2.93A5.08,5.08,0,0,1,28,17.07Z"/><path d="M11.59,16l-.3.29a1,1,0,0,0,0,1.42,1,1,0,0,0,1.42,0l2-2a1,1,0,0,0,0-1.42l-2-2a1,1,0,0,0-1.42,1.42l.3.29H3a1,1,0,0,0,0,2Z"/></g></svg>