<svg xmlns="http://www.w3.org/2000/svg" viewBox="0 0 32 32"><g id="discount"><path d="M27.7,12.79l-.59-.21a1.4,1.4,0,0,1-.84-.81,1.38,1.38,0,0,1,0-1.16l.27-.56A3.44,3.44,0,0,0,22,5.46l-.56.26a1.41,1.41,0,0,1-1.17,0,1.43,1.43,0,0,1-.8-.85l-.21-.58A3.39,3.39,0,0,0,16,2h0A3.39,3.39,0,0,0,12.79,4.3l-.21.59a1.45,1.45,0,0,1-2,.81l-.55-.27A3.44,3.44,0,0,0,5.46,10l.26.56a1.41,1.41,0,0,1,0,1.17,1.43,1.43,0,0,1-.85.8l-.58.21a3.44,3.44,0,0,0,0,6.47l.59.21a1.4,1.4,0,0,1,.84.81,1.38,1.38,0,0,1,0,1.16L5.43,22A3.44,3.44,0,0,0,10,26.54l.56-.26a1.41,1.41,0,0,1,1.17,0,1.43,1.43,0,0,1,.8.85l.21.58A3.39,3.39,0,0,0,16,30h0a3.39,3.39,0,0,0,3.23-2.27l.21-.59a1.45,1.45,0,0,1,2-.81l.55.27A3.44,3.44,0,0,0,26.54,22l-.26-.56a1.41,1.41,0,0,1,0-1.17,1.43,1.43,0,0,1,.85-.8l.58-.21a3.44,3.44,0,0,0,0-6.47ZM27,17.38l-.59.2a3.52,3.52,0,0,0-2,1.92,3.43,3.43,0,0,0,.07,2.79l.26.56a1.39,1.39,0,0,1-.28,1.63,1.42,1.42,0,0,1-1.64.28l-.55-.26a3.44,3.44,0,0,0-4.72,1.94l-.21.58A1.4,1.4,0,0,1,16,28h0A1.41,1.41,0,0,1,14.62,27l-.2-.59a3.42,3.42,0,0,0-3.24-2.29,3.4,3.4,0,0,0-1.47.33l-.56.26a1.43,1.43,0,0,1-1.91-1.91l.27-.56a3.47,3.47,0,0,0,.07-2.79,3.43,3.43,0,0,0-2-1.93L5,17.33a1.44,1.44,0,0,1,0-2.71l.59-.2a3.52,3.52,0,0,0,2-1.92,3.43,3.43,0,0,0-.07-2.79l-.26-.56A1.44,1.44,0,0,1,9.19,7.24l.55.26a3.44,3.44,0,0,0,4.72-1.94L14.67,5A1.4,1.4,0,0,1,16,4h0a1.41,1.41,0,0,1,1.36,1l.2.59a3.52,3.52,0,0,0,1.92,2,3.47,3.47,0,0,0,2.79-.07l.56-.26a1.41,1.41,0,0,1,1.63.28,1.39,1.39,0,0,1,.28,1.63l-.27.56a3.47,3.47,0,0,0-.07,2.79,3.43,3.43,0,0,0,2,1.93l.58.21a1.44,1.44,0,0,1,0,2.71Z"/><path d="M14,12.5A2.5,2.5,0,1,0,11.5,15,2.5,2.5,0,0,0,14,12.5Zm-3,0a.5.5,0,1,1,.5.5A.5.5,0,0,1,11,12.5Z"/><path d="M20.5,18A2.5,2.5,0,1,0,23,20.5,2.5,2.5,0,0,0,20.5,18Zm0,3a.5.5,0,1,1,.5-.5A.5.5,0,0,1,20.5,21Z"/><path d="M20.71,11.29a1,1,0,0,0-1.42,0l-9,9a1,1,0,0,0,0,1.42,1,1,0,0,0,1.42,0l9-9A1,1,0,0,0,20.71,11.29Z"/></g></svg>