<svg xmlns="http://www.w3.org/2000/svg" viewBox="0 0 32 32"><g id="headphones"><path d="M26,15.55l-1-.2A1,1,0,0,0,25,15V14A9,9,0,0,0,7,14v1a1,1,0,0,0,.07.35l-1,.2a3.74,3.74,0,0,0-3,4.2l.41,2.79a3.73,3.73,0,0,0,3,3.13L7.88,26a2.5,2.5,0,0,0,.47.05A2.45,2.45,0,0,0,10,25.35a2.39,2.39,0,0,0,.77-2L10,15.89A1,1,0,0,0,9,15V14a7,7,0,0,1,14,0v1a1,1,0,0,0-.95.87l-.66,5.85-.14,0a3.23,3.23,0,0,1-2.72-.13l.18-.18a1,1,0,0,0,0-1.41,1,1,0,0,0-1.42,0l-2,2a1,1,0,0,0,0,1.41,1,1,0,0,0,1.42,0l.36-.36A5.32,5.32,0,0,0,20,24a5.39,5.39,0,0,0,1.19-.15,2.34,2.34,0,0,0,.76,1.5,2.45,2.45,0,0,0,1.67.65,2.5,2.5,0,0,0,.47-.05l1.42-.28h0a3.73,3.73,0,0,0,3-3.13L29,19.75A3.74,3.74,0,0,0,26,15.55ZM8.67,23.88a.46.46,0,0,1-.41.11l-1.42-.28a1.76,1.76,0,0,1-1.42-1.46L5,19.46a1.75,1.75,0,0,1,1.42-1.95l1.64-.32.72,6.35A.39.39,0,0,1,8.67,23.88ZM27,19.46l-.4,2.79a1.76,1.76,0,0,1-1.42,1.46L23.74,24a.46.46,0,0,1-.41-.11.39.39,0,0,1-.13-.34l.72-6.35,1.64.32A1.75,1.75,0,0,1,27,19.46Z"/></g></svg>