<svg xmlns="http://www.w3.org/2000/svg" viewBox="0 0 32 32"><g id="home"><path d="M27.2,11.5,17.66,2.65a2.43,2.43,0,0,0-3.32,0L4.79,11.51A2.49,2.49,0,0,0,4,13.33V26.15A3.83,3.83,0,0,0,7.79,30H24.21A3.83,3.83,0,0,0,28,26.15V13.33A2.5,2.5,0,0,0,27.2,11.5ZM12,28V20.35A1.36,1.36,0,0,1,13.35,19h5.3A1.36,1.36,0,0,1,20,20.35V28Zm14-1.85A1.83,1.83,0,0,1,24.21,28H22V20.35A3.35,3.35,0,0,0,18.65,17h-5.3A3.35,3.35,0,0,0,10,20.35V28H7.79A1.83,1.83,0,0,1,6,26.15V13.33A.5.5,0,0,1,6.16,13L15.7,4.12a.44.44,0,0,1,.6,0L25.84,13a.5.5,0,0,1,.16.36Z"/></g></svg>