<svg xmlns="http://www.w3.org/2000/svg" viewBox="0 0 32 32"><g id="location"><path d="M27.23,27.39l-3.15-5.51A1.75,1.75,0,0,0,22.57,21H20.5a28.19,28.19,0,0,0,2.42-4.62,28.45,28.45,0,0,0,1.27-3.78,8.46,8.46,0,1,0-16.38,0,28.45,28.45,0,0,0,1.27,3.78A29,29,0,0,0,11.5,21H9.43a1.75,1.75,0,0,0-1.51.88L4.77,27.39a1.74,1.74,0,0,0,0,1.74A1.72,1.72,0,0,0,6.28,30H25.72a1.72,1.72,0,0,0,1.51-.87A1.74,1.74,0,0,0,27.23,27.39ZM9.75,12.1A6.49,6.49,0,0,1,10.9,6.5a6.45,6.45,0,0,1,10.2,0,6.49,6.49,0,0,1,1.15,5.6,27.4,27.4,0,0,1-1.17,3.52A26.72,26.72,0,0,1,16,23.55a26.72,26.72,0,0,1-5.08-7.93A27.4,27.4,0,0,1,9.75,12.1ZM6.72,28l2.86-5h3.34a30.24,30.24,0,0,0,2.37,2.71,1,1,0,0,0,1.42,0A30.24,30.24,0,0,0,19.08,23h3.34l2.86,5Z"/><path d="M20,11a4,4,0,1,0-4,4A4,4,0,0,0,20,11Zm-6,0a2,2,0,1,1,2,2A2,2,0,0,1,14,11Z"/></g></svg>