<svg xmlns="http://www.w3.org/2000/svg" viewBox="0 0 32 32"><g id="package"><path d="M27.53,7.53,17.2,2.29a2.67,2.67,0,0,0-2.4,0h0L4.47,7.53A2.69,2.69,0,0,0,3,9.94V22.06a2.69,2.69,0,0,0,1.47,2.41L14.8,29.71A2.74,2.74,0,0,0,16,30h0a2.74,2.74,0,0,0,1.18-.29l10.33-5.24A2.69,2.69,0,0,0,29,22.06V9.94A2.69,2.69,0,0,0,27.53,7.53ZM15.71,4.07a.66.66,0,0,1,.58,0l9.59,4.87L22,10.87l-9.5-5.18ZM16,13.88,6.12,8.94l4.27-2.17s.08.08.13.11L19.84,12ZM5.38,22.68A.69.69,0,0,1,5,22.06V10.62l10,5v12Zm21.24,0L17,27.57v-12l4-2V18a1,1,0,0,0,2,0V12.62l4-2V22.06A.69.69,0,0,1,26.62,22.68Z"/></g></svg>