<svg xmlns="http://www.w3.org/2000/svg" viewBox="0 0 32 32"><g id="pay"><path d="M29.51,21.46a2.9,2.9,0,0,0-3-1.13l-6.34,1.51a2.78,2.78,0,0,1-1.15,0l-3.07-.59a.67.67,0,0,1-.57-.63.69.69,0,0,1,.73-.65H17a2.5,2.5,0,1,0,0-5H14.11a6.39,6.39,0,0,0-1.9.29L7.93,16.65A1,1,0,0,0,7,16H3a1,1,0,0,0-1,1V28a1,1,0,0,0,1,1H7a1,1,0,0,0,1-.89l5.7.6a13.38,13.38,0,0,0,1.54.09,14.21,14.21,0,0,0,4-.59L28,25.66a2.86,2.86,0,0,0,1.87-1.76A2.69,2.69,0,0,0,29.51,21.46ZM6,27H4V18H6Zm22-3.76a.79.79,0,0,1-.55.5L18.7,26.29a12.39,12.39,0,0,1-4.81.44L8,26.1V18.73l4.82-1.53a4.29,4.29,0,0,1,1.29-.2H17a.5.5,0,1,1,0,1h-.89a2.64,2.64,0,0,0-.53,5.25l3.06.58a4.81,4.81,0,0,0,2,0l6.33-1.52a.9.9,0,0,1,.94.34A.69.69,0,0,1,28,23.24Z"/><path d="M14.56,14H26.44A2.56,2.56,0,0,0,29,11.44V4.56A2.56,2.56,0,0,0,26.44,2H14.56A2.56,2.56,0,0,0,12,4.56v6.88A2.56,2.56,0,0,0,14.56,14ZM27,11.44a.56.56,0,0,1-.56.56H14.56a.56.56,0,0,1-.56-.56V7H27ZM14,4.56A.56.56,0,0,1,14.56,4H26.44a.56.56,0,0,1,.56.56V5H14Z"/><path d="M23,11h1a1,1,0,0,0,0-2H23a1,1,0,0,0,0,2Z"/></g></svg>