<svg xmlns="http://www.w3.org/2000/svg" viewBox="0 0 32 32"><g id="search"><path d="M27.5,23.52l-3.69-4.73a1,1,0,0,0-1.41-.17l-1.57,1.23-1.89-2.41a9,9,0,0,0-5.2-15.36A9,9,0,0,0,5.56,16.56a8.91,8.91,0,0,0,6,3.39,8.23,8.23,0,0,0,1.1.07,8.92,8.92,0,0,0,4.71-1.35l1.88,2.42-1.57,1.23a1,1,0,0,0-.17,1.4l3.69,4.73a4,4,0,0,0,5.62.68h0A4,4,0,0,0,27.5,23.52ZM11.8,18a7,7,0,0,1-4.67-2.64A7,7,0,0,1,12.63,4a6.35,6.35,0,0,1,.87.05A7,7,0,0,1,17,16.53h0A7,7,0,0,1,11.8,18Zm13.79,9.59a2,2,0,0,1-2.81-.35L19.7,23.28l1.57-1.23h0l1.58-1.23,3.08,3.94A2,2,0,0,1,25.59,27.56Z"/></g></svg>