<svg xmlns="http://www.w3.org/2000/svg" viewBox="0 0 32 32"><g id="shopping_bag" data-name="shopping bag"><path d="M27.51,24.72,25.38,6.19A4.74,4.74,0,0,0,20.67,2H11.33a4.72,4.72,0,0,0-4.7,4.19L4.49,24.72A4.73,4.73,0,0,0,9.19,30H22.81a4.73,4.73,0,0,0,4.7-5.28Zm-2.66,2.37a2.74,2.74,0,0,1-2,.91H9.19A2.74,2.74,0,0,1,6.47,25L8.61,6.42A2.74,2.74,0,0,1,11.33,4h9.34a2.74,2.74,0,0,1,2.72,2.42L25.53,25A2.75,2.75,0,0,1,24.85,27.09Z"/><path d="M21,7H19a1,1,0,0,0,0,2h0a3.57,3.57,0,0,1-.83,1.92,2.76,2.76,0,0,1-4.38,0A3.57,3.57,0,0,1,13,9h0a1,1,0,0,0,0-2H11a1,1,0,0,0-1,1,1,1,0,0,0,1,1,5.5,5.5,0,0,0,1.33,3.24A4.94,4.94,0,0,0,16,14a4.94,4.94,0,0,0,3.7-1.77A5.5,5.5,0,0,0,21,9a1,1,0,0,0,1-1A1,1,0,0,0,21,7Z"/></g></svg>