<svg xmlns="http://www.w3.org/2000/svg" viewBox="0 0 32 32"><g id="shopping"><path d="M29.51,21.46A2.88,2.88,0,0,0,28,20.38v-13A2.39,2.39,0,0,0,25.61,5H11.39A2.39,2.39,0,0,0,9,7.39v8.92l-1.07.34A1,1,0,0,0,7,16H3a1,1,0,0,0-1,1V28a1,1,0,0,0,1,1H7a1,1,0,0,0,1-.89l5.7.6a13.36,13.36,0,0,0,1.54.08,14.2,14.2,0,0,0,4-.58L28,25.65a2.82,2.82,0,0,0,1.87-1.75A2.69,2.69,0,0,0,29.51,21.46ZM11,7.39A.4.4,0,0,1,11.39,7H25.61a.4.4,0,0,1,.39.39V20.44l-5.87,1.4a2.78,2.78,0,0,1-1.15,0l-3.06-.59a.67.67,0,0,1-.58-.63.69.69,0,0,1,.73-.65H17a2.5,2.5,0,1,0,0-5H14.11a6.39,6.39,0,0,0-1.9.29L11,15.68ZM6,27H4V18H6Zm22-3.76a.79.79,0,0,1-.55.5L18.7,26.29a12.2,12.2,0,0,1-4.81.43L8,26.1V18.73l4.82-1.53a4.29,4.29,0,0,1,1.29-.2H17a.5.5,0,1,1,0,1h-.89a2.64,2.64,0,0,0-.53,5.25l3.06.58a4.81,4.81,0,0,0,2,0l6.33-1.52a.9.9,0,0,1,.94.34A.69.69,0,0,1,28,23.24Z"/><path d="M14,10h.07a4.66,4.66,0,0,0,3.8,4l.51,0a4.48,4.48,0,0,0,3-1.18A5,5,0,0,0,22.92,10H23a1,1,0,0,0,0-2H21a1,1,0,0,0-1,1,1,1,0,0,0,.86,1A3,3,0,0,1,20,11.35a2.45,2.45,0,0,1-1.88.66,2.66,2.66,0,0,1-2-2A1,1,0,0,0,17,9a1,1,0,0,0-1-1H14a1,1,0,0,0,0,2Z"/></g></svg>