<svg xmlns="http://www.w3.org/2000/svg" viewBox="0 0 32 32"><g id="shop"><path d="M29.66,9.51h0L28.23,3.78A2.35,2.35,0,0,0,25.94,2H6.08A2.34,2.34,0,0,0,3.79,3.8c-.25,1-.5,2-.76,2.94s-.47,1.78-.71,2.75a4.42,4.42,0,0,0,1.56,4.63L4,14.2V29a1,1,0,0,0,1,1H27a1,1,0,0,0,1-1V14.24A4.46,4.46,0,0,0,29.66,9.51ZM26.73,12.7a2.12,2.12,0,0,1-.87.31A2.69,2.69,0,0,1,23,11h4.73A2.21,2.21,0,0,1,26.73,12.7ZM5.07,12.52A2.31,2.31,0,0,1,4.24,11H9a2.64,2.64,0,0,1-2.11,2A2.47,2.47,0,0,1,5.07,12.52Zm.66-8.25A.36.36,0,0,1,6.08,4H25.94a.35.35,0,0,1,.35.27L27.47,9h-23c.15-.59.3-1.17.46-1.74C5.22,6.3,5.48,5.34,5.73,4.27ZM21,11a2,2,0,0,1-4,0Zm-6,0a2,2,0,0,1-4,0ZM12,28V20.71a.71.71,0,0,1,.71-.71h6.58a.71.71,0,0,1,.71.71V28Zm10,0V20.71A2.72,2.72,0,0,0,19.29,18H12.71A2.72,2.72,0,0,0,10,20.71V28H6V15a4.35,4.35,0,0,0,1.14,0,4.43,4.43,0,0,0,2.73-1.51,4,4,0,0,0,6.13.16,4,4,0,0,0,6.15-.18A4.54,4.54,0,0,0,25.55,15L26,15V28Z"/></g></svg>