<svg xmlns="http://www.w3.org/2000/svg" viewBox="0 0 32 32"><g id="tag"><path d="M27.71,18.8,18.85,7.41A1,1,0,0,0,18.19,7L10.74,6.1a3.41,3.41,0,0,0-2.5.69A3.36,3.36,0,0,0,7,9.06l-.1.82-.06-.05C5.3,7.9,5.11,5.43,6.4,4.43c.85-.66,2.2-.57,3.51.24A1,1,0,0,0,11,3C8.92,1.71,6.7,1.66,5.17,2.85,3,4.54,3,8.22,5.21,11.05a8.74,8.74,0,0,0,1.32,1.33L6,16.5a1,1,0,0,0,.2.74l8.86,11.39A3.55,3.55,0,0,0,17.46,30a3.4,3.4,0,0,0,.45,0,3.5,3.5,0,0,0,2.18-.76l7-5.43a3.5,3.5,0,0,0,1.35-2.38A3.58,3.58,0,0,0,27.71,18.8Zm-1.26,2.39a1.53,1.53,0,0,1-.6,1l-7,5.43a1.57,1.57,0,0,1-2.2-.27L8.05,16.34l.36-2.83c.21.08.41.18.63.24a5.5,5.5,0,0,0,1.52.23,4.15,4.15,0,0,0,2.59-.87,1,1,0,0,0,.18-1.4,1,1,0,0,0-1.41-.17,2.59,2.59,0,0,1-2.33.29,4.35,4.35,0,0,1-.92-.4L8.93,9.3a1.43,1.43,0,0,1,.53-.93,1.38,1.38,0,0,1,1-.28l7,.88L26.13,20A1.57,1.57,0,0,1,26.45,21.19Z"/></g></svg>