<svg xmlns="http://www.w3.org/2000/svg" viewBox="0 0 32 32"><g id="voucher"><path d="M29,14a1,1,0,0,0,1-1V10.39A2.39,2.39,0,0,0,27.61,8H4.39A2.39,2.39,0,0,0,2,10.39V13a1,1,0,0,0,1,1,2,2,0,0,1,0,4,1,1,0,0,0-1,1v2.61A2.39,2.39,0,0,0,4.39,24H27.61A2.39,2.39,0,0,0,30,21.61V19a1,1,0,0,0-1-1,2,2,0,0,1,0-4Zm-1,5.87v1.74a.4.4,0,0,1-.39.39H4.39A.4.4,0,0,1,4,21.61V19.87a4,4,0,0,0,0-7.74V10.39A.4.4,0,0,1,4.39,10H27.61a.4.4,0,0,1,.39.39v1.74a4,4,0,0,0,0,7.74Z"/><path d="M13,15h6a1,1,0,0,0,0-2H13a1,1,0,0,0,0,2Z"/><path d="M21,17H11a1,1,0,0,0,0,2H21a1,1,0,0,0,0-2Z"/></g></svg>