<?xml version="1.0" encoding="UTF-8"?><svg xmlns="http://www.w3.org/2000/svg" viewBox="0 0 24 24"><g id="a"/><g id="b"/><g id="c"/><g id="d"/><g id="e"/><g id="f"/><g id="g"/><g id="h"/><g id="i"/><g id="j"/><g id="k"/><g id="l"/><g id="m"/><g id="n"/><g id="o"/><g id="p"/><g id="q"><g><path d="M18.67,7.92c-.46-2.91-2.92-5.27-5.85-5.62-1.93-.23-3.86,.38-5.3,1.66-1.44,1.28-2.27,3.12-2.27,5.05s.72,3.55,2.04,4.83c.61,.6,.96,1.43,.96,2.3v.87c0,.96,.79,1.75,1.75,1.75h4c.96,0,1.75-.78,1.75-1.75v-.87c0-.86,.37-1.7,1.04-2.37,1.53-1.54,2.22-3.67,1.88-5.84Zm-4.42,9.08c0,.14-.11,.25-.25,.25h-4c-.14,0-.25-.11-.25-.25v-.87c0-.13-.03-.25-.04-.38h4.58c-.01,.13-.04,.25-.04,.38v.87Zm1.47-4.3c-.46,.46-.81,.99-1.06,1.55h-5.31c-.24-.56-.58-1.07-1.02-1.49-1.02-1-1.58-2.33-1.58-3.76,0-1.5,.64-2.93,1.76-3.92,.97-.87,2.19-1.33,3.48-1.33,.21,0,.43,.01,.65,.04,2.28,.27,4.19,2.1,4.54,4.36,.26,1.69-.27,3.35-1.46,4.55Z"/><path d="M15,20.25h-6c-.41,0-.75,.34-.75,.75s.34,.75,.75,.75h6c.41,0,.75-.34,.75-.75s-.34-.75-.75-.75Z"/></g></g><g id="r"/><g id="s"/><g id="t"/><g id="u"/></svg>