<?xml version="1.0" encoding="UTF-8"?><svg xmlns="http://www.w3.org/2000/svg" viewBox="0 0 24 24"><g id="a"/><g id="b"/><g id="c"/><g id="d"/><g id="e"/><g id="f"/><g id="g"/><g id="h"/><g id="i"/><g id="j"/><g id="k"/><g id="l"/><g id="m"/><g id="n"/><g id="o"/><g id="p"><path d="M21.46,10.39c-.52-.73-1.34-1.14-2.23-1.14h-1.91c-.1,0-.17-.06-.2-.09-.03-.04-.07-.1-.05-.18,.19-1.14,.06-2.27-.38-3.28-.7-1.62-1.99-2.48-2.94-2.92-.55-.25-1.18-.21-1.69,.11-.5,.32-.81,.87-.81,1.47v2.64c0,1.24-1.01,2.25-2.25,2.25H5c-1.52,0-2.75,1.23-2.75,2.75v5c0,1.52,1.23,2.75,2.75,2.75h12.56c1.19,0,2.23-.76,2.61-1.88l1.67-5c.28-.85,.15-1.75-.38-2.48ZM3.75,17v-5c0-.69,.56-1.25,1.25-1.25h2.25v7.5h-2.25c-.69,0-1.25-.56-1.25-1.25Zm16.66-4.6l-1.67,5c-.17,.51-.65,.85-1.19,.85H8.75v-7.5h.25c2.07,0,3.75-1.68,3.75-3.75v-2.64c0-.11,.06-.18,.11-.21,.04-.03,.14-.07,.25-.01,.72,.33,1.68,.98,2.2,2.16,.33,.75,.42,1.57,.27,2.43-.08,.5,.05,1.01,.38,1.4,.33,.4,.82,.62,1.34,.62h1.91c.41,0,.78,.19,1.01,.52,.24,.33,.3,.74,.17,1.13Z"/></g><g id="q"/><g id="r"/><g id="s"/><g id="t"/><g id="u"/></svg>