<?xml version="1.0" encoding="UTF-8"?><svg xmlns="http://www.w3.org/2000/svg" viewBox="0 0 24 24"><g id="a"/><g id="b"/><g id="c"/><g id="d"/><g id="e"/><g id="f"/><g id="g"/><g id="h"/><g id="i"/><g id="j"/><g id="k"/><g id="l"/><g id="m"/><g id="n"/><g id="o"/><g id="p"/><g id="q"/><g id="r"/><g id="s"/><g id="t"><path d="M19,5.25h-3.68c-.13,0-.27-.02-.4-.06l-5.38-1.8c-.28-.09-.57-.14-.87-.14h-3.68c-1.52,0-2.75,1.23-2.75,2.75v10c0,1.52,1.23,2.75,2.75,2.75h3.68c.13,0,.27,.02,.4,.06l5.38,1.8c.28,.09,.57,.14,.87,.14h3.68c1.52,0,2.75-1.23,2.75-2.75V8c0-1.52-1.23-2.75-2.75-2.75Zm1.25,12.75c0,.69-.56,1.25-1.25,1.25h-3.68c-.13,0-.27-.02-.4-.06l-5.18-1.73V8c0-.41-.34-.75-.75-.75s-.75,.34-.75,.75v9.25h-3.25c-.69,0-1.25-.56-1.25-1.25V6c0-.69,.56-1.25,1.25-1.25h3.68c.13,0,.27,.02,.4,.06l5.18,1.73v9.46c0,.41,.34,.75,.75,.75s.75-.34,.75-.75V6.75h3.25c.69,0,1.25,.56,1.25,1.25v10Z"/></g><g id="u"/></svg>