<?xml version="1.0" encoding="UTF-8"?><svg xmlns="http://www.w3.org/2000/svg" viewBox="0 0 24 24"><g id="a"/><g id="b"/><g id="c"/><g id="d"/><g id="e"/><g id="f"/><g id="g"/><g id="h"/><g id="i"><path d="M19,12.25h-1.25v-1.25c0-3.17-2.58-5.75-5.75-5.75s-5.75,2.58-5.75,5.75v1.25h-1.25c-1.52,0-2.75,1.23-2.75,2.75v1c0,1.52,1.23,2.75,2.75,2.75h1c.96,0,1.75-.79,1.75-1.75v-6c0-2.34,1.91-4.25,4.25-4.25s4.25,1.91,4.25,4.25v6c0,.96,.79,1.75,1.75,1.75h1c1.52,0,2.75-1.23,2.75-2.75v-1c0-1.52-1.23-2.75-2.75-2.75Zm-12.75,4.75c0,.14-.11,.25-.25,.25h-1c-.69,0-1.25-.56-1.25-1.25v-1c0-.69,.56-1.25,1.25-1.25h1.25v3.25Zm14-1c0,.69-.56,1.25-1.25,1.25h-1c-.14,0-.25-.11-.25-.25v-3.25h1.25c.69,0,1.25,.56,1.25,1.25v1Z"/></g><g id="j"/><g id="k"/><g id="l"/><g id="m"/><g id="n"/><g id="o"/><g id="p"/><g id="q"/><g id="r"/><g id="s"/><g id="t"/><g id="u"/></svg>