<?xml version="1.0" encoding="UTF-8"?><svg xmlns="http://www.w3.org/2000/svg" viewBox="0 0 24 24"><g id="a"/><g id="b"/><g id="c"/><g id="d"/><g id="e"/><g id="f"/><g id="g"/><g id="h"><g><path d="M21.06,15.67l-1.41-1.41c-1.07-1.07-2.82-1.07-3.89,0l-.71,.71c-.06,.06-.14,.07-.18,.07,0,0-.11-.01-.17-.07l-5.66-5.67c-.1-.1-.09-.25,0-.35l.71-.71c1.07-1.07,1.07-2.82,0-3.89l-1.42-1.41c-1.04-1.04-2.85-1.04-3.89,0l-.62,.62c-1.68,1.68-2.15,4.27-1.17,6.45,1.11,2.48,2.71,4.8,4.62,6.72s4.25,3.52,6.8,4.65c.73,.32,1.51,.48,2.29,.48,1.5,0,2.99-.58,4.09-1.68l.62-.62c1.07-1.07,1.07-2.82,0-3.89Zm-1.06,2.83l-.62,.62c-1.23,1.23-3.12,1.59-4.71,.89-2.38-1.05-4.51-2.51-6.34-4.34-1.78-1.78-3.27-3.95-4.31-6.27-.72-1.62-.38-3.54,.86-4.78l.62-.62c.24-.24,.55-.37,.88-.37s.65,.13,.88,.37l1.42,1.41c.49,.49,.49,1.28,0,1.77l-.71,.71c-.68,.68-.68,1.79,0,2.47l5.66,5.67c.33,.33,.77,.51,1.23,.51h0c.47,0,.91-.18,1.24-.51l.71-.71c.47-.47,1.29-.47,1.77,0l1.41,1.41c.49,.49,.49,1.28,0,1.77Z"/><path d="M14.47,9.53c.15,.15,.34,.22,.53,.22s.38-.07,.53-.22l1.47-1.47,1.47,1.47c.15,.15,.34,.22,.53,.22s.38-.07,.53-.22c.29-.29,.29-.77,0-1.06l-1.47-1.47,1.47-1.47c.29-.29,.29-.77,0-1.06s-.77-.29-1.06,0l-1.47,1.47-1.47-1.47c-.29-.29-.77-.29-1.06,0s-.29,.77,0,1.06l1.47,1.47-1.47,1.47c-.29,.29-.29,.77,0,1.06Z"/></g></g><g id="i"/><g id="j"/><g id="k"/><g id="l"/><g id="m"/><g id="n"/><g id="o"/><g id="p"/><g id="q"/><g id="r"/><g id="s"/><g id="t"/><g id="u"/></svg>