<?xml version="1.0" encoding="UTF-8"?><svg xmlns="http://www.w3.org/2000/svg" viewBox="0 0 24 24"><g id="a"/><g id="b"/><g id="c"><path d="M12,2.25c-3.17,0-5.75,2.58-5.75,5.75v8c0,3.17,2.58,5.75,5.75,5.75,1.26,0,2.45-.4,3.45-1.15,.33-.25,.4-.72,.15-1.05-.25-.33-.72-.4-1.05-.15-.74,.56-1.62,.85-2.55,.85-2.34,0-4.25-1.91-4.25-4.25V8c0-2.34,1.91-4.25,4.25-4.25s4.25,1.91,4.25,4.25v5.5c0,.96-.79,1.75-1.75,1.75s-1.75-.79-1.75-1.75v-4.5c0-.41-.34-.75-.75-.75s-.75,.34-.75,.75v4.5c0,1.79,1.46,3.25,3.25,3.25s3.25-1.46,3.25-3.25v-5.5c0-3.17-2.58-5.75-5.75-5.75Z"/></g><g id="d"/><g id="e"/><g id="f"/><g id="g"/><g id="h"/><g id="i"/><g id="j"/><g id="k"/><g id="l"/><g id="m"/><g id="n"/><g id="o"/><g id="p"/><g id="q"/><g id="r"/><g id="s"/><g id="t"/><g id="u"/></svg>