<?xml version="1.0" encoding="UTF-8"?><svg xmlns="http://www.w3.org/2000/svg" viewBox="0 0 24 24"><g id="a"/><g id="b"/><g id="c"/><g id="d"/><g id="e"/><g id="f"/><g id="g"/><g id="h"/><g id="i"/><g id="j"/><g id="k"/><g id="l"><path d="M15.45,13.32c-.33-.25-.8-.18-1.05,.15-.25,.33-.18,.8,.15,1.05,1.55,1.16,2.39,2.29,2.72,3.66,.14,.58,.18,1.2,.12,1.84-.01,.13-.12,.23-.25,.23H6.86c-.13,0-.24-.1-.25-.23-.06-.64-.02-1.26,.12-1.84,.63-2.57,3.07-4.01,5.65-5.53,2.74-1.62,5.57-3.29,6.35-6.47,.18-.75,.24-1.53,.16-2.33-.08-.89-.85-1.59-1.75-1.59H6.86c-.9,0-1.67,.7-1.75,1.59-.08,.8-.02,1.59,.16,2.34,.42,1.71,1.46,3.14,3.28,4.5,.33,.25,.8,.18,1.05-.15,.25-.33,.18-.8-.15-1.05-1.55-1.16-2.39-2.29-2.72-3.66-.14-.58-.18-1.2-.12-1.84,.01-.13,.12-.23,.25-.23h10.28c.13,0,.24,.1,.25,.23,.06,.64,.02,1.26-.12,1.84-.63,2.57-3.07,4.01-5.65,5.53-2.74,1.61-5.57,3.28-6.35,6.47-.18,.75-.24,1.53-.16,2.33,.08,.89,.85,1.59,1.75,1.59h10.28c.9,0,1.67-.7,1.75-1.59,.08-.8,.02-1.59-.16-2.34-.42-1.71-1.46-3.14-3.28-4.5Z"/></g><g id="m"/><g id="n"/><g id="o"/><g id="p"/><g id="q"/><g id="r"/><g id="s"/><g id="t"/><g id="u"/></svg>