<?xml version="1.0" encoding="UTF-8"?><svg xmlns="http://www.w3.org/2000/svg" viewBox="0 0 24 24"><g id="a"/><g id="b"><g><path d="M21.63,16.51L14.31,5.19c-.51-.79-1.37-1.26-2.31-1.26s-1.8,.47-2.31,1.26L2.37,16.51c-.56,.86-.6,1.91-.11,2.81,.49,.9,1.39,1.44,2.42,1.44h14.65c1.02,0,1.93-.54,2.42-1.44,.49-.9,.45-1.95-.11-2.81Zm-1.21,2.09c-.22,.41-.63,.65-1.1,.65H4.68c-.47,0-.88-.24-1.1-.65-.22-.41-.2-.89,.05-1.28L10.95,6c.23-.36,.62-.57,1.05-.57s.81,.21,1.05,.57l7.32,11.32c.25,.39,.27,.87,.05,1.28Z"/><path d="M12,14.75c.41,0,.75-.34,.75-.75v-5c0-.41-.34-.75-.75-.75s-.75,.34-.75,.75v5c0,.41,.34,.75,.75,.75Z"/><path d="M12.02,16.25h0c-.41,0-.75,.34-.75,.75s.34,.75,.75,.75,.75-.34,.75-.75-.33-.75-.75-.75Z"/></g></g><g id="c"/><g id="d"/><g id="e"/><g id="f"/><g id="g"/><g id="h"/><g id="i"/><g id="j"/><g id="k"/><g id="l"/><g id="m"/><g id="n"/><g id="o"/><g id="p"/><g id="q"/><g id="r"/><g id="s"/><g id="t"/><g id="u"/></svg>