<?xml version="1.0" encoding="UTF-8"?><svg xmlns="http://www.w3.org/2000/svg" viewBox="0 0 24 24"><g id="a"/><g id="b"/><g id="c"><g><path d="M17,5.25H8.87c-1.41,0-2.74,.62-3.65,1.71l-2.2,2.64c-1.16,1.39-1.16,3.41,0,4.8l2.2,2.64c.91,1.09,2.23,1.71,3.65,1.71h8.13c2.62,0,4.75-2.13,4.75-4.75v-4c0-2.62-2.13-4.75-4.75-4.75Zm3.25,8.75c0,1.79-1.46,3.25-3.25,3.25H8.87c-.97,0-1.88-.43-2.5-1.17l-2.2-2.64c-.7-.83-.7-2.05,0-2.88l2.2-2.64c.62-.74,1.53-1.17,2.5-1.17h8.13c1.79,0,3.25,1.46,3.25,3.25v4Z"/><path d="M15.47,9.47l-3.47,3.47-1.47-1.47c-.29-.29-.77-.29-1.06,0s-.29,.77,0,1.06l2,2c.15,.15,.34,.22,.53,.22s.38-.07,.53-.22l4-4c.29-.29,.29-.77,0-1.06s-.77-.29-1.06,0Z"/></g></g><g id="d"/><g id="e"/><g id="f"/><g id="g"/><g id="h"/><g id="i"/><g id="j"/><g id="k"/><g id="l"/><g id="m"/><g id="n"/><g id="o"/><g id="p"/><g id="q"/><g id="r"/><g id="s"/><g id="t"/><g id="u"/></svg>