<?xml version="1.0" encoding="UTF-8"?><svg xmlns="http://www.w3.org/2000/svg" viewBox="0 0 24 24"><g id="a"/><g id="b"/><g id="c"/><g id="d"/><g id="e"/><g id="f"/><g id="g"/><g id="h"/><g id="i"/><g id="j"/><g id="k"/><g id="l"/><g id="m"/><g id="n"/><g id="o"><path d="M20.61,3.54c-.73-.52-1.63-.66-2.48-.38l-6.13,2.04L5.87,3.17c-.85-.28-1.75-.15-2.48,.38-.73,.52-1.14,1.34-1.14,2.23v10.78c0,1.19,.76,2.23,1.88,2.61l7.63,2.54h0c.08,.03,.15,.04,.23,.04s.16-.01,.23-.04h0l7.63-2.54c1.12-.38,1.88-1.42,1.88-2.61V5.77c0-.89-.42-1.71-1.14-2.23ZM3.75,16.56V5.77c0-.41,.19-.78,.52-1.01,.22-.16,.47-.24,.73-.24,.13,0,.27,.02,.4,.07l5.85,1.95v13.42l-6.65-2.21c-.51-.17-.85-.65-.85-1.19Zm16.5,0c0,.54-.34,1.02-.85,1.19l-6.65,2.21V6.54l5.85-1.95c.39-.13,.8-.06,1.13,.17,.33,.24,.52,.61,.52,1.01v10.78Z"/></g><g id="p"/><g id="q"/><g id="r"/><g id="s"/><g id="t"/><g id="u"/></svg>