<?xml version="1.0" encoding="UTF-8"?><svg xmlns="http://www.w3.org/2000/svg" viewBox="0 0 24 24"><g id="a"/><g id="b"><path d="M21.73,12.91s0-.06,0-.09l-1.43-5.73c-.42-1.67-1.91-2.84-3.64-2.84H7.34c-1.72,0-3.22,1.17-3.64,2.84l-1.43,5.73s0,.06,0,.09c0,.03-.02,.06-.02,.09v4c0,2.07,1.68,3.75,3.75,3.75h12c2.07,0,3.75-1.68,3.75-3.75v-4s-.01-.06-.02-.09ZM5.16,7.45c.25-1,1.15-1.7,2.18-1.7h9.31c1.04,0,1.93,.7,2.18,1.7l1.2,4.8h-1.97c-.92,0-1.78,.46-2.29,1.22l-.81,1.22c-.23,.35-.62,.56-1.04,.56h-3.86c-.42,0-.81-.21-1.04-.56l-.81-1.22c-.51-.77-1.37-1.22-2.29-1.22h-1.97l1.2-4.8Zm15.09,9.55c0,1.24-1.01,2.25-2.25,2.25H6c-1.24,0-2.25-1.01-2.25-2.25v-3.25h2.18c.42,0,.81,.21,1.04,.56l.81,1.22c.51,.77,1.37,1.22,2.29,1.22h3.86c.92,0,1.78-.46,2.29-1.22l.81-1.22c.23-.35,.62-.56,1.04-.56h2.18v3.25Z"/></g><g id="c"/><g id="d"/><g id="e"/><g id="f"/><g id="g"/><g id="h"/><g id="i"/><g id="j"/><g id="k"/><g id="l"/><g id="m"/><g id="n"/><g id="o"/><g id="p"/><g id="q"/><g id="r"/><g id="s"/><g id="t"/><g id="u"/></svg>