<?xml version="1.0" encoding="UTF-8"?><svg xmlns="http://www.w3.org/2000/svg" viewBox="0 0 24 24"><g id="a"/><g id="b"/><g id="c"/><g id="d"/><g id="e"/><g id="f"/><g id="g"/><g id="h"/><g id="i"/><g id="j"/><g id="k"/><g id="l"/><g id="m"/><g id="n"/><g id="o"/><g id="p"/><g id="q"/><g id="r"/><g id="s"/><g id="t"><path d="M19.5,9.25H10.1c-.77-1.23-2.13-2-3.6-2-2.34,0-4.25,1.91-4.25,4.25s1.91,4.25,4.25,4.25c1.47,0,2.83-.77,3.6-2h4.15v.75c0,.69,.56,1.25,1.25,1.25h2c.69,0,1.25-.56,1.25-1.25v-.75h.75c1.24,0,2.25-1.01,2.25-2.25s-1.01-2.25-2.25-2.25Zm0,3h-1.5c-.41,0-.75,.34-.75,.75v1.25h-1.5v-1.25c0-.41-.34-.75-.75-.75h-5.34c-.05,0-.1,.02-.15,.03-.04,0-.08,0-.11,.02-.05,.02-.1,.05-.14,.09-.03,.02-.07,.04-.1,.07-.04,.04-.07,.09-.1,.13-.02,.03-.05,.05-.07,.09-.45,.95-1.43,1.57-2.48,1.57-1.52,0-2.75-1.23-2.75-2.75s1.23-2.75,2.75-2.75c1.06,0,2.03,.62,2.48,1.57,.01,.02,.03,.04,.04,.06,.04,.06,.07,.12,.13,.17,.03,.02,.06,.04,.08,.06,.05,.04,.1,.07,.16,.09,.04,.01,.08,.02,.12,.02,.05,.01,.1,.03,.15,.03h9.84c.41,0,.75,.34,.75,.75s-.34,.75-.75,.75Z"/></g><g id="u"/></svg>