<?xml version="1.0" encoding="UTF-8"?><svg xmlns="http://www.w3.org/2000/svg" viewBox="0 0 24 24"><g id="a"/><g id="b"/><g id="c"/><g id="d"/><g id="e"/><g id="f"/><g id="g"/><g id="h"/><g id="i"/><g id="j"/><g id="k"/><g id="l"/><g id="m"/><g id="n"/><g id="o"/><g id="p"/><g id="q"/><g id="r"/><g id="s"><g><path d="M18,4.25H6c-2.07,0-3.75,1.68-3.75,3.75v6c0,2.07,1.68,3.75,3.75,3.75,.41,0,.75-.34,.75-.75s-.34-.75-.75-.75c-1.24,0-2.25-1.01-2.25-2.25v-6c0-1.24,1.01-2.25,2.25-2.25h12c1.24,0,2.25,1.01,2.25,2.25v6c0,1.24-1.01,2.25-2.25,2.25-.41,0-.75,.34-.75,.75s.34,.75,.75,.75c2.07,0,3.75-1.68,3.75-3.75v-6c0-2.07-1.68-3.75-3.75-3.75Z"/><path d="M13.04,13.21c-.46-.7-1.62-.7-2.08,0l-3.07,4.6c-.26,.38-.28,.88-.06,1.28,.22,.41,.64,.66,1.1,.66h6.13c.46,0,.88-.25,1.1-.66,.22-.41,.19-.9-.06-1.28l-3.07-4.6Zm-3.64,5.04l2.6-3.9,2.6,3.9h-5.2Z"/></g></g><g id="t"/><g id="u"/></svg>