<?xml version="1.0" encoding="UTF-8"?><svg xmlns="http://www.w3.org/2000/svg" viewBox="0 0 24 24"><g id="a"/><g id="b"/><g id="c"/><g id="d"/><g id="e"/><g id="f"/><g id="g"><g><path d="M19.28,6.34c-.95-1.81-2.55-3.12-4.51-3.67-1.38-.39-2.47-.42-2.77-.42-.9,0-1.79,.12-2.65,.36-1.95,.54-3.57,1.85-4.56,3.71-1.03,1.93-1.22,4.21-.5,6.36,1.04,3.06,2.79,5.78,5.21,8.07,.7,.67,1.6,1,2.5,1s1.8-.33,2.5-1c2.42-2.3,4.17-5.01,5.23-8.13,.71-2.09,.54-4.37-.45-6.27Zm-.99,5.85c-.96,2.83-2.58,5.34-4.82,7.47-.84,.8-2.1,.8-2.94,0-2.24-2.13-3.86-4.64-4.85-7.55-.56-1.67-.4-3.52,.44-5.08,.79-1.49,2.08-2.54,3.63-2.97,.73-.2,1.49-.3,2.25-.3,.25,0,1.17,.03,2.36,.37,1.55,.44,2.83,1.48,3.59,2.93,.81,1.53,.94,3.39,.34,5.15Z"/><path d="M12,6.25c-2.07,0-3.75,1.68-3.75,3.75s1.68,3.75,3.75,3.75,3.75-1.68,3.75-3.75-1.68-3.75-3.75-3.75Zm0,6c-1.24,0-2.25-1.01-2.25-2.25s1.01-2.25,2.25-2.25,2.25,1.01,2.25,2.25-1.01,2.25-2.25,2.25Z"/></g></g><g id="h"/><g id="i"/><g id="j"/><g id="k"/><g id="l"/><g id="m"/><g id="n"/><g id="o"/><g id="p"/><g id="q"/><g id="r"/><g id="s"/><g id="t"/><g id="u"/></svg>