<?xml version="1.0" encoding="UTF-8"?><svg xmlns="http://www.w3.org/2000/svg" viewBox="0 0 24 24"><g id="a"/><g id="b"/><g id="c"/><g id="d"/><g id="e"/><g id="f"/><g id="g"/><g id="h"/><g id="i"/><g id="j"><path d="M21.09,2.91c-.34-.34-.83-.45-1.28-.3L3.46,8.06c-.55,.18-.89,.69-.85,1.26,.04,.57,.44,1.04,1,1.15l8.11,1.62c.1,.02,.18,.1,.2,.2l1.62,8.11c.11,.56,.57,.97,1.15,1,.03,0,.05,0,.08,0,.54,0,1.01-.33,1.18-.85L21.4,4.19c.15-.45,.04-.94-.3-1.28Zm-6.28,16.27l-1.44-7.18c-.14-.69-.68-1.23-1.37-1.37l-7.18-1.44,14.99-5-5,14.99Z"/></g><g id="k"/><g id="l"/><g id="m"/><g id="n"/><g id="o"/><g id="p"/><g id="q"/><g id="r"/><g id="s"/><g id="t"/><g id="u"/></svg>