<?xml version="1.0" encoding="UTF-8"?><svg xmlns="http://www.w3.org/2000/svg" viewBox="0 0 24 24"><g id="a"/><g id="b"/><g id="c"/><g id="d"/><g id="e"/><g id="f"/><g id="g"/><g id="h"/><g id="i"/><g id="j"/><g id="k"/><g id="l"><g><path d="M19,2.25c-.41,0-.75,.34-.75,.75V21c0,.41,.34,.75,.75,.75s.75-.34,.75-.75V3c0-.41-.34-.75-.75-.75Z"/><path d="M14,7.25c-.41,0-.75,.34-.75,.75v13c0,.41,.34,.75,.75,.75s.75-.34,.75-.75V8c0-.41-.34-.75-.75-.75Z"/><path d="M9,12.25c-.41,0-.75,.34-.75,.75v8c0,.41,.34,.75,.75,.75s.75-.34,.75-.75V13c0-.41-.34-.75-.75-.75Z"/><path d="M4,17.25c-.41,0-.75,.34-.75,.75v3c0,.41,.34,.75,.75,.75s.75-.34,.75-.75v-3c0-.41-.34-.75-.75-.75Z"/></g></g><g id="m"/><g id="n"/><g id="o"/><g id="p"/><g id="q"/><g id="r"/><g id="s"/><g id="t"/><g id="u"/></svg>