<?xml version="1.0" encoding="UTF-8"?><svg xmlns="http://www.w3.org/2000/svg" viewBox="0 0 24 24"><g id="a"/><g id="b"/><g id="c"/><g id="d"><path d="M12,3.25C6.62,3.25,2.25,6.73,2.25,11c0,1.64,.66,3.25,1.87,4.57l-.67,3.35c-.09,.46,.08,.92,.44,1.22,.23,.18,.51,.28,.79,.28,.17,0,.33-.03,.49-.1l4.28-1.83c.83,.18,1.69,.27,2.55,.27,5.38,0,9.75-3.48,9.75-7.75S17.38,3.25,12,3.25Zm0,14c-.84,0-1.66-.09-2.45-.28-.16-.04-.32-.02-.47,.04l-4.06,1.74,.65-3.27c.05-.25-.03-.5-.21-.68-1.12-1.1-1.71-2.42-1.71-3.8,0-3.45,3.7-6.25,8.25-6.25s8.25,2.8,8.25,6.25-3.7,6.25-8.25,6.25Z"/></g><g id="e"/><g id="f"/><g id="g"/><g id="h"/><g id="i"/><g id="j"/><g id="k"/><g id="l"/><g id="m"/><g id="n"/><g id="o"/><g id="p"/><g id="q"/><g id="r"/><g id="s"/><g id="t"/><g id="u"/></svg>