<?xml version="1.0" encoding="UTF-8"?><svg xmlns="http://www.w3.org/2000/svg" viewBox="0 0 24 24"><g id="a"/><g id="b"/><g id="c"/><g id="d"/><g id="e"/><g id="f"/><g id="g"/><g id="h"/><g id="i"/><g id="j"/><g id="k"/><g id="l"/><g id="m"/><g id="n"/><g id="o"/><g id="p"/><g id="q"/><g id="r"><g><path d="M20.68,7.57c-.19-.37-.64-.52-1.01-.33l-2.98,1.52c-.37,.19-.52,.64-.33,1.01,.13,.26,.4,.41,.67,.41,.11,0,.23-.03,.34-.08l2.28-1.16c.72,1.79,.79,3.75,.19,5.61-1.4,4.33-6.07,6.7-10.39,5.3-2.1-.68-3.8-2.13-4.8-4.1s-1.18-4.2-.5-6.29c.68-2.1,2.13-3.8,4.1-4.8s4.2-1.18,6.29-.5c.9,.29,1.73,.73,2.47,1.3,.33,.25,.8,.19,1.05-.14,.25-.33,.19-.8-.14-1.05-.88-.67-1.86-1.19-2.92-1.53-2.48-.8-5.12-.59-7.44,.59-2.32,1.18-4.04,3.2-4.84,5.68-.8,2.48-.59,5.12,.59,7.44,1.18,2.32,3.2,4.04,5.68,4.84,1,.32,2.01,.48,3,.48,4.11,0,7.95-2.63,9.28-6.74,.8-2.48,.59-5.12-.59-7.44Z"/><path d="M8.25,12c0,2.07,1.68,3.75,3.75,3.75s3.75-1.68,3.75-3.75-1.68-3.75-3.75-3.75-3.75,1.68-3.75,3.75Zm6,0c0,1.24-1.01,2.25-2.25,2.25s-2.25-1.01-2.25-2.25,1.01-2.25,2.25-2.25,2.25,1.01,2.25,2.25Z"/></g></g><g id="s"/><g id="t"/><g id="u"/></svg>