<?xml version="1.0" encoding="UTF-8"?><svg xmlns="http://www.w3.org/2000/svg" viewBox="0 0 24 24"><g id="a"/><g id="b"/><g id="c"/><g id="d"/><g id="e"><g><circle cx="12" cy="17" r="1.75"/><path d="M12,11.56c-1.66,0-3.25,.6-4.48,1.7-.31,.28-.34,.75-.06,1.06,.28,.31,.75,.34,1.06,.06,.96-.85,2.2-1.32,3.49-1.32s2.53,.47,3.49,1.32c.14,.13,.32,.19,.5,.19,.21,0,.41-.08,.56-.25,.27-.31,.25-.78-.06-1.06-1.23-1.1-2.83-1.7-4.48-1.7Z"/><path d="M12,7.92c-2.54,0-5,.9-6.93,2.53-.32,.27-.36,.74-.09,1.06,.15,.17,.36,.27,.57,.27,.17,0,.34-.06,.48-.18,1.66-1.41,3.78-2.18,5.96-2.18s4.28,.77,5.95,2.16c.32,.27,.79,.23,1.06-.09,.27-.32,.23-.79-.09-1.06-1.93-1.62-4.39-2.52-6.91-2.52Z"/><path d="M21.48,7.7c-2.65-2.23-6.02-3.45-9.48-3.45s-6.83,1.23-9.48,3.45c-.32,.27-.36,.74-.09,1.06,.15,.18,.36,.27,.57,.27,.17,0,.34-.06,.48-.18,2.38-2,5.4-3.1,8.52-3.1s6.14,1.1,8.52,3.1c.32,.27,.79,.23,1.06-.09,.27-.32,.23-.79-.09-1.06Z"/></g></g><g id="f"/><g id="g"/><g id="h"/><g id="i"/><g id="j"/><g id="k"/><g id="l"/><g id="m"/><g id="n"/><g id="o"/><g id="p"/><g id="q"/><g id="r"/><g id="s"/><g id="t"/><g id="u"/></svg>