<?xml version="1.0" encoding="UTF-8"?><svg xmlns="http://www.w3.org/2000/svg" viewBox="0 0 24 24"><g id="a"/><g id="b"/><g id="c"/><g id="d"/><g id="e"/><g id="f"/><g id="g"/><g id="h"/><g id="i"/><g id="j"/><g id="k"/><g id="l"/><g id="m"/><g id="n"/><g id="o"/><g id="p"/><g id="q"><g><path d="M9.2,4.09c-.98-.67-2.15-.97-3.29-.83-1.4,.17-2.37,.94-2.94,1.56-.46,.5-.72,1.16-.72,1.86v1.98c0,1.48,1.13,2.68,2.56,2.75h.12c.33,0,.66-.03,.99-.1,.12-.03,.21,.02,.24,.05,.06,.05,.09,.11,.09,.19v4.73h4.5V7.13c0-1.24-.58-2.37-1.55-3.05Zm-2.45,3.91c0,.41-.34,.75-.75,.75s-.75-.34-.75-.75v-1c0-.41,.34-.75,.75-.75s.75,.34,.75,.75v1Z"/><path d="M6.25,18.5c0,1.24,1.01,2.25,2.25,2.25s2.25-1.01,2.25-2.25v-.75H6.25v.75Z"/><path d="M13.25,18.5c0,1.24,1.01,2.25,2.25,2.25s2.25-1.01,2.25-2.25v-.75h-4.5v.75Z"/><path d="M21.03,4.81c-.57-.62-1.54-1.38-2.94-1.55-1.14-.14-2.31,.16-3.29,.83-.97,.67-1.55,1.81-1.55,3.05v9.12h4.5v-4.73c0-.08,.03-.14,.09-.19,.03-.02,.12-.08,.24-.05,.32,.07,.65,.11,1,.1h.11c1.44-.07,2.56-1.28,2.56-2.75v-1.98c0-.69-.25-1.35-.72-1.86Zm-2.28,3.19c0,.41-.34,.75-.75,.75s-.75-.34-.75-.75v-1c0-.41,.34-.75,.75-.75s.75,.34,.75,.75v1Z"/></g></g><g id="r"/><g id="s"/><g id="t"/><g id="u"/></svg>