<?xml version="1.0" encoding="UTF-8"?><svg xmlns="http://www.w3.org/2000/svg" viewBox="0 0 24 24"><g id="a"/><g id="b"/><g id="c"/><g id="d"/><g id="e"/><g id="f"/><g id="g"/><g id="h"/><g id="i"/><g id="j"/><g id="k"/><g id="l"/><g id="m"><g><path d="M9.15,13.67c-.3,0-.6,.11-.83,.34s-.34,.52-.34,.83,.12,.61,.34,.83c.46,.46,1.21,.46,1.67,0,.22-.22,.34-.52,.34-.83s-.12-.61-.34-.83-.53-.34-.83-.34Z"/><path d="M21.27,4.09l-1.36-1.36c-.65-.65-1.78-.65-2.42,0l-1.08,1.08c-.32,.32-.5,.75-.5,1.21v1.36c0,.19,.04,.38,.1,.55l-2.96,2.96c-.4-.48-.77-.98-1.09-1.57-.33-.5-.53-1.03-.62-1.59-.05-.36-.05-.73,0-1.1,.04-.29-.09-.58-.34-.74-.25-.16-.57-.16-.81,0-.62,.41-1.14,.92-1.53,1.53-.45,.69-.72,1.48-.81,2.33-.05,.46-.32,.82-.7,.93-1.3,.39-2.51,.99-3.6,1.82-.71,.55-1.16,1.38-1.22,2.29-.06,.94,.29,1.87,.95,2.53l4.38,4.38c.62,.62,1.45,.96,2.32,.96,.07,0,.15,0,.22,0,.91-.06,1.74-.51,2.31-1.25,.81-1.06,1.41-2.26,1.8-3.57,.11-.38,.48-.65,.94-.7,.85-.09,1.63-.36,2.33-.81,.61-.4,1.13-.91,1.53-1.53,.16-.25,.16-.56,0-.81-.16-.25-.44-.38-.74-.34-.37,.05-.74,.05-1.1,0-.56-.08-1.09-.29-1.59-.62-.02-.01-.04-.02-.06-.03-.54-.29-1.04-.66-1.51-1.06l2.96-2.96c.17,.06,.36,.1,.55,.1h1.36c.46,0,.89-.18,1.21-.5l1.08-1.08c.67-.67,.67-1.75,0-2.42Zm-10.22,12.65c-.52,.52-1.21,.78-1.89,.78s-1.37-.26-1.89-.78c-.51-.51-.78-1.18-.78-1.89s.28-1.39,.78-1.89c1.04-1.04,2.74-1.04,3.79,0,.51,.51,.78,1.18,.78,1.89s-.28,1.39-.78,1.89Z"/></g></g><g id="n"/><g id="o"/><g id="p"/><g id="q"/><g id="r"/><g id="s"/><g id="t"/><g id="u"/></svg>