<?xml version="1.0" encoding="UTF-8"?><svg xmlns="http://www.w3.org/2000/svg" viewBox="0 0 24 24"><g id="a"/><g id="b"/><g id="c"/><g id="d"/><g id="e"/><g id="f"/><g id="g"/><g id="h"/><g id="i"/><g id="j"/><g id="k"/><g id="l"/><g id="m"/><g id="n"/><g id="o"/><g id="p"/><g id="q"/><g id="r"/><g id="s"/><g id="t"><g><path d="M13.25,2.36c-.41-.07-.82-.11-1.25-.11s-.84,.04-1.25,.11v3.89h2.5V2.36Z"/><path d="M12,17.25c1.79,0,3.25-1.46,3.25-3.25s-1.46-3.25-3.25-3.25-3.25,1.46-3.25,3.25,1.46,3.25,3.25,3.25Zm0-4h.01c.41,0,.75,.34,.75,.75s-.34,.75-.75,.75-.75-.34-.75-.75,.33-.75,.74-.75Z"/><path d="M13.25,9.44v-1.69h-2.5v1.69c.4-.11,.81-.19,1.25-.19s.85,.08,1.25,.19Z"/><path d="M20,20.25h-.25V10c0-3.3-2.08-6.12-5-7.24v3.49h.25c.41,0,.75,.34,.75,.75s-.34,.75-.75,.75h-.25v2.25s-.02,.08-.02,.12c1.22,.86,2.02,2.27,2.02,3.88,0,2.62-2.13,4.75-4.75,4.75s-4.75-2.13-4.75-4.75c0-1.6,.8-3.02,2.02-3.88,0-.04-.02-.08-.02-.12v-2.25h-.25c-.41,0-.75-.34-.75-.75s.34-.75,.75-.75h.25V2.76c-2.92,1.11-5,3.93-5,7.24v10.25h-.25c-.41,0-.75,.34-.75,.75s.34,.75,.75,.75H20c.41,0,.75-.34,.75-.75s-.34-.75-.75-.75Z"/></g></g><g id="u"/></svg>