<?xml version="1.0" encoding="UTF-8"?><svg xmlns="http://www.w3.org/2000/svg" viewBox="0 0 24 24"><g id="a"/><g id="b"/><g id="c"/><g id="d"/><g id="e"/><g id="f"/><g id="g"/><g id="h"/><g id="i"/><g id="j"/><g id="k"/><g id="l"/><g id="m"/><g id="n"/><g id="o"><path d="M12,2.25C6.62,2.25,2.25,6.62,2.25,12v4c0,1.52,1.23,2.75,2.75,2.75h1c.96,0,1.75-.79,1.75-1.75v-4c0-.96-.79-1.75-1.75-1.75h-1c-.44,0-.86,.12-1.23,.3,.23-4.34,3.83-7.8,8.23-7.8s7.99,3.46,8.23,7.8c-.37-.19-.78-.3-1.23-.3h-1c-.96,0-1.75,.79-1.75,1.75v4c0,.96,.79,1.75,1.75,1.75h1c.45,0,.87-.12,1.25-.31v.56c0,.69-.56,1.25-1.25,1.25h-4.17c-.33,0-.65-.13-.88-.37l-.39-.39c.26-.29,.26-.74-.02-1.02s-.77-.29-1.06,0l-1,1c-.29,.29-.29,.77,0,1.06,.15,.15,.34,.22,.53,.22,.18,0,.35-.07,.49-.2l.39,.39c.52,.52,1.21,.81,1.94,.81h4.17c1.52,0,2.75-1.23,2.75-2.75v-7c0-5.38-4.37-9.75-9.75-9.75Z"/></g><g id="p"/><g id="q"/><g id="r"/><g id="s"/><g id="t"/><g id="u"/></svg>