<?xml version="1.0" encoding="UTF-8"?><svg xmlns="http://www.w3.org/2000/svg" viewBox="0 0 24 24"><g id="a"/><g id="b"/><g id="c"/><g id="d"/><g id="e"/><g id="f"/><g id="g"/><g id="h"/><g id="i"/><g id="j"/><g id="k"/><g id="l"><path d="M21,4.25h-.63c-.76,0-1.49,.32-2,.89-.29,.32-.48,.7-.6,1.11h-2.02v-1.25c0-.41-.34-.75-.75-.75s-.75,.34-.75,.75v1.25h-1.5v-1.25c0-.41-.34-.75-.75-.75s-.75,.34-.75,.75v1.25h-1.5v-1.25c0-.41-.34-.75-.75-.75s-.75,.34-.75,.75v1.25h-2.02c-.11-.41-.31-.79-.6-1.11-.51-.56-1.24-.89-2-.89h-.63c-.41,0-.75,.34-.75,.75s.34,.75,.75,.75h.63c.34,0,.66,.14,.89,.39,.24,.26,.35,.62,.32,.99-.18,1.73-.03,3.44,.45,5.08,.09,.31,.19,.6,.29,.89,.58,1.56,1.84,2.74,3.39,3.3l-.91,1.82c-.27,.55-.24,1.18,.08,1.7s.88,.83,1.49,.83h4.76c.61,0,1.17-.31,1.49-.83s.35-1.16,.08-1.7l-.91-1.82c1.55-.56,2.81-1.74,3.39-3.3,.1-.28,.2-.58,.29-.89,.47-1.64,.63-3.35,.45-5.08-.04-.36,.08-.72,.32-.99,.23-.25,.54-.39,.89-.39h.63c.41,0,.75-.34,.75-.75s-.34-.75-.75-.75Zm-6.75,3.5v7.25s.01,.05,.02,.08c-.38,.11-.78,.17-1.19,.17h-.32V7.75h1.5Zm-3,0v7.5h-.32c-.41,0-.81-.06-1.19-.17,0-.03,.02-.05,.02-.08V7.75h1.5Zm-4.27,4.83c-.09-.25-.18-.51-.26-.79-.38-1.3-.51-2.66-.42-4.04h1.95v6.56c-.56-.45-1.01-1.04-1.27-1.73Zm10.3-.79c-.08,.27-.17,.54-.26,.79-.26,.69-.71,1.28-1.27,1.73V7.75h1.95c.09,1.38-.04,2.74-.42,4.04Z"/></g><g id="m"/><g id="n"/><g id="o"/><g id="p"/><g id="q"/><g id="r"/><g id="s"/><g id="t"/><g id="u"/></svg>