<?xml version="1.0" encoding="UTF-8"?><svg xmlns="http://www.w3.org/2000/svg" viewBox="0 0 24 24"><g id="a"/><g id="b"/><g id="c"/><g id="d"/><g id="e"/><g id="f"/><g id="g"/><g id="h"/><g id="i"/><g id="j"><g><path d="M11.93,3.93l-2.83,2.83c-.14,.14-.24,.29-.36,.44l3.86,.77c.35,.07,.6,.38,.6,.74v2.08h2.08c.36,0,.67,.25,.74,.6l.77,3.86c.15-.12,.3-.22,.44-.36l2.83-2.83c.06-.06,.1-.13,.16-.19L12.13,3.77c-.06,.06-.13,.1-.19,.16Z"/><path d="M20.07,3.93c-1.09-1.09-2.53-1.68-4.07-1.68-.93,0-1.81,.24-2.62,.66l7.71,7.71c.41-.8,.66-1.69,.66-2.62,0-1.54-.6-2.98-1.68-4.07Z"/><path d="M12.46,12.29c-.41,0-.75-.34-.75-.75v-2.21l-3.82-.76c-.3,.71-.47,1.48-.47,2.27,0,1.54,.6,2.98,1.68,4.07s2.59,1.68,4.07,1.68c.77,0,1.55-.16,2.27-.48l-.76-3.82h-2.21Z"/><path d="M6.48,13.63l-3.74,3.74c-.52,.52-.81,1.21-.81,1.94s.29,1.43,.81,1.94c.54,.54,1.24,.8,1.94,.8s1.41-.27,1.94-.8l3.74-3.74c-.86-.36-1.65-.88-2.33-1.56-.68-.68-1.2-1.47-1.56-2.33Z"/></g></g><g id="k"/><g id="l"/><g id="m"/><g id="n"/><g id="o"/><g id="p"/><g id="q"/><g id="r"/><g id="s"/><g id="t"/><g id="u"/></svg>