<?xml version="1.0" encoding="UTF-8"?><svg xmlns="http://www.w3.org/2000/svg" viewBox="0 0 24 24"><g id="a"/><g id="b"/><g id="c"/><g id="d"/><g id="e"/><g id="f"/><g id="g"/><g id="h"/><g id="i"/><g id="j"/><g id="k"/><g id="l"/><g id="m"/><g id="n"/><g id="o"/><g id="p"><g><path d="M8.25,12c0,2.07,1.68,3.75,3.75,3.75s3.75-1.68,3.75-3.75V4.65c1.02,.52,1.94,1.27,2.67,2.17,.26,.32,.73,.37,1.05,.11,.32-.26,.37-.73,.11-1.05-.95-1.18-2.18-2.13-3.55-2.75-.4-.18-.85-.15-1.21,.09-.36,.23-.57,.62-.57,1.05v4.77c-.63-.48-1.4-.77-2.25-.77-2.07,0-3.75,1.68-3.75,3.75Z"/><path d="M20.76,7.74c-.1,.13-.21,.25-.34,.35-.4,.32-.9,.5-1.41,.5-.68,0-1.32-.31-1.75-.84v4.24c0,2.9-2.35,5.25-5.25,5.25s-5.25-2.35-5.25-5.25,2.35-5.25,5.25-5.25c.25,0,.5,.02,.75,.05v-2.55c0-.71,.27-1.37,.74-1.88-.49-.08-.98-.13-1.49-.13C6.62,2.25,2.25,6.62,2.25,12s4.37,9.75,9.75,9.75,9.75-4.37,9.75-9.75c0-1.53-.36-2.97-.99-4.26Z"/></g></g><g id="q"/><g id="r"/><g id="s"/><g id="t"/><g id="u"/></svg>