<?xml version="1.0" encoding="UTF-8"?><svg xmlns="http://www.w3.org/2000/svg" viewBox="0 0 24 24"><g id="a"/><g id="b"/><g id="c"/><g id="d"><g><path d="M2.7,16.57c.1,.04,.2,.06,.3,.06,.19,0,.37-.07,.51-.2L16.12,4.55c.17-.16,.26-.39,.23-.63-.03-.23-.16-.44-.36-.56-1.2-.72-2.58-1.11-3.99-1.11-4.27,0-7.75,3.48-7.75,7.75v1.05c0,1.06-.41,2.05-1.16,2.8-.53,.53-.84,1.27-.84,2.03,0,.3,.18,.57,.45,.69Z"/><path d="M19.75,11.05v-1.05c0-1.31-.34-2.58-.97-3.72l2.75-2.75c.29-.29,.29-.77,0-1.06s-.77-.29-1.06,0L5.47,17.47l-3,3c-.29,.29-.29,.77,0,1.06,.15,.15,.34,.22,.53,.22s.38-.07,.53-.22l2.78-2.78h12.57c1.58,0,2.87-1.29,2.87-2.87,0-.76-.31-1.5-.84-2.03-.75-.75-1.16-1.74-1.16-2.8Z"/><path d="M15,20.25h-6c-.41,0-.75,.34-.75,.75s.34,.75,.75,.75h6c.41,0,.75-.34,.75-.75s-.34-.75-.75-.75Z"/></g></g><g id="e"/><g id="f"/><g id="g"/><g id="h"/><g id="i"/><g id="j"/><g id="k"/><g id="l"/><g id="m"/><g id="n"/><g id="o"/><g id="p"/><g id="q"/><g id="r"/><g id="s"/><g id="t"/><g id="u"/></svg>