<?xml version="1.0" encoding="UTF-8"?><svg xmlns="http://www.w3.org/2000/svg" viewBox="0 0 24 24"><g id="a"/><g id="b"/><g id="c"/><g id="d"/><g id="e"/><g id="f"><g><path d="M4,12c0-2.76,2.24-5,5-5h3.59l-.29,.29c-.39,.39-.39,1.02,0,1.41,.2,.2,.45,.29,.71,.29s.51-.1,.71-.29l2-2c.09-.09,.17-.2,.22-.33,.1-.24,.1-.52,0-.76-.05-.12-.12-.23-.22-.33l-2-2c-.39-.39-1.02-.39-1.41,0s-.39,1.02,0,1.41l.29,.29h-3.59c-3.86,0-7,3.14-7,7,0,2.35,1.17,4.53,3.13,5.83,.17,.11,.36,.17,.55,.17,.32,0,.64-.16,.83-.45,.31-.46,.18-1.08-.28-1.39-1.4-.93-2.24-2.49-2.24-4.17Z"/><path d="M18.87,6.17c-.46-.31-1.08-.18-1.39,.28-.31,.46-.18,1.08,.28,1.39,1.4,.93,2.24,2.49,2.24,4.17,0,2.76-2.24,5-5,5h-3.59l.29-.29c.39-.39,.39-1.02,0-1.41s-1.02-.39-1.41,0l-2,2c-.09,.09-.17,.2-.22,.33-.1,.24-.1,.52,0,.76,.05,.12,.12,.23,.22,.33l2,2c.2,.2,.45,.29,.71,.29s.51-.1,.71-.29c.39-.39,.39-1.02,0-1.41l-.29-.29h3.59c3.86,0,7-3.14,7-7,0-2.35-1.17-4.53-3.13-5.83Z"/></g></g><g id="g"/><g id="h"/><g id="i"/><g id="j"/><g id="k"/><g id="l"/><g id="m"/><g id="n"/><g id="o"/><g id="p"/><g id="q"/><g id="r"/><g id="s"/><g id="t"/><g id="u"/></svg>