<?xml version="1.0" encoding="UTF-8"?><svg xmlns="http://www.w3.org/2000/svg" viewBox="0 0 24 24"><g id="a"/><g id="b"/><g id="c"/><g id="d"/><g id="e"/><g id="f"/><g id="g"/><g id="h"/><g id="i"><g><circle cx="12" cy="12" r="2.75"/><path d="M7.75,12c0-1.35,.62-2.59,1.7-3.4,.33-.25,.4-.72,.15-1.05s-.72-.4-1.05-.15c-1.46,1.1-2.3,2.77-2.3,4.6s.84,3.5,2.3,4.6c.13,.1,.29,.15,.45,.15,.23,0,.45-.1,.6-.3,.25-.33,.18-.8-.15-1.05-1.08-.81-1.7-2.05-1.7-3.4Z"/><path d="M15.45,7.4c-.33-.25-.8-.18-1.05,.15-.25,.33-.18,.8,.15,1.05,1.08,.81,1.7,2.05,1.7,3.4s-.62,2.59-1.7,3.4c-.33,.25-.4,.72-.15,1.05,.15,.2,.37,.3,.6,.3,.16,0,.31-.05,.45-.15,1.46-1.1,2.3-2.77,2.3-4.6s-.84-3.5-2.3-4.6Z"/><path d="M3.75,12c0-2.34,1-4.58,2.75-6.15,.31-.28,.33-.75,.06-1.06-.28-.31-.75-.34-1.06-.06-2.06,1.85-3.25,4.5-3.25,7.27s1.18,5.42,3.25,7.27c.14,.13,.32,.19,.5,.19,.21,0,.41-.08,.56-.25,.28-.31,.25-.78-.06-1.06-1.75-1.56-2.75-3.81-2.75-6.15Z"/><path d="M18.5,4.73c-.31-.28-.78-.25-1.06,.06-.28,.31-.25,.78,.06,1.06,1.75,1.56,2.75,3.81,2.75,6.15s-1,4.58-2.75,6.15c-.31,.28-.33,.75-.06,1.06,.15,.17,.35,.25,.56,.25,.18,0,.36-.06,.5-.19,2.07-1.85,3.25-4.5,3.25-7.27s-1.18-5.42-3.25-7.27Z"/></g></g><g id="j"/><g id="k"/><g id="l"/><g id="m"/><g id="n"/><g id="o"/><g id="p"/><g id="q"/><g id="r"/><g id="s"/><g id="t"/><g id="u"/></svg>