<?xml version="1.0" encoding="UTF-8"?><svg xmlns="http://www.w3.org/2000/svg" viewBox="0 0 24 24"><g id="a"/><g id="b"><g><path d="M12.66,7.3c-.29,.29-.29,.77,0,1.06l2.83,2.83c.14,.14,.33,.22,.53,.22s.39-.08,.53-.22l2.3-2.3-3.89-3.89-2.3,2.3Z"/><path d="M20.79,3.06c-1.07-1.07-2.82-1.07-3.89,0l-.88,.88,3.89,3.89,.88-.88c1.07-1.07,1.07-2.82,0-3.89Z"/><path d="M14.43,12.25l-2.83-2.83c-.5-.5-.71-1.18-.63-1.84l-5.38,5.38c-1.28,1.28-1.44,3.28-.47,4.73l-2.67,2.8c-.29,.3-.27,.77,.03,1.06,.15,.14,.33,.21,.52,.21,.2,0,.4-.08,.54-.23l2.65-2.77c.62,.41,1.34,.61,2.05,.61,.96,0,1.92-.37,2.65-1.1l5.37-5.37c-.08,0-.16,.02-.25,.02-.6,0-1.17-.23-1.59-.66Z"/></g></g><g id="c"/><g id="d"/><g id="e"/><g id="f"/><g id="g"/><g id="h"/><g id="i"/><g id="j"/><g id="k"/><g id="l"/><g id="m"/><g id="n"/><g id="o"/><g id="p"/><g id="q"/><g id="r"/><g id="s"/><g id="t"/><g id="u"/></svg>