<?xml version="1.0" encoding="UTF-8"?><svg xmlns="http://www.w3.org/2000/svg" viewBox="0 0 24 24"><g id="a"/><g id="b"/><g id="c"/><g id="d"/><g id="e"/><g id="f"/><g id="g"/><g id="h"/><g id="i"/><g id="j"/><g id="k"/><g id="l"/><g id="m"/><g id="n"/><g id="o"/><g id="p"/><g id="q"/><g id="r"/><g id="s"><g><path d="M14.75,8.78v-.78c0-.41-.34-.75-.75-.75s-.75,.34-.75,.75v.33c-.25-.04-.49-.08-.75-.08h-.75v-.25c0-.41-.34-.75-.75-.75s-.75,.34-.75,.75v.25h-1.5v-.25c0-.41-.34-.75-.75-.75s-.75,.34-.75,.75v.25H3.75v-.25c0-.41-.34-.75-.75-.75s-.75,.34-.75,.75v5c0,.41,.34,.75,.75,.75s.75-.34,.75-.75v-.25h1.5v1.25c0,2.62,2.13,4.75,4.75,4.75h2.5c2.89,0,5.25-2.35,5.25-5.25,0-2.09-1.23-3.88-3-4.72Zm-2.25,5.47h-2c-.35,0-.66-.25-.73-.6,0-.04-.03-.08-.05-.12v-.79h2.78c.41,0,.75,.34,.75,.75s-.34,.75-.75,.75Z"/><path d="M21.29,5.31c-.28-.12-.6-.05-.82,.16l-2.41,2.41c-.23,.23-.55,.37-.88,.37h-.44c1.53,1.24,2.52,3.13,2.52,5.25,0,.26-.02,.51-.05,.76l1.27,1.27c.14,.14,.33,.22,.53,.22,.1,0,.19-.02,.29-.06,.28-.12,.46-.39,.46-.69V6c0-.3-.18-.58-.46-.69Z"/></g></g><g id="t"/><g id="u"/></svg>