<?xml version="1.0" encoding="UTF-8"?><svg xmlns="http://www.w3.org/2000/svg" viewBox="0 0 24 24"><defs><style>.v{fill:#231f20;}</style></defs><g id="a"/><g id="b"/><g id="c"/><g id="d"/><g id="e"/><g id="f"/><g id="g"/><g id="h"/><g id="i"><g><path class="v" d="M12,12.75c2.07,0,3.75-1.68,3.75-3.75s-1.68-3.75-3.75-3.75-3.75,1.68-3.75,3.75,1.68,3.75,3.75,3.75Zm0-6c1.24,0,2.25,1.01,2.25,2.25s-1.01,2.25-2.25,2.25-2.25-1.01-2.25-2.25,1.01-2.25,2.25-2.25Z"/><path class="v" d="M19.42,18.31c1.45-1.7,2.33-3.91,2.33-6.31,0-5.38-4.37-9.75-9.75-9.75S2.25,6.62,2.25,12c0,2.41,.88,4.61,2.33,6.31,.06,.12,.16,.22,.27,.3,1.78,1.92,4.32,3.14,7.14,3.14s5.36-1.21,7.14-3.14c.12-.08,.22-.18,.27-.3ZM12,3.75c4.55,0,8.25,3.7,8.25,8.25,0,1.7-.52,3.28-1.4,4.6-1.32-2.01-3.94-3.35-6.85-3.35s-5.53,1.33-6.85,3.35c-.89-1.31-1.4-2.9-1.4-4.6C3.75,7.45,7.45,3.75,12,3.75Zm-5.83,14.08c.91-1.83,3.22-3.08,5.83-3.08s4.92,1.25,5.83,3.08c-1.49,1.49-3.55,2.42-5.83,2.42s-4.33-.92-5.83-2.42Z"/></g></g><g id="j"/><g id="k"/><g id="l"/><g id="m"/><g id="n"/><g id="o"/><g id="p"/><g id="q"/><g id="r"/><g id="s"/><g id="t"/><g id="u"/></svg>