<?xml version="1.0" encoding="UTF-8"?><svg xmlns="http://www.w3.org/2000/svg" viewBox="0 0 24 24"><defs><style>.v{fill:#231f20;}</style></defs><g id="a"/><g id="b"/><g id="c"><g><path class="v" d="M19.92,8.21l-5-3.89c-1.72-1.34-4.12-1.34-5.83,0l-5,3.89c-1.17,.91-1.83,2.27-1.83,3.75v5.04c0,2.62,2.13,4.75,4.75,4.75h10c2.62,0,4.75-2.13,4.75-4.75v-5.04c0-1.48-.67-2.84-1.83-3.75Zm.33,8.79c0,1.79-1.46,3.25-3.25,3.25H7c-1.79,0-3.25-1.46-3.25-3.25v-5.04c0-1.01,.46-1.94,1.25-2.57l5-3.89c.59-.46,1.29-.69,2-.69s1.41,.23,2,.69l5,3.89c.8,.62,1.25,1.56,1.25,2.57v5.04Z"/><path class="v" d="M12,14.75c2.07,0,3.75-1.68,3.75-3.75s-1.68-3.75-3.75-3.75-3.75,1.68-3.75,3.75,1.68,3.75,3.75,3.75Zm0-6c1.24,0,2.25,1.01,2.25,2.25s-1.01,2.25-2.25,2.25-2.25-1.01-2.25-2.25,1.01-2.25,2.25-2.25Z"/><path class="v" d="M14.84,15.25h-5.68c-1.62,0-3.05,1.03-3.56,2.56-.13,.39,.08,.82,.47,.95,.4,.13,.82-.08,.95-.47,.31-.92,1.16-1.54,2.13-1.54h5.68c.97,0,1.83,.62,2.13,1.54,.11,.31,.4,.51,.71,.51,.08,0,.16-.01,.24-.04,.39-.13,.61-.56,.47-.95-.51-1.53-1.94-2.56-3.56-2.56Z"/></g></g><g id="d"/><g id="e"/><g id="f"/><g id="g"/><g id="h"/><g id="i"/><g id="j"/><g id="k"/><g id="l"/><g id="m"/><g id="n"/><g id="o"/><g id="p"/><g id="q"/><g id="r"/><g id="s"/><g id="t"/><g id="u"/></svg>