<?xml version="1.0" encoding="UTF-8"?><svg xmlns="http://www.w3.org/2000/svg" viewBox="0 0 24 24"><defs><style>.v{fill:#231f20;}</style></defs><g id="a"/><g id="b"/><g id="c"/><g id="d"/><g id="e"/><g id="f"/><g id="g"/><g id="h"/><g id="i"/><g id="j"/><g id="k"/><g id="l"><g><path class="v" d="M15,4.25h-.25v-.25c0-.96-.79-1.75-1.75-1.75h-2c-.96,0-1.75,.79-1.75,1.75v.25h-.25c-2.07,0-3.75,1.68-3.75,3.75v10c0,2.07,1.68,3.75,3.75,3.75h6c2.07,0,3.75-1.68,3.75-3.75V8c0-2.07-1.68-3.75-3.75-3.75Zm-4.25-.25c0-.14,.11-.25,.25-.25h2c.14,0,.25,.11,.25,.25v1.25h-2.5v-1.25Zm6.5,14c0,1.24-1.01,2.25-2.25,2.25h-6c-1.24,0-2.25-1.01-2.25-2.25V8c0-1.24,1.01-2.25,2.25-2.25h.25v.25c0,.41,.34,.75,.75,.75h4c.41,0,.75-.34,.75-.75v-.25h.25c1.24,0,2.25,1.01,2.25,2.25v10Z"/><path class="v" d="M12,13.75c1.52,0,2.75-1.23,2.75-2.75s-1.23-2.75-2.75-2.75-2.75,1.23-2.75,2.75,1.23,2.75,2.75,2.75Zm0-4c.69,0,1.25,.56,1.25,1.25s-.56,1.25-1.25,1.25-1.25-.56-1.25-1.25,.56-1.25,1.25-1.25Z"/><path class="v" d="M15.22,15.77c-.47-.94-1.41-1.52-2.46-1.52h-1.53c-1.05,0-1.99,.58-2.46,1.52l-.45,.89c-.19,.37-.04,.82,.34,1.01,.37,.19,.82,.03,1.01-.34l.45-.89c.21-.43,.64-.69,1.12-.69h1.53c.48,0,.91,.26,1.12,.69l.45,.89c.13,.26,.4,.41,.67,.41,.11,0,.23-.03,.33-.08,.37-.19,.52-.64,.34-1.01l-.45-.89Z"/></g></g><g id="m"/><g id="n"/><g id="o"/><g id="p"/><g id="q"/><g id="r"/><g id="s"/><g id="t"/><g id="u"/></svg>