<?xml version="1.0" encoding="UTF-8"?><svg xmlns="http://www.w3.org/2000/svg" viewBox="0 0 24 24"><defs><style>.v{fill:#231f20;}</style></defs><g id="a"/><g id="b"/><g id="c"/><g id="d"/><g id="e"><g><path class="v" d="M21,15.25h-.25V7.12c0-1.58-1.29-2.87-2.87-2.87H6.12c-1.58,0-2.87,1.29-2.87,2.87V15.25h-.25c-.41,0-.75,.34-.75,.75v.88c0,1.58,1.29,2.87,2.87,2.87h13.76c1.58,0,2.87-1.29,2.87-2.87v-.88c0-.41-.34-.75-.75-.75ZM4.75,7.12c0-.75,.61-1.37,1.37-1.37h11.76c.75,0,1.37,.61,1.37,1.37V15.25h-4.84c-.47,0-.91,.18-1.24,.51l-.41,.41s-.11,.07-.18,.07h-2.17c-.07,0-.13-.03-.18-.07l-.41-.41c-.33-.33-.77-.51-1.24-.51h-3.84V7.12Zm15.5,9.77c0,.75-.61,1.37-1.37,1.37H5.12c-.75,0-1.37-.61-1.37-1.37v-.13h4.84c.07,0,.13,.03,.18,.07l.41,.41c.33,.33,.77,.51,1.24,.51h2.17c.47,0,.91-.18,1.24-.51l.41-.41s.11-.07,.18-.07h5.84v.13Z"/><path class="v" d="M9.75,14c0-1.24,1.01-2.25,2.25-2.25s2.25,1.01,2.25,2.25c0,.41,.34,.75,.75,.75s.75-.34,.75-.75c0-1.32-.69-2.48-1.73-3.15,.45-.49,.73-1.14,.73-1.85,0-1.52-1.23-2.75-2.75-2.75s-2.75,1.23-2.75,2.75c0,.72,.28,1.36,.73,1.85-1.04,.67-1.73,1.83-1.73,3.15,0,.41,.34,.75,.75,.75s.75-.34,.75-.75Zm1-5c0-.69,.56-1.25,1.25-1.25s1.25,.56,1.25,1.25-.56,1.25-1.25,1.25-1.25-.56-1.25-1.25Z"/></g></g><g id="f"/><g id="g"/><g id="h"/><g id="i"/><g id="j"/><g id="k"/><g id="l"/><g id="m"/><g id="n"/><g id="o"/><g id="p"/><g id="q"/><g id="r"/><g id="s"/><g id="t"/><g id="u"/></svg>