<?xml version="1.0" encoding="UTF-8"?><svg xmlns="http://www.w3.org/2000/svg" viewBox="0 0 24 24"><defs><style>.v{fill:#231f20;}</style></defs><g id="a"/><g id="b"/><g id="c"/><g id="d"/><g id="e"/><g id="f"/><g id="g"/><g id="h"><g><path class="v" d="M11,12.75c2.62,0,4.75-2.13,4.75-4.75s-2.13-4.75-4.75-4.75-4.75,2.13-4.75,4.75,2.13,4.75,4.75,4.75Zm0-8c1.79,0,3.25,1.46,3.25,3.25s-1.46,3.25-3.25,3.25-3.25-1.46-3.25-3.25,1.46-3.25,3.25-3.25Z"/><path class="v" d="M21,12.81l-1.09-1.09c-.76-.76-2.01-.77-2.78,0l-2.55,2.55s-.06-.02-.09-.02h-6.48c-2.58,0-4.82,1.75-5.44,4.25l-.29,1.18c-.1,.4,.14,.81,.55,.91,.06,.02,.12,.02,.18,.02,.34,0,.64-.23,.73-.57l.29-1.18c.46-1.83,2.1-3.11,3.98-3.11h5.09c-.28,.28-.46,.63-.54,1.02l-.58,3.09c-.05,.24,.03,.5,.21,.67,.14,.14,.33,.22,.53,.22,.05,0,.09,0,.14-.01l3.09-.58c.39-.07,.74-.26,1.02-.54l4.02-4.02c.77-.77,.77-2.01,0-2.78Zm-1.06,1.72l-4.02,4.02c-.07,.07-.15,.11-.24,.13h0l-2.01,.38,.38-2.02c.02-.09,.06-.17,.13-.24l4.02-4.02c.09-.09,.21-.14,.33-.14s.24,.04,.33,.14l1.09,1.09c.18,.18,.18,.48,0,.66Z"/></g></g><g id="i"/><g id="j"/><g id="k"/><g id="l"/><g id="m"/><g id="n"/><g id="o"/><g id="p"/><g id="q"/><g id="r"/><g id="s"/><g id="t"/><g id="u"/></svg>