<?xml version="1.0" encoding="UTF-8"?><svg xmlns="http://www.w3.org/2000/svg" viewBox="0 0 24 24"><defs><style>.v{fill:#231f20;}</style></defs><g id="a"/><g id="b"/><g id="c"/><g id="d"/><g id="e"/><g id="f"/><g id="g"/><g id="h"/><g id="i"/><g id="j"/><g id="k"/><g id="l"/><g id="m"/><g id="n"><g><path class="v" d="M12,7.75c1.52,0,2.75-1.23,2.75-2.75s-1.23-2.75-2.75-2.75-2.75,1.23-2.75,2.75,1.23,2.75,2.75,2.75Zm0-4c.69,0,1.25,.56,1.25,1.25s-.56,1.25-1.25,1.25-1.25-.56-1.25-1.25,.56-1.25,1.25-1.25Z"/><path class="v" d="M7.66,11.67c.37,.19,.82,.04,1.01-.34l.45-.89c.21-.43,.64-.69,1.12-.69h3.53c.48,0,.91,.26,1.12,.69l.45,.89c.13,.26,.4,.41,.67,.41,.11,0,.23-.03,.33-.08,.37-.19,.52-.64,.34-1.01l-.45-.89c-.47-.94-1.41-1.52-2.46-1.52h-3.53c-1.05,0-1.99,.58-2.46,1.52l-.45,.89c-.19,.37-.04,.82,.34,1.01Z"/><path class="v" d="M17,12.25H7c-.96,0-1.75,.79-1.75,1.75v1c0,.74,.46,1.37,1.11,1.62l.74,3.72c.16,.81,.88,1.41,1.72,1.41h6.36c.83,0,1.55-.59,1.72-1.41l.74-3.72c.65-.26,1.11-.89,1.11-1.62v-1c0-.96-.79-1.75-1.75-1.75Zm-10.25,1.75c0-.14,.11-.25,.25-.25h10c.14,0,.25,.11,.25,.25v1c0,.14-.11,.25-.25,.25H7c-.14,0-.25-.11-.25-.25v-1Zm8.68,6.05c-.02,.12-.13,.2-.25,.2h-6.36c-.12,0-.22-.08-.25-.2l-.66-3.3h8.17l-.66,3.3Z"/></g></g><g id="o"/><g id="p"/><g id="q"/><g id="r"/><g id="s"/><g id="t"/><g id="u"/></svg>