<?xml version="1.0" encoding="UTF-8"?><svg xmlns="http://www.w3.org/2000/svg" viewBox="0 0 24 24"><defs><style>.v{fill:#231f20;}</style></defs><g id="a"/><g id="b"/><g id="c"/><g id="d"/><g id="e"/><g id="f"/><g id="g"/><g id="h"/><g id="i"/><g id="j"/><g id="k"><g><path class="v" d="M16,2.25H8c-3.17,0-5.75,2.58-5.75,5.75v8c0,3.17,2.58,5.75,5.75,5.75h8c3.17,0,5.75-2.58,5.75-5.75V8c0-3.17-2.58-5.75-5.75-5.75Zm4.25,13.75c0,2.34-1.91,4.25-4.25,4.25H8c-2.34,0-4.25-1.91-4.25-4.25V8c0-2.34,1.91-4.25,4.25-4.25h8c2.34,0,4.25,1.91,4.25,4.25v8Z"/><path class="v" d="M12,12.75c2.07,0,3.75-1.68,3.75-3.75s-1.68-3.75-3.75-3.75-3.75,1.68-3.75,3.75,1.68,3.75,3.75,3.75Zm0-6c1.24,0,2.25,1.01,2.25,2.25s-1.01,2.25-2.25,2.25-2.25-1.01-2.25-2.25,1.01-2.25,2.25-2.25Z"/><path class="v" d="M18.49,16.88c-.53-2.14-2.45-3.63-4.65-3.63h-3.69c-2.2,0-4.12,1.49-4.65,3.63l-.23,.94c-.1,.4,.14,.81,.55,.91,.41,.1,.81-.14,.91-.55l.23-.94c.37-1.47,1.68-2.49,3.19-2.49h3.69c1.51,0,2.83,1.03,3.19,2.49l.23,.94c.08,.34,.39,.57,.73,.57,.06,0,.12,0,.18-.02,.4-.1,.65-.51,.55-.91l-.23-.94Z"/></g></g><g id="l"/><g id="m"/><g id="n"/><g id="o"/><g id="p"/><g id="q"/><g id="r"/><g id="s"/><g id="t"/><g id="u"/></svg>