<?xml version="1.0" encoding="UTF-8"?><svg xmlns="http://www.w3.org/2000/svg" viewBox="0 0 24 24"><defs><style>.v{fill:#231f20;}</style></defs><g id="a"/><g id="b"/><g id="c"/><g id="d"/><g id="e"/><g id="f"/><g id="g"/><g id="h"/><g id="i"/><g id="j"/><g id="k"/><g id="l"/><g id="m"/><g id="n"/><g id="o"><g><path class="v" d="M18,2.25H6c-2.07,0-3.75,1.68-3.75,3.75V14c0,2.07,1.68,3.75,3.75,3.75h1.5c.7,0,1.38,.34,1.8,.9l1.3,1.73c.33,.45,.84,.7,1.4,.7s1.07-.26,1.4-.7l1.3-1.73c.42-.56,1.1-.9,1.8-.9h1.5c2.07,0,3.75-1.68,3.75-3.75V6c0-2.07-1.68-3.75-3.75-3.75Zm2.25,11.75c0,1.24-1.01,2.25-2.25,2.25h-1.5c-1.17,0-2.3,.56-3,1.5l-1.3,1.73c-.13,.17-.27,.17-.4,0l-1.3-1.73c-.7-.94-1.83-1.5-3-1.5h-1.5c-1.24,0-2.25-1.01-2.25-2.25V6c0-1.24,1.01-2.25,2.25-2.25h12c1.24,0,2.25,1.01,2.25,2.25V14Z"/><path class="v" d="M12,10.75c1.52,0,2.75-1.23,2.75-2.75s-1.23-2.75-2.75-2.75-2.75,1.23-2.75,2.75,1.23,2.75,2.75,2.75Zm0-4c.69,0,1.25,.56,1.25,1.25s-.56,1.25-1.25,1.25-1.25-.56-1.25-1.25,.56-1.25,1.25-1.25Z"/><path class="v" d="M16.22,12.77c-.47-.94-1.41-1.52-2.46-1.52h-3.53c-1.05,0-1.99,.58-2.46,1.52l-.45,.89c-.19,.37-.04,.82,.34,1.01,.37,.19,.82,.03,1.01-.34l.45-.89c.21-.43,.64-.69,1.12-.69h3.53c.48,0,.9,.26,1.12,.69l.45,.89c.13,.26,.4,.41,.67,.41,.11,0,.23-.03,.33-.08,.37-.19,.52-.64,.34-1.01l-.45-.89Z"/></g></g><g id="p"/><g id="q"/><g id="r"/><g id="s"/><g id="t"/><g id="u"/></svg>