<?xml version="1.0" encoding="UTF-8"?><svg xmlns="http://www.w3.org/2000/svg" viewBox="0 0 24 24"><defs><style>.v{fill:#231f20;}</style></defs><g id="a"/><g id="b"/><g id="c"/><g id="d"/><g id="e"/><g id="f"/><g id="g"><g><path class="v" d="M21,11.25h-.29c-.36-4.23-3.74-7.6-7.96-7.96v-.29c0-.41-.34-.75-.75-.75s-.75,.34-.75,.75v.29c-4.23,.36-7.6,3.74-7.96,7.96h-.29c-.41,0-.75,.34-.75,.75s.34,.75,.75,.75h.29c.36,4.23,3.74,7.6,7.96,7.96v.29c0,.41,.34,.75,.75,.75s.75-.34,.75-.75v-.29c4.23-.36,7.6-3.74,7.96-7.96h.29c.41,0,.75-.34,.75-.75s-.34-.75-.75-.75Zm-8.25,7.96v-.21c0-.41-.34-.75-.75-.75s-.75,.34-.75,.75v.21c-3.4-.35-6.11-3.06-6.46-6.46h.21c.41,0,.75-.34,.75-.75s-.34-.75-.75-.75h-.21c.35-3.4,3.06-6.11,6.46-6.46v.21c0,.41,.34,.75,.75,.75s.75-.34,.75-.75v-.21c3.4,.35,6.11,3.06,6.46,6.46h-.21c-.41,0-.75,.34-.75,.75s.34,.75,.75,.75h.21c-.35,3.4-3.06,6.11-6.46,6.46Z"/><path class="v" d="M12,12.75c1.52,0,2.75-1.23,2.75-2.75s-1.23-2.75-2.75-2.75-2.75,1.23-2.75,2.75,1.23,2.75,2.75,2.75Zm0-4c.69,0,1.25,.56,1.25,1.25s-.56,1.25-1.25,1.25-1.25-.56-1.25-1.25,.56-1.25,1.25-1.25Z"/><path class="v" d="M15.18,14.69c-.44-.89-1.34-1.44-2.33-1.44h-1.7c-1,0-1.89,.55-2.33,1.44l-.49,.97c-.19,.37-.04,.82,.33,1.01,.38,.19,.82,.04,1.01-.33l.49-.97c.19-.38,.57-.61,.99-.61h1.7c.42,0,.8,.24,.99,.61l.49,.97c.13,.26,.4,.41,.67,.41,.11,0,.23-.03,.33-.08,.37-.19,.52-.64,.33-1.01l-.49-.97Z"/></g></g><g id="h"/><g id="i"/><g id="j"/><g id="k"/><g id="l"/><g id="m"/><g id="n"/><g id="o"/><g id="p"/><g id="q"/><g id="r"/><g id="s"/><g id="t"/><g id="u"/></svg>