<?xml version="1.0" encoding="UTF-8"?><svg xmlns="http://www.w3.org/2000/svg" viewBox="0 0 24 24"><defs><style>.v{fill:#231f20;}</style></defs><g id="a"/><g id="b"/><g id="c"/><g id="d"/><g id="e"/><g id="f"/><g id="g"/><g id="h"/><g id="i"/><g id="j"/><g id="k"/><g id="l"/><g id="m"/><g id="n"/><g id="o"/><g id="p"><g><path class="v" d="M12,7.75c1.52,0,2.75-1.23,2.75-2.75s-1.23-2.75-2.75-2.75-2.75,1.23-2.75,2.75,1.23,2.75,2.75,2.75Zm0-4c.69,0,1.25,.56,1.25,1.25s-.56,1.25-1.25,1.25-1.25-.56-1.25-1.25,.56-1.25,1.25-1.25Z"/><path class="v" d="M16.59,14.83l-.6-4.22c-.19-1.35-1.36-2.36-2.72-2.36h-2.53c-1.36,0-2.53,1.02-2.72,2.36l-.6,4.22c-.07,.48,.07,.97,.39,1.34,.32,.37,.78,.58,1.27,.58,.1,0,.18,.08,.18,.18v3.07c0,.96,.79,1.75,1.75,1.75h2c.96,0,1.75-.79,1.75-1.75v-3.07c0-.1,.08-.18,.18-.18,.49,0,.95-.21,1.27-.58,.32-.37,.46-.86,.39-1.34Zm-1.53,.35s-.07,.06-.14,.06c-.93,0-1.68,.75-1.68,1.68v3.07c0,.14-.11,.25-.25,.25h-2c-.14,0-.25-.11-.25-.25v-3.07c0-.93-.75-1.68-1.68-1.68h0c-.07,0-.11-.03-.14-.06-.02-.03-.05-.08-.04-.14l.6-4.22c.09-.61,.62-1.07,1.24-1.07h2.53c.62,0,1.15,.46,1.24,1.07l.6,4.22c0,.07-.02,.11-.04,.14Z"/></g></g><g id="q"/><g id="r"/><g id="s"/><g id="t"/><g id="u"/></svg>