<?xml version="1.0" encoding="UTF-8"?><svg xmlns="http://www.w3.org/2000/svg" viewBox="0 0 24 24"><defs><style>.v{fill:#231f20;}</style></defs><g id="a"/><g id="b"/><g id="c"/><g id="d"/><g id="e"/><g id="f"/><g id="g"/><g id="h"/><g id="i"/><g id="j"/><g id="k"/><g id="l"/><g id="m"/><g id="n"/><g id="o"/><g id="p"/><g id="q"><g><path class="v" d="M12,13.75c2.62,0,4.75-2.13,4.75-4.75s-2.13-4.75-4.75-4.75-4.75,2.13-4.75,4.75,2.13,4.75,4.75,4.75Zm0-8c1.79,0,3.25,1.46,3.25,3.25s-1.46,3.25-3.25,3.25-3.25-1.46-3.25-3.25,1.46-3.25,3.25-3.25Z"/><path class="v" d="M17.62,8.05c.69,.4,1.13,1.15,1.13,1.95,0,1.24-1.01,2.25-2.25,2.25-.41,0-.75,.34-.75,.75s.34,.75,.75,.75c2.07,0,3.75-1.68,3.75-3.75,0-1.33-.72-2.58-1.87-3.25-.36-.21-.82-.08-1.03,.27-.21,.36-.08,.82,.27,1.02Z"/><path class="v" d="M7.5,13.75c.41,0,.75-.34,.75-.75s-.34-.75-.75-.75c-1.24,0-2.25-1.01-2.25-2.25,0-.8,.43-1.55,1.13-1.95,.36-.21,.48-.67,.27-1.02-.21-.36-.66-.48-1.03-.27-1.16,.67-1.87,1.91-1.87,3.25,0,2.07,1.68,3.75,3.75,3.75Z"/><path class="v" d="M12,15.25c-2.11,0-3.94,1.43-4.46,3.48l-.02,.09,.73,.18,.75,.09c.34-1.38,1.58-2.34,3-2.34s2.66,.96,3,2.34c.08,.34,.39,.57,.73,.57,.06,0,.12,0,.18-.02,.4-.1,.65-.51,.55-.91-.51-2.05-2.34-3.48-4.46-3.48Z"/><path class="v" d="M7.75,16c0-.41-.34-.75-.75-.75-1.52,0-2.84,1.03-3.21,2.51l-.26,1.06c-.1,.4,.14,.81,.55,.91,.06,.02,.12,.02,.18,.02,.34,0,.64-.23,.73-.57l.26-1.06c.2-.81,.92-1.37,1.76-1.37,.41,0,.75-.34,.75-.75Z"/><path class="v" d="M20.48,18.82l-.26-1.06c-.37-1.48-1.69-2.51-3.21-2.51-.41,0-.75,.34-.75,.75s.34,.75,.75,.75c.83,0,1.56,.56,1.76,1.37l.26,1.06c.08,.34,.39,.57,.73,.57,.06,0,.12,0,.18-.02,.4-.1,.65-.51,.55-.91Z"/></g></g><g id="r"/><g id="s"/><g id="t"/><g id="u"/></svg>