<?xml version="1.0" encoding="UTF-8"?><svg xmlns="http://www.w3.org/2000/svg" viewBox="0 0 24 24"><defs><style>.v{fill:#231f20;}</style></defs><g id="a"/><g id="b"/><g id="c"/><g id="d"/><g id="e"/><g id="f"/><g id="g"/><g id="h"/><g id="i"/><g id="j"/><g id="k"/><g id="l"/><g id="m"><g><path class="v" d="M18.49,5.5c-.63-1.88-2.39-3.25-4.49-3.25H7c-2.62,0-4.75,2.13-4.75,4.75v7c0,2.09,1.37,3.85,3.25,4.49,.64,1.93,2.44,3.26,4.5,3.26h7c2.62,0,4.75-2.13,4.75-4.75v-7c0-2.06-1.33-3.86-3.26-4.5ZM3.75,14V7c0-1.79,1.46-3.25,3.25-3.25h7c1.79,0,3.25,1.46,3.25,3.25v7c0,1.79-1.46,3.25-3.25,3.25H7c-1.79,0-3.25-1.46-3.25-3.25Zm16.5,3c0,1.79-1.46,3.25-3.25,3.25h-7c-1.13,0-2.15-.59-2.74-1.5h6.74c2.62,0,4.75-2.13,4.75-4.75V7.26c.91,.58,1.5,1.6,1.5,2.74v7Z"/><path class="v" d="M10.5,11.75c1.79,0,3.25-1.46,3.25-3.25s-1.46-3.25-3.25-3.25-3.25,1.46-3.25,3.25,1.46,3.25,3.25,3.25Zm0-5c.96,0,1.75,.79,1.75,1.75s-.79,1.75-1.75,1.75-1.75-.79-1.75-1.75,.79-1.75,1.75-1.75Z"/><path class="v" d="M8.24,13.75h4.53c.48,0,.91,.26,1.12,.69l.45,.89c.13,.26,.4,.41,.67,.41,.11,0,.23-.03,.33-.08,.37-.19,.52-.64,.34-1.01l-.45-.89c-.47-.94-1.41-1.52-2.46-1.52h-4.53c-1.05,0-1.99,.58-2.46,1.52l-.45,.89c-.19,.37-.04,.82,.34,1.01,.37,.19,.82,.03,1.01-.34l.45-.89c.21-.43,.64-.69,1.12-.69Z"/></g></g><g id="n"/><g id="o"/><g id="p"/><g id="q"/><g id="r"/><g id="s"/><g id="t"/><g id="u"/></svg>