<?xml version="1.0" encoding="UTF-8"?><svg xmlns="http://www.w3.org/2000/svg" viewBox="0 0 24 24"><defs><style>.v{fill:#231f20;}</style></defs><g id="a"/><g id="b"><g><path class="v" d="M10,11.75c2.62,0,4.75-2.13,4.75-4.75s-2.13-4.75-4.75-4.75-4.75,2.13-4.75,4.75,2.13,4.75,4.75,4.75Zm0-8c1.79,0,3.25,1.46,3.25,3.25s-1.46,3.25-3.25,3.25-3.25-1.46-3.25-3.25,1.46-3.25,3.25-3.25Z"/><path class="v" d="M16.87,15.05c-2.64-1.49-5.19-1.8-6.87-1.8-3.02,0-5.4,.98-6.87,1.8-.54,.31-.88,.89-.88,1.52v3.43c0,.96,.79,1.75,1.75,1.75h12c.96,0,1.75-.79,1.75-1.75v-3.42c0-.64-.34-1.22-.88-1.53Zm-.62,4.95c0,.14-.11,.25-.25,.25H4c-.14,0-.25-.11-.25-.25v-3.43c0-.09,.04-.17,.12-.21,1.31-.73,3.43-1.61,6.13-1.61,1.49,0,3.77,.28,6.13,1.61,.07,.04,.12,.13,.12,.22v3.42Z"/><path class="v" d="M16.66,4.56c-.29,.29-.29,.77,0,1.06,.79,.79,.79,2.07,0,2.85-.29,.29-.29,.77,0,1.06,.15,.15,.34,.22,.53,.22s.38-.07,.53-.22c1.37-1.37,1.37-3.6,0-4.97-.29-.29-.77-.29-1.06,0Z"/><path class="v" d="M20.31,3.6c-.29-.29-.77-.29-1.06,0s-.29,.77,0,1.06c1.33,1.33,1.33,3.48,0,4.81-.29,.29-.29,.77,0,1.06,.15,.15,.34,.22,.53,.22s.38-.07,.53-.22c1.91-1.91,1.91-5.02,0-6.93Z"/></g></g><g id="c"/><g id="d"/><g id="e"/><g id="f"/><g id="g"/><g id="h"/><g id="i"/><g id="j"/><g id="k"/><g id="l"/><g id="m"/><g id="n"/><g id="o"/><g id="p"/><g id="q"/><g id="r"/><g id="s"/><g id="t"/><g id="u"/></svg>