<?xml version="1.0" encoding="UTF-8"?><svg xmlns="http://www.w3.org/2000/svg" viewBox="0 0 24 24"><g id="a"/><g id="b"/><g id="c"/><g id="d"><g><path d="M14.59,17.75c-.12-.58-.63-1-1.23-1h-2.72c-.59,0-1.11,.42-1.23,1l-.78,4h6.74l-.11-.62-.68-3.38Z"/><path d="M15.75,5.33v-.33c0-1.52-1.23-2.75-2.75-2.75h-2c-1.52,0-2.75,1.23-2.75,2.75v.33c-1.71,.35-3,1.86-3,3.67v10c0,1.21,.79,2.23,1.88,2.6l.81-4.14c.26-1.28,1.39-2.21,2.7-2.21h2.72c1.31,0,2.44,.93,2.7,2.21l.8,4.14c1.1-.36,1.9-1.38,1.9-2.6V9c0-1.81-1.29-3.33-3-3.67Zm-6-.33c0-.69,.56-1.25,1.25-1.25h2c.69,0,1.25,.56,1.25,1.25v.25h-4.5v-.25Zm4.25,5.75h-4c-.41,0-.75-.34-.75-.75s.34-.75,.75-.75h4c.41,0,.75,.34,.75,.75s-.34,.75-.75,.75Z"/><path d="M20.25,13.28v5.72c0,.16-.03,.31-.05,.46,.91-.45,1.55-1.38,1.55-2.46v-2c0-.88-.65-1.6-1.5-1.72Z"/><path d="M3.75,13.28c-.85,.12-1.5,.85-1.5,1.72v2c0,1.08,.63,2.01,1.55,2.46-.02-.15-.05-.3-.05-.46v-5.72Z"/></g></g><g id="e"/><g id="f"/><g id="g"/><g id="h"/><g id="i"/><g id="j"/><g id="k"/><g id="l"/><g id="m"/><g id="n"/><g id="o"/><g id="p"/><g id="q"/><g id="r"/><g id="s"/><g id="t"/><g id="u"/></svg>