<?xml version="1.0" encoding="UTF-8"?><svg xmlns="http://www.w3.org/2000/svg" viewBox="0 0 24 24"><g id="a"/><g id="b"/><g id="c"/><g id="d"/><g id="e"/><g id="f"/><g id="g"/><g id="h"/><g id="i"/><g id="j"/><g id="k"/><g id="l"/><g id="m"/><g id="n"/><g id="o"/><g id="p"/><g id="q"/><g id="r"/><g id="s"><g><path d="M19.5,7.25c-1.24,0-2.25,1.01-2.25,2.25s.94,2.17,2.12,2.24c-.09,1.52-.74,2.86-1.82,3.66-.6,.45-1.24,.66-1.8,.76v-.16c0-.34-.1-.65-.27-.92-1.51,1.92-3.85,3.17-6.48,3.17s-4.97-1.24-6.48-3.17c-.17,.27-.27,.58-.27,.92v3c0,.96,.79,1.75,1.75,1.75H14c.96,0,1.75-.79,1.75-1.75v-1.31c.81-.11,1.79-.41,2.7-1.09,1.57-1.17,2.45-3.14,2.42-5.33,.53-.41,.88-1.05,.88-1.77,0-1.24-1.01-2.25-2.25-2.25Z"/><circle cx="9" cy="10" r="1.25"/><path d="M9,16.75c3.72,0,6.75-3.03,6.75-6.75s-3.03-6.75-6.75-6.75S2.25,6.28,2.25,10s3.03,6.75,6.75,6.75Zm0-9.5c1.52,0,2.75,1.23,2.75,2.75s-1.23,2.75-2.75,2.75-2.75-1.23-2.75-2.75,1.23-2.75,2.75-2.75Z"/></g></g><g id="t"/><g id="u"/></svg>