<?xml version="1.0" encoding="UTF-8"?><svg xmlns="http://www.w3.org/2000/svg" viewBox="0 0 24 24"><g id="a"/><g id="b"/><g id="c"/><g id="d"/><g id="e"/><g id="f"><g><path d="M13,16c-.14,0-.25,.11-.25,.25v1.25h3.5v-1.25c0-.14-.11-.25-.25-.25h-3Z"/><path d="M4,17.75h7.25v-1.5c0-.96,.79-1.75,1.75-1.75h3c.96,0,1.75,.79,1.75,1.75v1.5h2.25c.41,0,.75-.34,.75-.75V7c0-1.52-1.23-2.75-2.75-2.75H6c-1.52,0-2.75,1.23-2.75,2.75v10c0,.41,.34,.75,.75,.75Z"/><path d="M20,19.25H4c-.71,0-1.34-.34-1.75-.85v.6c0,.96,.79,1.75,1.75,1.75H20c.96,0,1.75-.79,1.75-1.75v-.6c-.41,.52-1.04,.85-1.75,.85Z"/></g></g><g id="g"/><g id="h"/><g id="i"/><g id="j"/><g id="k"/><g id="l"/><g id="m"/><g id="n"/><g id="o"/><g id="p"/><g id="q"/><g id="r"/><g id="s"/><g id="t"/><g id="u"/></svg>