<?xml version="1.0" encoding="UTF-8"?><svg xmlns="http://www.w3.org/2000/svg" viewBox="0 0 24 24"><g id="a"/><g id="b"/><g id="c"/><g id="d"/><g id="e"/><g id="f"/><g id="g"/><g id="h"/><g id="i"/><g id="j"/><g id="k"/><g id="l"/><g id="m"/><g id="n"/><g id="o"/><g id="p"/><g id="q"/><g id="r"/><g id="s"/><g id="t"/><g id="u"><g><path d="M2.8,5.16c-.35,.32-.55,.79-.55,1.27v10.57c0,.63,.32,1.18,.86,1.49,.54,.31,1.22,.31,1.77,0,.97-.56,2-.81,3.06-.72,1.64,.13,2.77,1.02,3.31,1.55V4.4c-.78-.52-1.85-1.02-3.19-1.13-2.65-.21-4.56,1.25-5.26,1.89Z"/><path d="M21.2,5.16c-.7-.64-2.61-2.1-5.26-1.89-1.34,.11-2.41,.61-3.19,1.13v14.92c.54-.54,1.67-1.42,3.31-1.55,1.06-.09,2.09,.16,3.06,.72,.55,.32,1.23,.32,1.77,0,.54-.31,.86-.87,.86-1.49V6.43c0-.49-.2-.95-.55-1.27Z"/></g></g></svg>