<?xml version="1.0" encoding="UTF-8"?><svg xmlns="http://www.w3.org/2000/svg" viewBox="0 0 24 24"><g id="a"/><g id="b"/><g id="c"/><g id="d"/><g id="e"/><g id="f"/><g id="g"/><g id="h"/><g id="i"><g><path d="M19.89,3.18c-.08-.69-.69-1.18-1.38-1.1l-1.25,.14c-.68,.08-1.18,.69-1.1,1.38l1.92,17c.07,.64,.62,1.11,1.25,1.11,.04,0,.09,0,.14,0l1.26-.14c.33-.04,.63-.2,.84-.46,.21-.26,.3-.59,.26-.92l-1.92-17Z"/><path d="M14,2.25h-3c-.96,0-1.75,.79-1.75,1.75v2.25h6.5v-2.25c0-.96-.79-1.75-1.75-1.75Z"/><path d="M9.25,20c0,.96,.79,1.75,1.75,1.75h3c.96,0,1.75-.79,1.75-1.75V7.75h-6.5v12.25Z"/><path d="M2.25,20c0,.96,.79,1.75,1.75,1.75h3c.96,0,1.75-.79,1.75-1.75V7.75H2.25v12.25Z"/><path d="M7,2.25h-3c-.96,0-1.75,.79-1.75,1.75v2.25h6.5v-2.25c0-.96-.79-1.75-1.75-1.75Z"/></g></g><g id="j"/><g id="k"/><g id="l"/><g id="m"/><g id="n"/><g id="o"/><g id="p"/><g id="q"/><g id="r"/><g id="s"/><g id="t"/><g id="u"/></svg>