<?xml version="1.0" encoding="UTF-8"?><svg xmlns="http://www.w3.org/2000/svg" viewBox="0 0 24 24"><g id="a"/><g id="b"/><g id="c"/><g id="d"/><g id="e"/><g id="f"/><g id="g"/><g id="h"/><g id="i"/><g id="j"><g><circle cx="15" cy="13" r="3.75"/><path d="M19,2.25H5c-1.52,0-2.75,1.23-2.75,2.75v7c0,1.52,1.23,2.75,2.75,2.75h5.07c-.2-.55-.32-1.13-.32-1.75,0-2.89,2.35-5.25,5.25-5.25s5.25,2.36,5.25,5.25c0,.55-.11,1.06-.26,1.56,1.03-.4,1.76-1.39,1.76-2.56V5c0-1.52-1.23-2.75-2.75-2.75Z"/><path d="M12.25,17.45v2.55c0,.26,.13,.5,.36,.64,.22,.14,.5,.15,.73,.03l1.66-.83,1.66,.83c.11,.05,.22,.08,.34,.08,.14,0,.27-.04,.39-.11,.22-.14,.36-.38,.36-.64v-2.55c-.8,.5-1.74,.8-2.75,.8s-1.95-.3-2.75-.8Z"/></g></g><g id="k"/><g id="l"/><g id="m"/><g id="n"/><g id="o"/><g id="p"/><g id="q"/><g id="r"/><g id="s"/><g id="t"/><g id="u"/></svg>