<?xml version="1.0" encoding="UTF-8"?><svg xmlns="http://www.w3.org/2000/svg" viewBox="0 0 24 24"><g id="a"/><g id="b"/><g id="c"/><g id="d"/><g id="e"><g><path d="M6.29,15.24c.18-.12,.22-.29,.23-.38,0-.09,0-.27-.15-.42-.79-.79-.79-2.07,0-2.86l.42-.42c.2-.2,.16-.43,.13-.52-.03-.09-.12-.31-.4-.36l-3.93-.78c-.21,.8-.34,1.64-.34,2.51,0,1.81,.5,3.5,1.36,4.95l1-.59,1.67-1.12Z"/><path d="M12.52,6.06c.03,.06,.14,.19,.34,.19,1.05,0,1.9,.85,1.9,1.9v.26c0,.18,.1,.28,.16,.32,.06,.04,.19,.11,.36,.05l.49-.16c.79-.26,1.63-.29,2.44-.09l2.34,.58,.84,.26c-.96-3.43-3.75-6.1-7.25-6.88l-.46,.86-1.16,2.32c-.09,.18-.02,.33,.02,.39Z"/><path d="M21.7,11.04l-1.56-.48-2.3-.57c-.53-.13-1.08-.11-1.6,.06l-.5,.17c-.58,.19-1.21,.09-1.71-.26-.49-.35-.79-.93-.79-1.54v-.26c0-.22-.18-.4-.4-.4-.66,0-1.26-.34-1.61-.9-.35-.56-.38-1.25-.08-1.84l1.17-2.34,.21-.39c-.18,0-.36-.03-.54-.03-3.97,0-7.39,2.39-8.91,5.81l3.72,.74c.73,.15,1.32,.68,1.54,1.4s.02,1.49-.51,2.02l-.42,.42c-.2,.2-.2,.54,0,.74,.43,.43,.64,1.02,.58,1.63-.06,.61-.38,1.15-.89,1.49l-1.71,1.14-.95,.56c.42,.51,.9,.98,1.42,1.4l1.52-.62,1.77-.89c.75-.38,1.3-1.06,1.5-1.87l.13-.53c.16-.65,.64-1.14,1.29-1.32,.64-.18,1.31,0,1.78,.47l.89,.89c.13,.13,.34,.13,.47,0,.45-.45,1.09-.63,1.71-.49,.62,.15,1.11,.6,1.32,1.2l.45,1.34,.28,1.02c1.71-1.76,2.76-4.15,2.76-6.78,0-.33-.02-.65-.05-.96Z"/><path d="M16.84,16.9c-.05-.15-.17-.2-.24-.22-.07-.02-.2-.03-.31,.09-.71,.71-1.88,.71-2.59,0l-.89-.89c-.12-.12-.25-.1-.32-.08-.07,.02-.19,.08-.23,.24l-.13,.53c-.31,1.24-1.14,2.28-2.28,2.85l-1.82,.91-.64,.26c1.37,.74,2.94,1.16,4.61,1.16,2.14,0,4.12-.7,5.73-1.88l-.45-1.68-.43-1.3Z"/></g></g><g id="f"/><g id="g"/><g id="h"/><g id="i"/><g id="j"/><g id="k"/><g id="l"/><g id="m"/><g id="n"/><g id="o"/><g id="p"/><g id="q"/><g id="r"/><g id="s"/><g id="t"/><g id="u"/></svg>