<?xml version="1.0" encoding="UTF-8"?><svg xmlns="http://www.w3.org/2000/svg" viewBox="0 0 24 24"><g id="a"/><g id="b"/><g id="c"/><g id="d"/><g id="e"/><g id="f"/><g id="g"><g><path d="M17.93,12.25h-5.93c-.14,0-.25-.11-.25-.25V6.07c0-.51-.22-.99-.6-1.33-.38-.33-.88-.48-1.38-.41-2.36,.33-4.51,1.64-5.9,3.59-1.41,1.97-1.92,4.4-1.45,6.82,.66,3.42,3.41,6.17,6.83,6.83,.59,.11,1.17,.17,1.75,.17,1.82,0,3.58-.55,5.07-1.62,1.95-1.39,3.26-3.54,3.59-5.9h0c.07-.5-.08-1-.41-1.38-.33-.38-.82-.6-1.33-.6Z"/><path d="M21.65,8.74c-.54-3.29-3.11-5.86-6.39-6.39-.5-.08-1,.06-1.38,.39-.4,.34-.62,.83-.62,1.35v4.91c0,.96,.79,1.75,1.75,1.75h4.91c.52,0,1.01-.23,1.35-.62,.33-.39,.47-.89,.39-1.38Z"/></g></g><g id="h"/><g id="i"/><g id="j"/><g id="k"/><g id="l"/><g id="m"/><g id="n"/><g id="o"/><g id="p"/><g id="q"/><g id="r"/><g id="s"/><g id="t"/><g id="u"/></svg>