<?xml version="1.0" encoding="UTF-8"?><svg xmlns="http://www.w3.org/2000/svg" viewBox="0 0 24 24"><g id="a"/><g id="b"/><g id="c"/><g id="d"/><g id="e"/><g id="f"/><g id="g"/><g id="h"/><g id="i"/><g id="j"/><g id="k"/><g id="l"/><g id="m"/><g id="n"/><g id="o"/><g id="p"/><g id="q"/><g id="r"/><g id="s"/><g id="t"><g><path d="M20.73,7.31l-7.84-3.86c-.56-.28-1.23-.28-1.79,0L3.27,7.31c-.65,.32-1.04,.95-1.01,1.64,.03,.7,.47,1.3,1.16,1.57l7.84,3.09c.24,.09,.49,.14,.74,.14s.51-.05,.75-.14l7.84-3.09c.69-.27,1.13-.87,1.16-1.57,.03-.69-.36-1.32-1.01-1.64Z"/><path d="M19.11,12.72l-5.81,2.29c-.41,.16-.85,.24-1.29,.24s-.88-.08-1.29-.24l-5.82-2.29-.49,2.44c-.15,.76,.21,1.52,.89,1.89,1.44,.78,3.76,1.71,6.7,1.71,1.64,0,4.14-.3,6.74-1.73,.65-.36,1-1.13,.85-1.87l-.49-2.43Z"/></g></g><g id="u"/></svg>