<?xml version="1.0" encoding="UTF-8"?><svg xmlns="http://www.w3.org/2000/svg" viewBox="0 0 24 24"><g id="a"/><g id="b"/><g id="c"/><g id="d"/><g id="e"/><g id="f"/><g id="g"/><g id="h"/><g id="i"/><g id="j"/><g id="k"/><g id="l"/><g id="m"/><g id="n"/><g id="o"/><g id="p"/><g id="q"><g><path d="M8.25,19c0,1.52,1.23,2.75,2.75,2.75h2c1.52,0,2.75-1.23,2.75-2.75v-.25h-7.5v.25Z"/><path d="M17.43,4.48c-1.49-1.47-3.43-2.24-5.56-2.22-4.05,.07-7.47,3.41-7.62,7.46-.1,2.7,1.18,5.21,3.41,6.72,.3,.2,.49,.5,.55,.82h7.56c.06-.32,.25-.62,.54-.82,2.15-1.44,3.43-3.85,3.43-6.43,0-2.09-.82-4.06-2.32-5.52Z"/></g></g><g id="r"/><g id="s"/><g id="t"/><g id="u"/></svg>