<?xml version="1.0" encoding="UTF-8"?><svg xmlns="http://www.w3.org/2000/svg" viewBox="0 0 24 24"><g id="a"/><g id="b"/><g id="c"/><g id="d"/><g id="e"/><g id="f"/><g id="g"/><g id="h"/><g id="i"/><g id="j"/><g id="k"/><g id="l"/><g id="m"/><g id="n"/><g id="o"/><g id="p"/><g id="q"/><g id="r"><g><rect x="9.75" y="7.75" width="4.5" height="1.5" rx=".25" ry=".25"/><path d="M16,2.25H8c-2.07,0-3.75,1.68-3.75,3.75v1.25h1.75c.41,0,.75,.34,.75,.75s-.34,.75-.75,.75h-1.75v2.5h1.75c.41,0,.75,.34,.75,.75s-.34,.75-.75,.75h-1.75v2.5h1.75c.41,0,.75,.34,.75,.75s-.34,.75-.75,.75h-1.75v1.25c0,2.07,1.68,3.75,3.75,3.75h8c2.07,0,3.75-1.68,3.75-3.75V6c0-2.07-1.68-3.75-3.75-3.75Zm-.25,6.75c0,.96-.79,1.75-1.75,1.75h-4c-.96,0-1.75-.79-1.75-1.75v-1c0-.96,.79-1.75,1.75-1.75h4c.96,0,1.75,.79,1.75,1.75v1Z"/></g></g><g id="s"/><g id="t"/><g id="u"/></svg>