<?xml version="1.0" encoding="UTF-8"?><svg xmlns="http://www.w3.org/2000/svg" viewBox="0 0 24 24"><g id="a"/><g id="b"/><g id="c"/><g id="d"/><g id="e"/><g id="f"/><g id="g"/><g id="h"><g><path d="M16,6.25h3.69c-.11-.51-.36-.99-.74-1.37l-1.83-1.83c-.38-.38-.85-.63-1.37-.74v3.69c0,.14,.11,.25,.25,.25Z"/><path d="M16,7.75c-.96,0-1.75-.79-1.75-1.75V2.25H7c-1.52,0-2.75,1.23-2.75,2.75v14c0,1.52,1.23,2.75,2.75,2.75h10c1.52,0,2.75-1.23,2.75-2.75V7.75h-3.75Zm-8-.5h4c.41,0,.75,.34,.75,.75s-.34,.75-.75,.75h-4c-.41,0-.75-.34-.75-.75s.34-.75,.75-.75Zm8,9.5H8c-.41,0-.75-.34-.75-.75s.34-.75,.75-.75h8c.41,0,.75,.34,.75,.75s-.34,.75-.75,.75Zm0-4H8c-.41,0-.75-.34-.75-.75s.34-.75,.75-.75h8c.41,0,.75,.34,.75,.75s-.34,.75-.75,.75Z"/></g></g><g id="i"/><g id="j"/><g id="k"/><g id="l"/><g id="m"/><g id="n"/><g id="o"/><g id="p"/><g id="q"/><g id="r"/><g id="s"/><g id="t"/><g id="u"/></svg>