<?xml version="1.0" encoding="UTF-8"?><svg xmlns="http://www.w3.org/2000/svg" viewBox="0 0 24 24"><g id="a"/><g id="b"/><g id="c"/><g id="d"/><g id="e"/><g id="f"/><g id="g"/><g id="h"/><g id="i"/><g id="j"/><g id="k"/><g id="l"><path d="M21.72,2.93c-.02-.22-.14-.43-.33-.55-.19-.12-.42-.16-.64-.09-1.01,.31-2.03,.65-3.04,1.01-5.63,2.02-8.45,3.03-10.31,5.22-.97,1.13-2.41,3.61-2.27,7.89,.19-.14,.35-.31,.43-.53,.66-1.78,1.64-3.27,2.91-4.43,.69-.63,1.3-1,3.12-2.09,1.97-1.19,3.67-2.21,5-3,.36-.21,.82-.1,1.03,.26,.21,.36,.1,.82-.26,1.03-1.33,.79-3.03,1.81-5,3-1.86,1.12-2.32,1.4-2.88,1.91-1.09,.99-1.94,2.28-2.51,3.84-.29,.77-.91,1.37-1.7,1.63l-.57,.19-2.25,2.25c-.29,.29-.29,.77,0,1.06,.15,.15,.34,.22,.53,.22s.38-.07,.53-.22l2.83-2.83c1.33-.2,2.64-.53,3.9-1,1.46-.54,2.86-1.26,4.16-2.14,.19-.13,.31-.33,.33-.56,0-.11,0-.21-.04-.31l1.32-.05c.14,0,.27-.05,.38-.12,1.27-.82,2.35-1.87,3.21-3.09,.13-.18,.17-.4,.11-.61-.05-.21-.2-.39-.39-.49l-.36-.18,1.36-.44c.21-.07,.38-.22,.46-.42,.52-1.22,.84-2.53,.96-3.9,.07-.83,.07-1.66-.01-2.47Z"/></g><g id="m"/><g id="n"/><g id="o"/><g id="p"/><g id="q"/><g id="r"/><g id="s"/><g id="t"/><g id="u"/></svg>