<?xml version="1.0" encoding="UTF-8"?><svg xmlns="http://www.w3.org/2000/svg" viewBox="0 0 24 24"><g id="a"/><g id="b"/><g id="c"/><g id="d"/><g id="e"/><g id="f"/><g id="g"/><g id="h"/><g id="i"/><g id="j"/><g id="k"/><g id="l"/><g id="m"/><g id="n"/><g id="o"><g><path d="M17,2.25h-2c-.96,0-1.75,.79-1.75,1.75v1.25h5.5v-1.25c0-.96-.79-1.75-1.75-1.75Z"/><path d="M13.25,17.7c0,.35,.1,.68,.29,.97l1.83,2.75c.14,.21,.37,.33,.62,.33s.48-.13,.62-.33l1.83-2.75c.19-.29,.29-.62,.29-.97V6.75h-5.5v10.95Z"/><path d="M10,2.25H6c-.96,0-1.75,.79-1.75,1.75V20c0,.96,.79,1.75,1.75,1.75h4c.96,0,1.75-.79,1.75-1.75v-3.25h-2.75c-.41,0-.75-.34-.75-.75s.34-.75,.75-.75h2.75v-2.5h-2.75c-.41,0-.75-.34-.75-.75s.34-.75,.75-.75h2.75v-2.5h-2.75c-.41,0-.75-.34-.75-.75s.34-.75,.75-.75h2.75v-3.25c0-.96-.79-1.75-1.75-1.75Z"/></g></g><g id="p"/><g id="q"/><g id="r"/><g id="s"/><g id="t"/><g id="u"/></svg>