<?xml version="1.0" encoding="UTF-8"?><svg xmlns="http://www.w3.org/2000/svg" viewBox="0 0 24 24"><g id="a"/><g id="b"/><g id="c"/><g id="d"/><g id="e"/><g id="f"/><g id="g"/><g id="h"/><g id="i"/><g id="j"/><g id="k"/><g id="l"/><g id="m"/><g id="n"/><g id="o"/><g id="p"><g><circle cx="14.5" cy="9.5" r="4.25"/><path d="M20.24,9.39s0,.08,0,.11c0,3.17-2.58,5.75-5.75,5.75s-5.75-2.58-5.75-5.75c0-.08,0-.17,.01-.25H4.5c-1.24,0-2.25,1.01-2.25,2.25v3c0,1.16,.88,2.1,2,2.22v1.28c0,.41,.34,.75,.75,.75s.75-.34,.75-.75v-1.25h12.5v1.25c0,.41,.34,.75,.75,.75s.75-.34,.75-.75v-1.28c1.12-.13,2-1.07,2-2.22v-3c0-.98-.63-1.8-1.51-2.11ZM7,13.75h-2c-.41,0-.75-.34-.75-.75s.34-.75,.75-.75h2c.41,0,.75,.34,.75,.75s-.34,.75-.75,.75Z"/></g></g><g id="q"/><g id="r"/><g id="s"/><g id="t"/><g id="u"/></svg>