<?xml version="1.0" encoding="UTF-8"?><svg xmlns="http://www.w3.org/2000/svg" viewBox="0 0 24 24"><g id="a"/><g id="b"/><g id="c"/><g id="d"/><g id="e"/><g id="f"/><g id="g"/><g id="h"/><g id="i"/><g id="j"/><g id="k"/><g id="l"/><g id="m"/><g id="n"><g><path d="M12.75,13.73v1.27c0,.41-.34,.75-.75,.75s-.75-.34-.75-.75v-1.27c-2.95-.1-5.9-.8-8.57-2.05-.03-.01-.06-.03-.09-.05l-.34-.22v6.59c0,1.52,1.23,2.75,2.75,2.75h14c1.52,0,2.75-1.23,2.75-2.75v-6.58l-.35,.22c-2.74,1.29-5.7,1.99-8.65,2.09Z"/><path d="M19,6.25h-2.25v-1.25c0-1.52-1.23-2.75-2.75-2.75h-4c-1.52,0-2.75,1.23-2.75,2.75v1.25h-2.25c-1.52,0-2.75,1.23-2.75,2.75v.62l1.11,.72c2.46,1.14,5.16,1.76,7.89,1.85v-1.19c0-.41,.34-.75,.75-.75s.75,.34,.75,.75v1.19c2.74-.1,5.46-.72,7.93-1.87l1.07-.67v-.65c0-1.52-1.23-2.75-2.75-2.75Zm-10.25,0v-1.25c0-.69,.56-1.25,1.25-1.25h4c.69,0,1.25,.56,1.25,1.25v1.25h-6.5Z"/></g></g><g id="o"/><g id="p"/><g id="q"/><g id="r"/><g id="s"/><g id="t"/><g id="u"/></svg>