<?xml version="1.0" encoding="UTF-8"?><svg xmlns="http://www.w3.org/2000/svg" viewBox="0 0 24 24"><g id="a"/><g id="b"/><g id="c"/><g id="d"/><g id="e"/><g id="f"/><g id="g"/><g id="h"/><g id="i"/><g id="j"/><g id="k"/><g id="l"/><g id="m"/><g id="n"/><g id="o"/><g id="p"/><g id="q"/><g id="r"/><g id="s"/><g id="t"><path d="M21.21,4.21l-1.41-1.41c-.68-.68-1.79-.68-2.48,0l-1.59,1.59-.88-.88c-.66-.66-1.81-.66-2.48,0l-2.12,2.12c-.29,.29-.29,.77,0,1.06,.15,.15,.34,.22,.53,.22s.38-.07,.53-.22l2.12-2.12c.13-.13,.23-.13,.35,0l.88,.88L3.88,16.23c-.08,.08-.14,.18-.18,.29l-1.41,4.24c-.09,.27-.02,.57,.18,.77,.14,.14,.33,.22,.53,.22,.08,0,.16-.01,.24-.04l4.24-1.41c.11-.04,.21-.1,.29-.18L21.21,6.68c.68-.68,.68-1.79,0-2.48ZM7.95,17.82l-1.77-1.77L15.73,6.5l1.77,1.77L7.95,17.82Zm-3.76,2l.88-2.65,.05-.05,1.77,1.77-.05,.05-2.65,.88ZM20.15,5.62l-1.59,1.59-1.77-1.77,1.59-1.59c.1-.1,.26-.1,.35,0l1.41,1.41c.1,.1,.1,.26,0,.35Z"/></g><g id="u"/></svg>