<?xml version="1.0" encoding="UTF-8"?><svg xmlns="http://www.w3.org/2000/svg" viewBox="0 0 24 24"><g id="a"/><g id="b"/><g id="c"/><g id="d"/><g id="e"/><g id="f"/><g id="g"/><g id="h"/><g id="i"/><g id="j"/><g id="k"/><g id="l"/><g id="m"/><g id="n"/><g id="o"/><g id="p"/><g id="q"/><g id="r"><path d="M20,10.75c.96,0,1.75-.79,1.75-1.75V4c0-.96-.79-1.75-1.75-1.75H10c-.96,0-1.75,.79-1.75,1.75v2.25H3c-.41,0-.75,.34-.75,.75s.34,.75,.75,.75h1.25v6.25c0,1.52,1.23,2.75,2.75,2.75h1.43c.28,.59,.88,1,1.57,1h.25v3.25c0,.41,.34,.75,.75,.75s.75-.34,.75-.75v-3.25h6.5v3.25c0,.41,.34,.75,.75,.75s.75-.34,.75-.75v-3.25h.25c.96,0,1.75-.79,1.75-1.75v-1c0-.96-.79-1.75-1.75-1.75h-.25v-2.5h.25ZM9.75,4c0-.14,.11-.25,.25-.25h10c.14,0,.25,.11,.25,.25v5c0,.14-.11,.25-.25,.25H10c-.14,0-.25-.11-.25-.25v-1.25h4.25c.41,0,.75-.34,.75-.75s-.34-.75-.75-.75h-4.25v-2.25ZM5.75,14V7.75h2.5v1.25c0,.96,.79,1.75,1.75,1.75h.25v2.5h-.25c-.96,0-1.75,.79-1.75,1.75v.25h-1.25c-.69,0-1.25-.56-1.25-1.25Zm14.5,1v1c0,.14-.11,.25-.25,.25H10c-.14,0-.25-.11-.25-.25v-1c0-.14,.11-.25,.25-.25h10c.14,0,.25,.11,.25,.25Zm-2-1.75h-6.5v-2.5h6.5v2.5Z"/></g><g id="s"/><g id="t"/><g id="u"/></svg>