<?xml version="1.0" encoding="UTF-8"?><svg xmlns="http://www.w3.org/2000/svg" viewBox="0 0 24 24"><g id="a"/><g id="b"/><g id="c"/><g id="d"><g><path d="M17,3.25h-.25v-.25c0-.41-.34-.75-.75-.75s-.75,.34-.75,.75v.25h-2.5v-.25c0-.41-.34-.75-.75-.75s-.75,.34-.75,.75v.25h-2.5v-.25c0-.41-.34-.75-.75-.75s-.75,.34-.75,.75v.25h-.25c-1.52,0-2.75,1.23-2.75,2.75v13c0,1.52,1.23,2.75,2.75,2.75h10c1.52,0,2.75-1.23,2.75-2.75V6c0-1.52-1.23-2.75-2.75-2.75Zm1.25,15.75c0,.69-.56,1.25-1.25,1.25H7c-.69,0-1.25-.56-1.25-1.25V6c0-.69,.56-1.25,1.25-1.25h.25v.25c0,.41,.34,.75,.75,.75s.75-.34,.75-.75v-.25h2.5v.25c0,.41,.34,.75,.75,.75s.75-.34,.75-.75v-.25h2.5v.25c0,.41,.34,.75,.75,.75s.75-.34,.75-.75v-.25h.25c.69,0,1.25,.56,1.25,1.25v13Z"/><path d="M16,8.25H8c-.41,0-.75,.34-.75,.75s.34,.75,.75,.75h8c.41,0,.75-.34,.75-.75s-.34-.75-.75-.75Z"/><path d="M16,12.25H8c-.41,0-.75,.34-.75,.75s.34,.75,.75,.75h8c.41,0,.75-.34,.75-.75s-.34-.75-.75-.75Z"/><path d="M16,16.25H8c-.41,0-.75,.34-.75,.75s.34,.75,.75,.75h8c.41,0,.75-.34,.75-.75s-.34-.75-.75-.75Z"/></g></g><g id="e"/><g id="f"/><g id="g"/><g id="h"/><g id="i"/><g id="j"/><g id="k"/><g id="l"/><g id="m"/><g id="n"/><g id="o"/><g id="p"/><g id="q"/><g id="r"/><g id="s"/><g id="t"/><g id="u"/></svg>