<?xml version="1.0" encoding="UTF-8"?><svg xmlns="http://www.w3.org/2000/svg" viewBox="0 0 24 24"><g id="a"/><g id="b"/><g id="c"/><g id="d"/><g id="e"/><g id="f"/><g id="g"/><g id="h"/><g id="i"><path d="M21,20.33c-1.24,0-2.25-1.01-2.25-2.25s1.01-2.25,2.25-2.25c.41,0,.75-.34,.75-.75s-.34-.75-.75-.75h-4.63c1.17-1.47,1.65-3.24,1.24-4.84-.31-1.21-1.35-3.07-2.99-3.22-.75-.08-1.25,.25-1.65,.52-.07,.05-.14,.09-.21,.14,.03-.68,.2-1.61,.84-2.47,.24-.32,.52-.6,.85-.85,.33-.25,.4-.72,.15-1.05s-.72-.4-1.05-.15c-.44,.33-.83,.72-1.15,1.15-.89,1.19-1.12,2.48-1.14,3.39-.07-.05-.14-.1-.22-.15-.39-.26-.88-.58-1.63-.52-1.61,.15-2.67,1.95-2.99,3.12-.44,1.6,.05,3.43,1.24,4.94h-1.65c-2.07,0-3.75,1.68-3.75,3.75s1.68,3.75,3.75,3.75h15c.41,0,.75-.34,.75-.75s-.34-.75-.75-.75ZM7.86,9.79c.25-.91,1-1.96,1.69-2.02,.21-.02,.33,.05,.67,.27,.39,.26,.93,.62,1.78,.62,.9-.02,1.41-.36,1.81-.63,.34-.23,.47-.29,.67-.28,.7,.07,1.44,1.16,1.68,2.1,.37,1.47-.38,3.24-1.89,4.48h-4.54c-1.52-1.27-2.27-3.07-1.87-4.54Zm-1.86,10.54c-1.24,0-2.25-1.01-2.25-2.25s1.01-2.25,2.25-2.25h12c-.31,.41-.53,.9-.65,1.42H9c-.41,0-.75,.34-.75,.75s.34,.75,.75,.75h8.31c.11,.58,.34,1.12,.69,1.58H6Z"/></g><g id="j"/><g id="k"/><g id="l"/><g id="m"/><g id="n"/><g id="o"/><g id="p"/><g id="q"/><g id="r"/><g id="s"/><g id="t"/><g id="u"/></svg>