<?xml version="1.0" encoding="UTF-8"?><svg xmlns="http://www.w3.org/2000/svg" viewBox="0 0 24 24"><g id="a"/><g id="b"/><g id="c"/><g id="d"/><g id="e"><path d="M12,2.25h0c-5.38,0-9.75,4.37-9.75,9.75s4.37,9.75,9.75,9.75,9.75-4.37,9.75-9.75S17.38,2.25,12,2.25Zm0,17.79c-1.56-1.31-2.46-2.88-3-4.29h6.03c-.87,2.17-2.29,3.63-3.03,4.29Zm-3.45-5.79c-.27-1.16-.29-2.04-.29-2.25,0-.8,.09-1.55,.25-2.25h6.95c.27,1.16,.29,2.04,.29,2.25,0,.8-.09,1.55-.25,2.25h-6.95Zm-4.79-2.25c0-.78,.12-1.53,.32-2.25h2.9c-.14,.7-.22,1.45-.22,2.25,0,.34,.03,1.17,.25,2.25h-2.93c-.2-.72-.32-1.47-.32-2.25ZM12.01,3.96c1.56,1.31,2.46,2.88,3,4.29h-6.03c.87-2.17,2.29-3.63,3.03-4.29Zm4.99,5.79h2.93c.2,.72,.32,1.47,.32,2.25s-.12,1.53-.32,2.25h-2.9c.14-.7,.22-1.45,.22-2.25,0-.34-.03-1.17-.25-2.25Zm2.34-1.5h-2.73c-.43-1.32-1.16-2.8-2.37-4.18,2.22,.63,4.07,2.16,5.1,4.18ZM9.8,4.06c-.87,.99-1.83,2.39-2.44,4.19h-2.7c1.04-2.03,2.9-3.57,5.14-4.19ZM4.66,15.75h2.73c.43,1.32,1.16,2.8,2.37,4.18-2.22-.63-4.07-2.16-5.1-4.18Zm9.54,4.19c.87-.99,1.83-2.39,2.44-4.19h2.7c-1.04,2.03-2.9,3.57-5.14,4.19Z"/></g><g id="f"/><g id="g"/><g id="h"/><g id="i"/><g id="j"/><g id="k"/><g id="l"/><g id="m"/><g id="n"/><g id="o"/><g id="p"/><g id="q"/><g id="r"/><g id="s"/><g id="t"/><g id="u"/></svg>