<?xml version="1.0" encoding="UTF-8"?><svg xmlns="http://www.w3.org/2000/svg" viewBox="0 0 24 24"><g id="a"/><g id="b"/><g id="c"/><g id="d"/><g id="e"/><g id="f"/><g id="g"/><g id="h"/><g id="i"/><g id="j"/><g id="k"/><g id="l"/><g id="m"/><g id="n"><g><path d="M7,17.75h12c.41,0,.75-.34,.75-.75V4c0-.96-.79-1.75-1.75-1.75H7c-1.52,0-2.75,1.23-2.75,2.75v14c0,1.52,1.23,2.75,2.75,2.75h12c.41,0,.75-.34,.75-.75s-.34-.75-.75-.75H7c-.69,0-1.25-.56-1.25-1.25s.56-1.25,1.25-1.25Zm-1.25-12.75c0-.69,.56-1.25,1.25-1.25h11c.14,0,.25,.11,.25,.25v12.25H7c-.45,0-.87,.12-1.25,.31V5Z"/><path d="M10,9.75h5c.96,0,1.75-.79,1.75-1.75v-1c0-.96-.79-1.75-1.75-1.75h-5c-.96,0-1.75,.79-1.75,1.75v1c0,.96,.79,1.75,1.75,1.75Zm-.25-2.75c0-.14,.11-.25,.25-.25h5c.14,0,.25,.11,.25,.25v1c0,.14-.11,.25-.25,.25h-5c-.14,0-.25-.11-.25-.25v-1Z"/></g></g><g id="o"/><g id="p"/><g id="q"/><g id="r"/><g id="s"/><g id="t"/><g id="u"/></svg>