<?xml version="1.0" encoding="UTF-8"?><svg xmlns="http://www.w3.org/2000/svg" viewBox="0 0 24 24"><g id="a"/><g id="b"/><g id="c"/><g id="d"/><g id="e"/><g id="f"/><g id="g"/><g id="h"/><g id="i"/><g id="j"/><g id="k"/><g id="l"><g><path d="M19,6.25h-2.46l-.6-1.8c-.24-.72-.91-1.2-1.66-1.2h-4.56c-.75,0-1.42,.48-1.66,1.2l-.6,1.8h-2.46c-1.52,0-2.75,1.23-2.75,2.75v8c0,1.52,1.23,2.75,2.75,2.75h14c1.52,0,2.75-1.23,2.75-2.75V9c0-1.52-1.23-2.75-2.75-2.75Zm-9.52-1.33c.03-.1,.13-.17,.24-.17h4.56c.11,0,.2,.07,.24,.17l.44,1.33h-5.92l.44-1.33Zm10.77,12.08c0,.69-.56,1.25-1.25,1.25H5c-.69,0-1.25-.56-1.25-1.25V9c0-.69,.56-1.25,1.25-1.25h14c.69,0,1.25,.56,1.25,1.25v8Z"/><path d="M10,9.25h-3c-.96,0-1.75,.79-1.75,1.75v4c0,.96,.79,1.75,1.75,1.75h3c.96,0,1.75-.79,1.75-1.75v-4c0-.96-.79-1.75-1.75-1.75Zm.25,5.75c0,.14-.11,.25-.25,.25h-3c-.14,0-.25-.11-.25-.25v-4c0-.14,.11-.25,.25-.25h3c.14,0,.25,.11,.25,.25v4Z"/><path d="M18,11.25h-4c-.41,0-.75,.34-.75,.75s.34,.75,.75,.75h4c.41,0,.75-.34,.75-.75s-.34-.75-.75-.75Z"/><path d="M18,14.25h-4c-.41,0-.75,.34-.75,.75s.34,.75,.75,.75h4c.41,0,.75-.34,.75-.75s-.34-.75-.75-.75Z"/></g></g><g id="m"/><g id="n"/><g id="o"/><g id="p"/><g id="q"/><g id="r"/><g id="s"/><g id="t"/><g id="u"/></svg>