<?xml version="1.0" encoding="UTF-8"?><svg xmlns="http://www.w3.org/2000/svg" viewBox="0 0 24 24"><g id="a"/><g id="b"/><g id="c"/><g id="d"/><g id="e"/><g id="f"/><g id="g"/><g id="h"/><g id="i"/><g id="j"/><g id="k"/><g id="l"/><g id="m"/><g id="n"/><g id="o"/><g id="p"/><g id="q"/><g id="r"/><g id="s"><g><path d="M21.95,18.22l-2.2-4.39V7c0-1.52-1.23-2.75-2.75-2.75H7c-1.52,0-2.75,1.23-2.75,2.75v6.82l-2.2,4.39c-.27,.55-.24,1.18,.08,1.7,.32,.52,.88,.83,1.49,.83H20.38c.61,0,1.17-.31,1.49-.83s.35-1.16,.08-1.7ZM5.75,7c0-.69,.56-1.25,1.25-1.25h10c.69,0,1.25,.56,1.25,1.25v6.25H5.75V7Zm14.84,12.13s-.09,.12-.21,.12H3.62c-.12,0-.19-.07-.21-.12-.03-.04-.06-.13-.01-.24l2.07-4.14h13.07l2.07,4.14c.05,.11,.02,.2-.01,.24Z"/><path d="M14,16.25h-4c-.41,0-.75,.34-.75,.75s.34,.75,.75,.75h4c.41,0,.75-.34,.75-.75s-.34-.75-.75-.75Z"/></g></g><g id="t"/><g id="u"/></svg>