<?xml version="1.0" encoding="UTF-8"?><svg xmlns="http://www.w3.org/2000/svg" viewBox="0 0 24 24"><g id="a"/><g id="b"/><g id="c"/><g id="d"/><g id="e"/><g id="f"/><g id="g"><g><path d="M19.5,2.25c-.11,0-.22,.02-.33,.03-.06-.01-.11-.03-.17-.03H7c-1.52,0-2.75,1.23-2.75,2.75v11.25h-1.25c-.41,0-.75,.34-.75,.75v1c0,2.07,1.68,3.75,3.75,3.75h10c1.52,0,2.75-1.23,2.75-2.75V4.5c0-.41,.34-.75,.75-.75s.75,.34,.75,.75v2.5c0,.41,.34,.75,.75,.75s.75-.34,.75-.75v-2.5c0-1.24-1.01-2.25-2.25-2.25ZM6,20.25c-1.24,0-2.25-1.01-2.25-2.25v-.25H12.25v.25c0,.84,.28,1.62,.75,2.25H6Zm11.25-1.25c0,.69-.56,1.25-1.25,1.25-1.24,0-2.25-1.01-2.25-2.25v-1c0-.41-.34-.75-.75-.75H5.75V5c0-.69,.56-1.25,1.25-1.25h10.39c-.08,.24-.14,.49-.14,.75v14.5Z"/><path d="M15,7.25h-7c-.41,0-.75,.34-.75,.75s.34,.75,.75,.75h7c.41,0,.75-.34,.75-.75s-.34-.75-.75-.75Z"/><path d="M15,11.25h-7c-.41,0-.75,.34-.75,.75s.34,.75,.75,.75h7c.41,0,.75-.34,.75-.75s-.34-.75-.75-.75Z"/></g></g><g id="h"/><g id="i"/><g id="j"/><g id="k"/><g id="l"/><g id="m"/><g id="n"/><g id="o"/><g id="p"/><g id="q"/><g id="r"/><g id="s"/><g id="t"/><g id="u"/></svg>