<?xml version="1.0" encoding="UTF-8"?><svg xmlns="http://www.w3.org/2000/svg" viewBox="0 0 24 24"><g id="a"/><g id="b"/><g id="c"/><g id="d"/><g id="e"/><g id="f"/><g id="g"/><g id="h"/><g id="i"/><g id="j"/><g id="k"/><g id="l"/><g id="m"/><g id="n"/><g id="o"/><g id="p"><path d="M21.59,17.03l-.67-1c-.33-.49-.87-.78-1.46-.78h-.19c.65-1.39,1.39-3.83,.43-6.5-1.18-3.29-4.27-5.5-7.71-5.5s-6.53,2.21-7.71,5.5c-.96,2.68-.21,5.11,.43,6.5h-.19c-.59,0-1.13,.29-1.46,.78l-.67,1c-.36,.54-.39,1.23-.09,1.8,.31,.57,.9,.92,1.54,.92h4.41c.75,0,1.42-.48,1.66-1.2l.77-2.32c.1-.3,0-.64-.26-.83-1.69-1.29-2.41-3.4-1.75-5.14,.46-1.21,1.69-2.52,3.3-2.52s2.84,1.3,3.3,2.52c.66,1.74-.06,3.85-1.75,5.14-.26,.19-.36,.53-.26,.83l.77,2.32c.24,.72,.91,1.2,1.66,1.2h4.41c.65,0,1.24-.35,1.54-.92,.3-.57,.27-1.26-.09-1.8Zm-1.24,1.09s-.09,.13-.22,.13h-4.41c-.11,0-.2-.07-.24-.17l-.61-1.83c1.91-1.71,2.66-4.32,1.83-6.52-.66-1.73-2.37-3.48-4.7-3.48s-4.04,1.75-4.7,3.48c-.84,2.2-.08,4.81,1.83,6.52l-.61,1.83c-.03,.1-.13,.17-.24,.17H3.87c-.13,0-.19-.08-.22-.13-.03-.05-.06-.15,.01-.26l.67-1c.05-.07,.12-.11,.21-.11h1.46c.28,0,.53-.15,.66-.4,.13-.25,.11-.55-.05-.77-.21-.31-2.06-3.11-.91-6.32,.96-2.69,3.49-4.5,6.29-4.5s5.33,1.81,6.29,4.5c1.15,3.21-.7,6.01-.91,6.32-.16,.23-.18,.53-.05,.77,.13,.25,.39,.4,.66,.4h1.46c.08,0,.16,.04,.21,.11l.67,1c.07,.11,.04,.21,.01,.26Z"/></g><g id="q"/><g id="r"/><g id="s"/><g id="t"/><g id="u"/></svg>