<?xml version="1.0" encoding="UTF-8"?><svg xmlns="http://www.w3.org/2000/svg" viewBox="0 0 24 24"><g id="a"/><g id="b"/><g id="c"/><g id="d"/><g id="e"/><g id="f"/><g id="g"/><g id="h"/><g id="i"/><g id="j"/><g id="k"/><g id="l"/><g id="m"/><g id="n"/><g id="o"><path d="M16.25,12c0,1.52,1.23,2.75,2.75,2.75s2.75-1.23,2.75-2.75c0-1.25-.85-2.3-2-2.63V3.75h1.25c.41,0,.75-.34,.75-.75s-.34-.75-.75-.75H5c-1.52,0-2.75,1.23-2.75,2.75v15c0,.96,.79,1.75,1.75,1.75H20c.96,0,1.75-.79,1.75-1.75v-2c0-.96-.79-1.75-1.75-1.75H3.75V5c0-.69,.56-1.25,1.25-1.25h1.25v5.62c-1.15,.33-2,1.38-2,2.63,0,1.52,1.23,2.75,2.75,2.75s2.75-1.23,2.75-2.75c0-1.25-.85-2.3-2-2.63V3.75h4.5v5.62c-1.15,.33-2,1.38-2,2.63,0,1.52,1.23,2.75,2.75,2.75s2.75-1.23,2.75-2.75c0-1.25-.85-2.3-2-2.63V3.75h4.5v5.62c-1.15,.33-2,1.38-2,2.63Zm4,6v2c0,.14-.11,.25-.25,.25H4c-.14,0-.25-.11-.25-.25v-2.25H20c.14,0,.25,.11,.25,.25Zm-12-6c0,.69-.56,1.25-1.25,1.25s-1.25-.56-1.25-1.25,.56-1.25,1.25-1.25,1.25,.56,1.25,1.25Zm6,0c0,.69-.56,1.25-1.25,1.25s-1.25-.56-1.25-1.25,.56-1.25,1.25-1.25,1.25,.56,1.25,1.25Zm6,0c0,.69-.56,1.25-1.25,1.25s-1.25-.56-1.25-1.25,.56-1.25,1.25-1.25,1.25,.56,1.25,1.25Z"/></g><g id="p"/><g id="q"/><g id="r"/><g id="s"/><g id="t"/><g id="u"/></svg>