<?xml version="1.0" encoding="UTF-8"?><svg xmlns="http://www.w3.org/2000/svg" viewBox="0 0 24 24"><g id="a"/><g id="b"/><g id="c"/><g id="d"/><g id="e"/><g id="f"/><g id="g"/><g id="h"/><g id="i"/><g id="j"/><g id="k"/><g id="l"/><g id="m"/><g id="n"/><g id="o"/><g id="p"/><g id="q"/><g id="r"/><g id="s"/><g id="t"/><g id="u"><g><path d="M20,2.25H4c-.96,0-1.75,.79-1.75,1.75V14c0,.96,.79,1.75,1.75,1.75h.96l-1.67,5.01c-.08,.23-.04,.48,.1,.68,.14,.2,.37,.31,.61,.31h3c.32,0,.61-.21,.71-.51l1.83-5.49h4.92l1.83,5.49c.1,.31,.39,.51,.71,.51h3c.24,0,.47-.12,.61-.31,.14-.2,.18-.45,.1-.68l-1.67-5.01h.96c.96,0,1.75-.79,1.75-1.75V4c0-.96-.79-1.75-1.75-1.75ZM4,3.75H20c.14,0,.25,.11,.25,.25v7.34c-1.06,.12-2.11,.1-3.12-.08-2.19-.38-3.68-1.32-5.12-2.23-1.57-.99-3.03-1.93-5.06-1.78-1.09,.08-2.15,.48-3.19,1.19V4c0-.14,.11-.25,.25-.25Zm2.46,16.5h-1.42l1.5-4.5h1.42l-1.5,4.5Zm12.5,0h-1.42l-1.5-4.5h1.42l1.5,4.5Zm1.04-6H4c-.14,0-.25-.11-.25-.25v-3.65c1.09-.97,2.2-1.52,3.31-1.6,1.51-.11,2.68,.62,4.15,1.55,1.49,.94,3.18,2.02,5.67,2.44,.69,.12,1.4,.18,2.11,.18,.42,0,.85-.03,1.27-.07v1.15c0,.14-.11,.25-.25,.25Z"/><path d="M16.5,9.75c1.24,0,2.25-1.01,2.25-2.25s-1.01-2.25-2.25-2.25-2.25,1.01-2.25,2.25,1.01,2.25,2.25,2.25Zm0-3c.41,0,.75,.34,.75,.75s-.34,.75-.75,.75-.75-.34-.75-.75,.34-.75,.75-.75Z"/></g></g></svg>