<?xml version="1.0" encoding="UTF-8"?><svg xmlns="http://www.w3.org/2000/svg" viewBox="0 0 24 24"><g id="a"/><g id="b"/><g id="c"/><g id="d"/><g id="e"/><g id="f"/><g id="g"/><g id="h"/><g id="i"/><g id="j"/><g id="k"/><g id="l"/><g id="m"/><g id="n"/><g id="o"/><g id="p"/><g id="q"><g><path d="M21.71,10.39c-.76-1.6-3.47-1.34-5.69-.81-1.94-1.43-4.58-1.78-6.91-.68-2.33,1.1-3.73,3.38-3.85,5.79-2.5,1.92-3.57,3.66-2.97,4.92,.41,.86,1.43,1.22,2.78,1.22,.87,0,1.87-.15,2.94-.4,1.16,.85,2.56,1.33,4,1.33,.97,0,1.95-.21,2.88-.65,1.25-.59,2.27-1.53,2.95-2.72,.21-.36,.08-.82-.28-1.02-.36-.21-.82-.08-1.02,.28-.53,.93-1.33,1.66-2.3,2.12-1.39,.66-2.91,.64-4.23,.09,1.2-.4,2.42-.9,3.59-1.45,2.48-1.17,4.68-2.58,6.19-3.94,2.22-2,2.26-3.31,1.91-4.05ZM3.64,18.96c-.12-.25,.23-1.14,1.78-2.48,.11,.48,.26,.95,.48,1.41,.22,.46,.49,.87,.79,1.26-1.81,.31-2.9,.14-3.05-.18Zm9.32-1.93c-1.74,.83-3.29,1.38-4.59,1.74-.45-.43-.83-.93-1.12-1.52-1.24-2.62-.12-5.75,2.5-6.99,2.61-1.24,5.75-.12,6.99,2.5,.27,.58,.43,1.19,.48,1.82-1.22,.86-2.67,1.71-4.26,2.46Zm5.83-3.7c-.07,.06-.14,.12-.21,.18-.11-.48-.27-.95-.48-1.4-.22-.46-.48-.88-.79-1.26,2.03-.35,2.93-.05,3.04,.19,.11,.24-.21,1.07-1.56,2.29Z"/><path d="M15,7.75c1.52,0,2.75-1.23,2.75-2.75s-1.23-2.75-2.75-2.75-2.75,1.23-2.75,2.75,1.23,2.75,2.75,2.75Zm0-4c.69,0,1.25,.56,1.25,1.25s-.56,1.25-1.25,1.25-1.25-.56-1.25-1.25,.56-1.25,1.25-1.25Z"/><path d="M4.5,10.75c1.24,0,2.25-1.01,2.25-2.25s-1.01-2.25-2.25-2.25c-.41,0-.75,.34-.75,.75s.34,.75,.75,.75,.75,.34,.75,.75-.34,.75-.75,.75-.75-.34-.75-.75-.34-.75-.75-.75-.75,.34-.75,.75c0,1.24,1.01,2.25,2.25,2.25Z"/></g></g><g id="r"/><g id="s"/><g id="t"/><g id="u"/></svg>