<?xml version="1.0" encoding="UTF-8"?><svg xmlns="http://www.w3.org/2000/svg" viewBox="0 0 24 24"><g id="a"/><g id="b"><g><path d="M19.5,2.25H3.5c-.69,0-1.25,.56-1.25,1.25v2c0,.69,.56,1.25,1.25,1.25h.81l.89,11.56c-.54,.14-.94,.61-.94,1.19v1.5c0,.41,.34,.75,.75,.75h13c.41,0,.75-.34,.75-.75v-1.5c0-.58-.41-1.05-.94-1.19l.89-11.56h.81c.69,0,1.25-.56,1.25-1.25V3.5c0-.69-.56-1.25-1.25-1.25Zm-2.25,18H5.75v-.5h11.5v.5Zm-.94-2H6.69l-.88-11.5h11.38l-.88,11.5Zm2.94-13H3.75v-1.5h15.5v1.5Z"/><path d="M10,16.75h3c.96,0,1.75-.79,1.75-1.75v-5c0-.96-.79-1.75-1.75-1.75h-3c-.96,0-1.75,.79-1.75,1.75v5c0,.96,.79,1.75,1.75,1.75Zm-.25-6.75c0-.14,.11-.25,.25-.25h3c.14,0,.25,.11,.25,.25v5c0,.14-.11,.25-.25,.25h-3c-.14,0-.25-.11-.25-.25v-5Z"/></g></g><g id="c"/><g id="d"/><g id="e"/><g id="f"/><g id="g"/><g id="h"/><g id="i"/><g id="j"/><g id="k"/><g id="l"/><g id="m"/><g id="n"/><g id="o"/><g id="p"/><g id="q"/><g id="r"/><g id="s"/><g id="t"/><g id="u"/></svg>