<?xml version="1.0" encoding="UTF-8"?><svg xmlns="http://www.w3.org/2000/svg" viewBox="0 0 24 24"><g id="a"/><g id="b"/><g id="c"/><g id="d"/><g id="e"/><g id="f"/><g id="g"/><g id="h"><path d="M21,2.25H3c-.41,0-.75,.34-.75,.75s.34,.75,.75,.75h.25V14c0,.96,.79,1.75,1.75,1.75h6.25v2.68c-.59,.28-1,.88-1,1.57,0,.96,.79,1.75,1.75,1.75s1.75-.79,1.75-1.75c0-.7-.41-1.29-1-1.57v-2.68h6.25c.96,0,1.75-.79,1.75-1.75V3.75h.25c.41,0,.75-.34,.75-.75s-.34-.75-.75-.75ZM11.75,20c0-.14,.11-.25,.25-.25s.25,.11,.25,.25c0,.28-.5,.28-.5,0Zm7.5-6c0,.14-.11,.25-.25,.25H5c-.14,0-.25-.11-.25-.25V3.75h14.5V14Z"/></g><g id="i"/><g id="j"/><g id="k"/><g id="l"/><g id="m"/><g id="n"/><g id="o"/><g id="p"/><g id="q"/><g id="r"/><g id="s"/><g id="t"/><g id="u"/></svg>