<?xml version="1.0" encoding="UTF-8"?><svg xmlns="http://www.w3.org/2000/svg" viewBox="0 0 24 24"><g id="a"/><g id="b"/><g id="c"/><g id="d"/><g id="e"/><g id="f"><g><path d="M7.83,15.53c-1.08-.6-2.46-.21-3.06,.88-.6,1.08-.21,2.46,.88,3.06,.34,.19,.72,.28,1.09,.28,.79,0,1.56-.42,1.97-1.16,.29-.53,.36-1.13,.2-1.71-.17-.58-.55-1.06-1.07-1.35Zm-.43,2.33c-.2,.36-.66,.49-1.02,.29s-.49-.66-.29-1.02c.14-.25,.39-.39,.66-.39,.12,0,.25,.03,.36,.09,.18,.1,.3,.26,.36,.45,.06,.19,.03,.39-.06,.57Z"/><path d="M16.65,15.53c-.53,.29-.91,.77-1.07,1.35-.17,.58-.1,1.19,.19,1.71h0c.41,.74,1.18,1.16,1.97,1.16,.37,0,.74-.09,1.09-.28,1.08-.6,1.48-1.97,.88-3.06-.6-1.09-1.98-1.48-3.06-.88Zm1.45,2.62c-.36,.2-.82,.07-1.02-.29-.2-.36-.07-.82,.29-1.02,.36-.2,.82-.07,1.02,.29,.2,.36,.07,.82-.29,1.02Z"/><path d="M21.84,16.36c-.37-1.28-1.27-2.29-2.47-2.79-1.13-.47-2.38-.43-3.47,.1l-1.06-1.86,3.46-6.11c.23-.41,.29-.89,.16-1.34-.13-.45-.42-.83-.83-1.05l-.88-.49c-.83-.46-1.9-.17-2.37,.67l-2.14,3.76-2.14-3.76c-.47-.83-1.54-1.13-2.37-.67l-.88,.49c-.41,.23-.71,.6-.84,1.05-.13,.45-.07,.93,.16,1.34l3.46,6.11-1.06,1.86c-1.09-.53-2.34-.57-3.47-.1-1.2,.5-2.11,1.51-2.47,2.79-.46,1.57,.09,3.34,1.36,4.39,.78,.65,1.75,1,2.74,1,.26,0,.52-.02,.78-.07,1.25-.23,2.32-1.01,2.93-2.11l1.79-3.16,1.79,3.16c.62,1.11,1.68,1.88,2.93,2.11,.26,.05,.52,.07,.78,.07,.99,0,1.96-.35,2.74-1,1.27-1.05,1.81-2.82,1.36-4.39ZM15.68,4.23c.07-.12,.22-.16,.34-.09l.88,.49c.08,.04,.11,.11,.12,.15,.01,.04,.02,.11-.02,.19l-3.02,5.33-.87-1.53,2.58-4.53Zm-6.54,14.6c-.4,.72-1.09,1.22-1.9,1.37-.82,.15-1.63-.06-2.29-.6-.82-.68-1.17-1.81-.88-2.82,.25-.85,.82-1.49,1.61-1.82,.78-.32,1.65-.27,2.39,.14,.12,.06,.23,.14,.33,.21,.17,.13,.39,.18,.6,.14,.21-.04,.39-.18,.5-.36l.99-1.75,.88,1.55-2.23,3.95Zm10.38,.76c-.66,.54-1.47,.76-2.29,.6-.81-.15-1.5-.65-1.9-1.37h0L7.49,4.96c-.04-.08-.03-.15-.02-.19,.01-.04,.04-.11,.12-.15l.88-.49s.08-.03,.12-.03c.09,0,.17,.04,.22,.13l6.17,10.85c.11,.19,.29,.32,.5,.36,.21,.05,.43,0,.6-.14,.1-.08,.21-.15,.33-.22,.74-.41,1.61-.46,2.38-.14,.79,.33,1.36,.97,1.61,1.82,.29,1.01-.06,2.14-.88,2.82Z"/></g></g><g id="g"/><g id="h"/><g id="i"/><g id="j"/><g id="k"/><g id="l"/><g id="m"/><g id="n"/><g id="o"/><g id="p"/><g id="q"/><g id="r"/><g id="s"/><g id="t"/><g id="u"/></svg>