<?xml version="1.0" encoding="UTF-8"?><svg xmlns="http://www.w3.org/2000/svg" viewBox="0 0 24 24"><g id="a"/><g id="b"/><g id="c"/><g id="d"/><g id="e"/><g id="f"/><g id="g"/><g id="h"/><g id="i"/><g id="j"/><g id="k"><path d="M20,3.25H4c-.96,0-1.75,.79-1.75,1.75v1c0,.96,.79,1.75,1.75,1.75h.25v12.25c0,.41,.34,.75,.75,.75h3c.41,0,.75-.34,.75-.75v-7.25h6.5v7.25c0,.41,.34,.75,.75,.75h3c.41,0,.75-.34,.75-.75V7.75h.25c.96,0,1.75-.79,1.75-1.75v-1c0-.96-.79-1.75-1.75-1.75ZM7.25,19.25h-1.5v-6.5h1.5v6.5Zm11,0h-1.5v-6.5h1.5v6.5Zm0-8H5.75v-3.5h12.5v3.5Zm2-5.25c0,.14-.11,.25-.25,.25H4c-.14,0-.25-.11-.25-.25v-1c0-.14,.11-.25,.25-.25H20c.14,0,.25,.11,.25,.25v1Z"/></g><g id="l"/><g id="m"/><g id="n"/><g id="o"/><g id="p"/><g id="q"/><g id="r"/><g id="s"/><g id="t"/><g id="u"/></svg>