<?xml version="1.0" encoding="UTF-8"?><svg xmlns="http://www.w3.org/2000/svg" viewBox="0 0 24 24"><g id="a"/><g id="b"/><g id="c"/><g id="d"/><g id="e"/><g id="f"/><g id="g"/><g id="h"/><g id="i"/><g id="j"><path d="M14.75,5.97V3.5c0-.69-.56-1.25-1.25-1.25h-3c-.69,0-1.25,.56-1.25,1.25v2.47l-.97,11.59c-.04,.43,.09,.85,.34,1.2l1.97,2.63c.33,.44,.84,.7,1.4,.7s1.07-.26,1.4-.7l1.97-2.63c.26-.34,.38-.77,.34-1.2l-.97-11.59Zm-4-2.22h2.5v1.5h-2.5v-1.5Zm3.42,14.1l-1.97,2.63c-.13,.17-.27,.17-.4,0l-1.97-2.63s-.05-.11-.05-.17l.91-10.93h2.62l.91,10.93c0,.06-.01,.12-.05,.17Z"/></g><g id="k"/><g id="l"/><g id="m"/><g id="n"/><g id="o"/><g id="p"/><g id="q"/><g id="r"/><g id="s"/><g id="t"/><g id="u"/></svg>