<?xml version="1.0" encoding="UTF-8"?><svg xmlns="http://www.w3.org/2000/svg" viewBox="0 0 24 24"><g id="a"/><g id="b"/><g id="c"/><g id="d"/><g id="e"/><g id="f"/><g id="g"/><g id="h"/><g id="i"/><g id="j"/><g id="k"/><g id="l"/><g id="m"><path d="M20.56,3.29c-.42-.65-1.12-1.04-1.89-1.04H5.34c-.77,0-1.48,.39-1.89,1.04-.42,.65-.47,1.45-.15,2.15L7.69,15.03c-.28,.6-.44,1.27-.44,1.97,0,2.62,2.13,4.75,4.75,4.75s4.75-2.13,4.75-4.75c0-.7-.16-1.37-.44-1.97l4.4-9.59c.32-.7,.26-1.5-.15-2.15ZM12,12.25c-.16,0-.32,.03-.47,.05l-1.82-4.55h4.58l-1.82,4.55c-.16-.02-.31-.05-.47-.05Zm2.89-6h-5.78l-1-2.5h7.78l-1,2.5ZM4.71,4.1c.14-.22,.37-.35,.63-.35h1.15l3.57,8.92c-.51,.23-.98,.55-1.37,.93L4.66,4.81c-.11-.24-.09-.5,.05-.72Zm7.29,16.15c-1.79,0-3.25-1.46-3.25-3.25s1.46-3.25,3.25-3.25,3.25,1.46,3.25,3.25-1.46,3.25-3.25,3.25Zm7.34-15.44l-4.03,8.79c-.4-.39-.86-.7-1.37-.93l3.57-8.92h1.15c.26,0,.49,.13,.63,.35,.14,.22,.16,.48,.05,.72Z"/></g><g id="n"/><g id="o"/><g id="p"/><g id="q"/><g id="r"/><g id="s"/><g id="t"/><g id="u"/></svg>