<?xml version="1.0" encoding="UTF-8"?><svg xmlns="http://www.w3.org/2000/svg" viewBox="0 0 24 24"><g id="a"/><g id="b"/><g id="c"/><g id="d"/><g id="e"/><g id="f"/><g id="g"/><g id="h"/><g id="i"><g><circle cx="12" cy="9" r="2.25"/><path d="M12,14.75c-2.81,0-5.29,1.44-6.03,3.5l-.49,.97c1.73,1.56,4.01,2.52,6.52,2.52s4.77-.95,6.5-2.5l-.44-.93c-.77-2.13-3.25-3.57-6.06-3.57Z"/><path d="M12,2.25C6.62,2.25,2.25,6.62,2.25,12c0,2.3,.8,4.41,2.14,6.07l.21-.41c.92-2.56,3.98-4.41,7.41-4.41s6.49,1.85,7.44,4.5l.16,.34c1.34-1.67,2.15-3.78,2.15-6.09,0-5.38-4.37-9.75-9.75-9.75Zm0,10.5c-2.07,0-3.75-1.68-3.75-3.75s1.68-3.75,3.75-3.75,3.75,1.68,3.75,3.75-1.68,3.75-3.75,3.75Z"/></g></g><g id="j"/><g id="k"/><g id="l"/><g id="m"/><g id="n"/><g id="o"/><g id="p"/><g id="q"/><g id="r"/><g id="s"/><g id="t"/><g id="u"/></svg>