<?xml version="1.0" encoding="UTF-8"?><svg xmlns="http://www.w3.org/2000/svg" viewBox="0 0 24 24"><g id="a"/><g id="b"/><g id="c"/><g id="d"/><g id="e"/><g id="f"/><g id="g"/><g id="h"/><g id="i"/><g id="j"/><g id="k"/><g id="l"/><g id="m"/><g id="n"/><g id="o"/><g id="p"/><g id="q"/><g id="r"/><g id="s"><g><circle cx="12.5" cy="9.5" r="1.75"/><path d="M16,2.25h-7c-2.62,0-4.75,2.13-4.75,4.75v.25h-1.25c-.41,0-.75,.34-.75,.75s.34,.75,.75,.75h1.25v2.5h-1.25c-.41,0-.75,.34-.75,.75s.34,.75,.75,.75h1.25v2.5h-1.25c-.41,0-.75,.34-.75,.75s.34,.75,.75,.75h1.25v.25c0,2.62,2.13,4.75,4.75,4.75h7c2.62,0,4.75-2.13,4.75-4.75V7c0-2.62-2.13-4.75-4.75-4.75Zm-3.5,4c1.79,0,3.25,1.46,3.25,3.25s-1.46,3.25-3.25,3.25-3.25-1.46-3.25-3.25,1.46-3.25,3.25-3.25Zm3.74,11.46c-.08,.03-.16,.04-.24,.04-.31,0-.61-.2-.71-.51l-.54-1.63c-.17-.51-.65-.85-1.19-.85h-2.12c-.54,0-1.02,.34-1.19,.85l-.54,1.63c-.13,.39-.56,.6-.95,.47-.39-.13-.6-.56-.47-.95l.54-1.63c.38-1.12,1.42-1.88,2.61-1.88h2.12c1.19,0,2.23,.76,2.61,1.88l.54,1.63c.13,.39-.08,.82-.47,.95Z"/></g></g><g id="t"/><g id="u"/></svg>