<?xml version="1.0" encoding="UTF-8"?><svg xmlns="http://www.w3.org/2000/svg" viewBox="0 0 24 24"><g id="a"/><g id="b"/><g id="c"/><g id="d"/><g id="e"/><g id="f"/><g id="g"/><g id="h"/><g id="i"/><g id="j"><g><circle cx="12" cy="6" r="3.75"/><path d="M6,15.75h12c.41,0,.75-.34,.75-.75v-1.48c0-.59-.29-1.13-.77-1.45-1.25-.83-3.29-1.82-5.98-1.82s-4.74,.99-5.98,1.82c-.48,.32-.77,.86-.77,1.45v1.48c0,.2,.08,.39,.22,.53s.33,.22,.53,.22Z"/><path d="M21,14.45c-.3-.28-.78-.27-1.06,.03-.28,.3-.27,.78,.03,1.06,.1,.1,.28,.29,.28,.45,0,.51-1.57,1.64-5.34,2.08-.41,.05-.71,.42-.66,.83,.04,.38,.37,.66,.74,.66,.03,0,.06,0,.09,0,4.17-.49,6.66-1.83,6.66-3.57,0-.38-.13-.96-.75-1.55Z"/><path d="M12.53,18.47l-1-1c-.29-.29-.77-.29-1.06,0-.2,.2-.25,.47-.18,.72-4.24-.27-6.54-1.52-6.54-2.19,0-.17,.17-.36,.28-.45,.3-.28,.32-.76,.03-1.06-.29-.3-.76-.32-1.06-.03-.62,.58-.75,1.16-.75,1.55,0,2.18,3.83,3.43,8.07,3.7-.12,.28-.08,.61,.15,.83,.15,.15,.34,.22,.53,.22s.38-.07,.53-.22l1-1c.07-.07,.13-.16,.16-.24,.04-.09,.06-.19,.06-.29s-.02-.2-.06-.29c-.04-.09-.09-.17-.16-.24Z"/></g></g><g id="k"/><g id="l"/><g id="m"/><g id="n"/><g id="o"/><g id="p"/><g id="q"/><g id="r"/><g id="s"/><g id="t"/><g id="u"/></svg>