<?xml version="1.0" encoding="UTF-8"?><svg xmlns="http://www.w3.org/2000/svg" viewBox="0 0 24 24"><g id="a"/><g id="b"/><g id="c"/><g id="d"/><g id="e"/><g id="f"/><g id="g"/><g id="h"/><g id="i"/><g id="j"/><g id="k"/><g id="l"/><g id="m"/><g id="n"/><g id="o"/><g id="p"/><g id="q"/><g id="r"><g><circle cx="11.5" cy="8.5" r="4.25"/><path d="M17.92,16.06c-1.34-.82-3.54-1.81-6.42-1.81s-5.08,.98-6.43,1.81c-.52,.32-.82,.86-.82,1.46v3.49c0,.96,.82,1.75,1.83,1.75h10.83c1.01,0,1.83-.79,1.83-1.75v-3.48c0-.6-.31-1.14-.83-1.46Z"/><path d="M19,9.25c-.41,0-.75,.34-.75,.75v1c0,.69-.56,1.25-1.25,1.25h-1c-.41,0-.75,.34-.75,.75s.34,.75,.75,.75h1c1.52,0,2.75-1.23,2.75-2.75v-1c0-.41-.34-.75-.75-.75Z"/><path d="M17,2.25h-1c-.41,0-.75,.34-.75,.75s.34,.75,.75,.75h1c.69,0,1.25,.56,1.25,1.25v1c0,.41,.34,.75,.75,.75s.75-.34,.75-.75v-1c0-1.52-1.23-2.75-2.75-2.75Z"/><path d="M4,6.75c.41,0,.75-.34,.75-.75v-1c0-.69,.56-1.25,1.25-1.25h1c.41,0,.75-.34,.75-.75s-.34-.75-.75-.75h-1c-1.52,0-2.75,1.23-2.75,2.75v1c0,.41,.34,.75,.75,.75Z"/><path d="M7,13.75c.41,0,.75-.34,.75-.75s-.34-.75-.75-.75h-1c-.69,0-1.25-.56-1.25-1.25v-1c0-.41-.34-.75-.75-.75s-.75,.34-.75,.75v1c0,1.52,1.23,2.75,2.75,2.75h1Z"/></g></g><g id="s"/><g id="t"/><g id="u"/></svg>