<?xml version="1.0" encoding="UTF-8"?><svg xmlns="http://www.w3.org/2000/svg" viewBox="0 0 24 24"><g id="a"/><g id="b"/><g id="c"><g><circle cx="12" cy="11" r="2.25"/><path d="M19.92,8.21l-5-3.89c-1.72-1.34-4.12-1.34-5.83,0l-5,3.89c-1.17,.91-1.83,2.27-1.83,3.75v5.04c0,2.62,2.13,4.75,4.75,4.75h10c2.62,0,4.75-2.13,4.75-4.75v-5.04c0-1.48-.67-2.84-1.83-3.75Zm-7.92-.96c2.07,0,3.75,1.68,3.75,3.75s-1.68,3.75-3.75,3.75-3.75-1.68-3.75-3.75,1.68-3.75,3.75-3.75Zm5.92,11.51c-.08,.03-.16,.04-.24,.04-.31,0-.61-.2-.71-.51-.31-.92-1.16-1.54-2.13-1.54h-5.68c-.97,0-1.83,.62-2.13,1.54-.13,.39-.55,.6-.95,.47-.39-.13-.61-.56-.47-.95,.51-1.53,1.94-2.56,3.56-2.56h5.68c1.62,0,3.05,1.03,3.56,2.56,.13,.39-.08,.82-.47,.95Z"/></g></g><g id="d"/><g id="e"/><g id="f"/><g id="g"/><g id="h"/><g id="i"/><g id="j"/><g id="k"/><g id="l"/><g id="m"/><g id="n"/><g id="o"/><g id="p"/><g id="q"/><g id="r"/><g id="s"/><g id="t"/><g id="u"/></svg>