<?xml version="1.0" encoding="UTF-8"?><svg xmlns="http://www.w3.org/2000/svg" viewBox="0 0 24 24"><g id="a"/><g id="b"/><g id="c"/><g id="d"/><g id="e"/><g id="f"/><g id="g"/><g id="h"/><g id="i"/><g id="j"/><g id="k"/><g id="l"><g><path d="M10,6.75h4c.41,0,.75-.34,.75-.75v-2c0-.96-.79-1.75-1.75-1.75h-2c-.96,0-1.75,.79-1.75,1.75v2c0,.41,.34,.75,.75,.75Zm.75-2.75c0-.14,.11-.25,.25-.25h2c.14,0,.25,.11,.25,.25v1.25h-2.5v-1.25Z"/><circle cx="12" cy="12" r="1.25"/><path d="M16.25,4.48v1.52c0,1.24-1.01,2.25-2.25,2.25h-4c-1.24,0-2.25-1.01-2.25-2.25v-1.52c-1.45,.52-2.5,1.89-2.5,3.52v10c0,2.07,1.68,3.75,3.75,3.75h6c2.07,0,3.75-1.68,3.75-3.75V8c0-1.63-1.05-3-2.5-3.52Zm-4.25,4.77c1.52,0,2.75,1.23,2.75,2.75s-1.23,2.75-2.75,2.75-2.75-1.23-2.75-2.75,1.23-2.75,2.75-2.75Zm3.33,9.42c-.11,.05-.22,.08-.33,.08-.28,0-.54-.15-.67-.41l-.45-.89c-.21-.43-.64-.69-1.12-.69h-1.53c-.48,0-.91,.26-1.12,.69l-.45,.89c-.19,.37-.63,.52-1.01,.34-.37-.19-.52-.64-.34-1.01l.45-.89c.47-.94,1.41-1.52,2.46-1.52h1.53c1.05,0,1.99,.58,2.46,1.52l.45,.89c.19,.37,.04,.82-.34,1.01Z"/></g></g><g id="m"/><g id="n"/><g id="o"/><g id="p"/><g id="q"/><g id="r"/><g id="s"/><g id="t"/><g id="u"/></svg>