<?xml version="1.0" encoding="UTF-8"?><svg xmlns="http://www.w3.org/2000/svg" viewBox="0 0 24 24"><g id="a"/><g id="b"/><g id="c"/><g id="d"/><g id="e"/><g id="f"/><g id="g"/><g id="h"/><g id="i"/><g id="j"/><g id="k"/><g id="l"/><g id="m"/><g id="n"/><g id="o"/><g id="p"/><g id="q"/><g id="r"/><g id="s"/><g id="t"><g><circle cx="9" cy="10" r="1.25"/><path d="M18,5.25H6c-2.07,0-3.75,1.68-3.75,3.75v6c0,2.07,1.68,3.75,3.75,3.75h12c2.07,0,3.75-1.68,3.75-3.75v-6c0-2.07-1.68-3.75-3.75-3.75Zm-9,2c1.52,0,2.75,1.23,2.75,2.75s-1.23,2.75-2.75,2.75-2.75-1.23-2.75-2.75,1.23-2.75,2.75-2.75Zm3.34,9.42c-.11,.05-.22,.08-.34,.08-.27,0-.54-.15-.67-.41l-.18-.36c-.38-.76-1.14-1.23-1.98-1.23h-.33c-.84,0-1.6,.47-1.98,1.22l-.18,.36c-.19,.37-.64,.52-1.01,.33-.37-.19-.52-.64-.33-1.01l.18-.36c.63-1.27,1.91-2.05,3.32-2.05h.33c1.42,0,2.69,.79,3.32,2.05l.18,.36c.19,.37,.04,.82-.33,1.01Zm5.66-2.92h-4c-.41,0-.75-.34-.75-.75s.34-.75,.75-.75h4c.41,0,.75,.34,.75,.75s-.34,.75-.75,.75Zm0-3h-4c-.41,0-.75-.34-.75-.75s.34-.75,.75-.75h4c.41,0,.75,.34,.75,.75s-.34,.75-.75,.75Z"/></g></g><g id="u"/></svg>