<?xml version="1.0" encoding="UTF-8"?><svg xmlns="http://www.w3.org/2000/svg" viewBox="0 0 24 24"><g id="a"/><g id="b"/><g id="c"/><g id="d"/><g id="e"><g><path d="M21,16.25h-6.59c-.47,0-.91,.18-1.24,.51l-.41,.41s-.11,.07-.18,.07h-2.17c-.07,0-.13-.03-.18-.07l-.41-.41c-.33-.33-.77-.51-1.24-.51H3c-.41,0-.75,.34-.75,.75,0,1.52,1.23,2.75,2.75,2.75h14c1.52,0,2.75-1.23,2.75-2.75,0-.41-.34-.75-.75-.75Z"/><circle cx="12" cy="8" r="1.25"/><path d="M10.88,15.7l.05,.05h1.14l.05-.05c.61-.61,1.43-.95,2.3-.95h6.34V7.12c0-1.58-1.29-2.87-2.87-2.87H6.12c-1.58,0-2.87,1.29-2.87,2.87v7.63h5.34c.87,0,1.69,.34,2.3,.95Zm-2.63-2.7c0-1.32,.69-2.48,1.73-3.15-.45-.49-.73-1.14-.73-1.85,0-1.52,1.23-2.75,2.75-2.75s2.75,1.23,2.75,2.75c0,.72-.28,1.36-.73,1.85,1.04,.67,1.73,1.83,1.73,3.15,0,.41-.34,.75-.75,.75s-.75-.34-.75-.75c0-1.24-1.01-2.25-2.25-2.25s-2.25,1.01-2.25,2.25c0,.41-.34,.75-.75,.75s-.75-.34-.75-.75Z"/></g></g><g id="f"/><g id="g"/><g id="h"/><g id="i"/><g id="j"/><g id="k"/><g id="l"/><g id="m"/><g id="n"/><g id="o"/><g id="p"/><g id="q"/><g id="r"/><g id="s"/><g id="t"/><g id="u"/></svg>