<?xml version="1.0" encoding="UTF-8"?><svg xmlns="http://www.w3.org/2000/svg" viewBox="0 0 24 24"><g id="a"/><g id="b"/><g id="c"/><g id="d"/><g id="e"/><g id="f"/><g id="g"/><g id="h"><g><circle cx="11" cy="8" r="4.75"/><path d="M21,12.81l-1.09-1.09c-.76-.76-2.01-.77-2.78,0l-4.02,4.02c-.28,.28-.47,.64-.54,1.02l-.58,3.09c-.05,.24,.03,.5,.21,.67,.14,.14,.33,.22,.53,.22,.05,0,.09,0,.14-.01l3.09-.58c.39-.07,.74-.26,1.02-.54l4.02-4.02c.77-.77,.77-2.01,0-2.78Z"/><path d="M11.09,16.49c.13-.69,.46-1.31,.96-1.81l.43-.43h-4.47c-2.58,0-4.82,1.75-5.44,4.25l-.29,1.18c-.06,.22,0,.46,.14,.64,.14,.18,.36,.29,.59,.29h7.55c-.09-.33-.12-.68-.05-1.02l.59-3.1Z"/></g></g><g id="i"/><g id="j"/><g id="k"/><g id="l"/><g id="m"/><g id="n"/><g id="o"/><g id="p"/><g id="q"/><g id="r"/><g id="s"/><g id="t"/><g id="u"/></svg>