<?xml version="1.0" encoding="UTF-8"?><svg xmlns="http://www.w3.org/2000/svg" viewBox="0 0 24 24"><g id="a"/><g id="b"/><g id="c"/><g id="d"/><g id="e"/><g id="f"/><g id="g"/><g id="h"/><g id="i"/><g id="j"/><g id="k"/><g id="l"/><g id="m"/><g id="n"><g><circle cx="12" cy="5" r="2.75"/><path d="M17,15.25H7c-.22,0-.44,.1-.58,.27s-.2,.4-.16,.62l.84,4.2c.16,.81,.88,1.41,1.72,1.41h6.36c.83,0,1.55-.59,1.72-1.41l.84-4.2c.04-.22-.01-.45-.16-.62s-.36-.27-.58-.27Z"/><path d="M16.67,10.66l-.45-.89c-.47-.94-1.41-1.52-2.46-1.52h-3.53c-1.05,0-1.99,.58-2.46,1.52l-.45,.89s0,.06-.02,.09h9.38s0-.06-.02-.09Z"/><path d="M17,12.25H7c-.96,0-1.75,.79-1.75,1.75v.57c.44-.52,1.07-.82,1.75-.82h10c.68,0,1.31,.3,1.74,.82v-.57c0-.96-.78-1.75-1.74-1.75Z"/></g></g><g id="o"/><g id="p"/><g id="q"/><g id="r"/><g id="s"/><g id="t"/><g id="u"/></svg>