<?xml version="1.0" encoding="UTF-8"?><svg xmlns="http://www.w3.org/2000/svg" viewBox="0 0 24 24"><g id="a"/><g id="b"/><g id="c"/><g id="d"/><g id="e"/><g id="f"/><g id="g"/><g id="h"/><g id="i"/><g id="j"/><g id="k"><g><circle cx="12" cy="9" r="2.25"/><path d="M16,2.25H8c-3.17,0-5.75,2.58-5.75,5.75v8c0,3.17,2.58,5.75,5.75,5.75h8c3.17,0,5.75-2.58,5.75-5.75V8c0-3.17-2.58-5.75-5.75-5.75Zm-4,3c2.07,0,3.75,1.68,3.75,3.75s-1.68,3.75-3.75,3.75-3.75-1.68-3.75-3.75,1.68-3.75,3.75-3.75Zm6.18,13.48c-.06,.02-.12,.02-.18,.02-.34,0-.64-.23-.73-.57l-.23-.94c-.37-1.47-1.68-2.49-3.19-2.49h-3.69c-1.51,0-2.83,1.03-3.19,2.49l-.23,.94c-.1,.4-.5,.65-.91,.55-.4-.1-.65-.51-.55-.91l.23-.94c.53-2.14,2.45-3.63,4.65-3.63h3.69c2.2,0,4.12,1.49,4.65,3.63l.23,.94c.1,.4-.14,.81-.55,.91Z"/></g></g><g id="l"/><g id="m"/><g id="n"/><g id="o"/><g id="p"/><g id="q"/><g id="r"/><g id="s"/><g id="t"/><g id="u"/></svg>