<?xml version="1.0" encoding="UTF-8"?><svg xmlns="http://www.w3.org/2000/svg" viewBox="0 0 24 24"><g id="a"/><g id="b"/><g id="c"/><g id="d"/><g id="e"/><g id="f"/><g id="g"/><g id="h"/><g id="i"/><g id="j"/><g id="k"/><g id="l"/><g id="m"/><g id="n"/><g id="o"><g><circle cx="12" cy="8" r="1.25"/><path d="M18,2.25H6c-2.07,0-3.75,1.68-3.75,3.75V14c0,2.07,1.68,3.75,3.75,3.75h1.5c.7,0,1.38,.34,1.8,.9l1.3,1.73c.33,.45,.84,.7,1.4,.7s1.07-.26,1.4-.7l1.3-1.73c.42-.56,1.1-.9,1.8-.9h1.5c2.07,0,3.75-1.68,3.75-3.75V6c0-2.07-1.68-3.75-3.75-3.75Zm-6,3c1.52,0,2.75,1.23,2.75,2.75s-1.23,2.75-2.75,2.75-2.75-1.23-2.75-2.75,1.23-2.75,2.75-2.75Zm4.34,9.42c-.11,.05-.22,.08-.33,.08-.27,0-.54-.15-.67-.41l-.45-.89c-.21-.43-.64-.69-1.12-.69h-3.53c-.48,0-.9,.26-1.12,.69l-.45,.89c-.18,.37-.63,.52-1.01,.34-.37-.19-.52-.64-.34-1.01l.45-.89c.47-.94,1.41-1.52,2.46-1.52h3.53c1.05,0,1.99,.58,2.46,1.52l.45,.89c.19,.37,.04,.82-.34,1.01Z"/></g></g><g id="p"/><g id="q"/><g id="r"/><g id="s"/><g id="t"/><g id="u"/></svg>