<?xml version="1.0" encoding="UTF-8"?><svg xmlns="http://www.w3.org/2000/svg" viewBox="0 0 24 24"><g id="a"/><g id="b"/><g id="c"/><g id="d"/><g id="e"/><g id="f"/><g id="g"><g><path d="M12,4.75c.41,0,.75-.34,.75-.75v-1c0-.41-.34-.75-.75-.75s-.75,.34-.75,.75v1c0,.41,.34,.75,.75,.75Z"/><path d="M21,11.25h-1c-.41,0-.75,.34-.75,.75s.34,.75,.75,.75h1c.41,0,.75-.34,.75-.75s-.34-.75-.75-.75Z"/><path d="M12,19.25c-.41,0-.75,.34-.75,.75v1c0,.41,.34,.75,.75,.75s.75-.34,.75-.75v-1c0-.41-.34-.75-.75-.75Z"/><path d="M4.75,12c0-.41-.34-.75-.75-.75h-1c-.41,0-.75,.34-.75,.75s.34,.75,.75,.75h1c.41,0,.75-.34,.75-.75Z"/><circle cx="12" cy="10" r="1.25"/><path d="M17.75,12c0-1.24,1.01-2.25,2.25-2.25h.45c-.8-3.02-3.18-5.4-6.2-6.2v.45c0,1.24-1.01,2.25-2.25,2.25s-2.25-1.01-2.25-2.25v-.45c-3.02,.8-5.4,3.18-6.2,6.2h.45c1.24,0,2.25,1.01,2.25,2.25s-1.01,2.25-2.25,2.25h-.45c.8,3.02,3.18,5.4,6.2,6.2v-.45c0-1.24,1.01-2.25,2.25-2.25s2.25,1.01,2.25,2.25v.45c3.02-.81,5.39-3.19,6.2-6.2h-.45c-1.24,0-2.25-1.01-2.25-2.25Zm-5.75-4.75c1.52,0,2.75,1.23,2.75,2.75s-1.23,2.75-2.75,2.75-2.75-1.23-2.75-2.75,1.23-2.75,2.75-2.75Zm3.34,9.42c-.11,.05-.22,.08-.33,.08-.28,0-.54-.15-.67-.41l-.49-.97c-.19-.38-.57-.61-.99-.61h-1.7c-.42,0-.8,.24-.99,.61l-.49,.97c-.19,.37-.63,.52-1.01,.33-.37-.19-.52-.64-.33-1.01l.49-.97c.44-.89,1.34-1.44,2.33-1.44h1.7c1,0,1.89,.55,2.33,1.44l.49,.97c.19,.37,.04,.82-.33,1.01Z"/></g></g><g id="h"/><g id="i"/><g id="j"/><g id="k"/><g id="l"/><g id="m"/><g id="n"/><g id="o"/><g id="p"/><g id="q"/><g id="r"/><g id="s"/><g id="t"/><g id="u"/></svg>