<?xml version="1.0" encoding="UTF-8"?><svg xmlns="http://www.w3.org/2000/svg" viewBox="0 0 24 24"><g id="a"/><g id="b"/><g id="c"/><g id="d"/><g id="e"/><g id="f"/><g id="g"/><g id="h"/><g id="i"/><g id="j"/><g id="k"/><g id="l"/><g id="m"/><g id="n"/><g id="o"/><g id="p"><g><circle cx="12" cy="5" r="2.75"/><path d="M16.59,14.83l-.6-4.22c-.19-1.35-1.36-2.36-2.72-2.36h-2.53c-1.36,0-2.53,1.02-2.72,2.36l-.6,4.22c-.07,.48,.07,.97,.39,1.34,.32,.37,.78,.58,1.27,.58,.1,0,.18,.08,.18,.18v3.07c0,.96,.79,1.75,1.75,1.75h2c.96,0,1.75-.79,1.75-1.75v-3.07c0-.1,.08-.18,.18-.18,.49,0,.95-.21,1.27-.58,.32-.37,.46-.86,.39-1.34Z"/></g></g><g id="q"/><g id="r"/><g id="s"/><g id="t"/><g id="u"/></svg>