<?xml version="1.0" encoding="UTF-8"?><svg xmlns="http://www.w3.org/2000/svg" viewBox="0 0 24 24"><g id="a"/><g id="b"/><g id="c"/><g id="d"/><g id="e"/><g id="f"/><g id="g"/><g id="h"/><g id="i"/><g id="j"/><g id="k"/><g id="l"/><g id="m"/><g id="n"/><g id="o"/><g id="p"/><g id="q"><g><circle cx="12" cy="9" r="4.75"/><path d="M12,15.25c-2.11,0-3.94,1.43-4.48,3.57-.06,.23,0,.46,.14,.65,.14,.18,.36,.29,.59,.29h0l7.48-.09c.23,0,.45-.11,.58-.29,.14-.18,.19-.42,.13-.64-.51-2.05-2.34-3.48-4.46-3.48Z"/><path d="M6.07,18.45c.32-1.29,1.03-2.39,1.98-3.2h-1.04c-1.52,0-2.84,1.03-3.21,2.51l-.26,1.06c-.06,.22,0,.46,.14,.64,.14,.18,.36,.29,.59,.29h1.9c-.15-.42-.19-.87-.08-1.3Z"/><path d="M20.46,18.75l-.46-1.3c-.47-1.31-1.72-2.2-3.12-2.2h-.89c.92,.8,1.62,1.86,1.93,3.11,.12,.47,.07,.95-.1,1.39h1.94c.24,0,.47-.12,.61-.32s.17-.45,.09-.68Z"/><path d="M16.1,13.71c.13,.01,.27,.04,.4,.04,2.07,0,3.75-1.68,3.75-3.75,0-1.64-1.07-3.03-2.54-3.53,.35,.78,.54,1.63,.54,2.53,0,1.88-.84,3.56-2.15,4.71Z"/><path d="M7.5,13.75c.14,0,.27-.03,.4-.04-1.32-1.15-2.15-2.83-2.15-4.71,0-.9,.2-1.76,.54-2.53-1.47,.51-2.54,1.89-2.54,3.53,0,2.07,1.68,3.75,3.75,3.75Z"/></g></g><g id="r"/><g id="s"/><g id="t"/><g id="u"/></svg>