<?xml version="1.0" encoding="UTF-8"?><svg xmlns="http://www.w3.org/2000/svg" viewBox="0 0 24 24"><g id="a"/><g id="b"/><g id="c"/><g id="d"/><g id="e"/><g id="f"/><g id="g"/><g id="h"/><g id="i"/><g id="j"/><g id="k"/><g id="l"/><g id="m"><g><circle cx="10.5" cy="8" r="1.75"/><path d="M14,18.75c2.62,0,4.75-2.13,4.75-4.75V7c0-2.62-2.13-4.75-4.75-4.75H7c-2.62,0-4.75,2.13-4.75,4.75v7c0,2.62,2.13,4.75,4.75,4.75h7Zm-3.5-14c1.79,0,3.25,1.46,3.25,3.25s-1.46,3.25-3.25,3.25-3.25-1.46-3.25-3.25,1.46-3.25,3.25-3.25Zm-4.83,11.42c-.37-.19-.52-.64-.34-1.01l.45-.89c.47-.94,1.41-1.52,2.46-1.52h4.53c1.05,0,1.99,.58,2.46,1.52l.45,.89c.19,.37,.04,.82-.34,1.01-.11,.05-.22,.08-.33,.08-.28,0-.54-.15-.67-.41l-.45-.89c-.21-.43-.64-.69-1.12-.69h-4.53c-.48,0-.91,.26-1.12,.69l-.45,.89c-.19,.37-.63,.52-1.01,.34Z"/><path d="M20.23,6.51c.01,.16,.02,.32,.02,.49v7c0,3.45-2.8,6.25-6.25,6.25H7c-.16,0-.33-.01-.49-.02,.88,.95,2.13,1.52,3.49,1.52h7c2.62,0,4.75-2.13,4.75-4.75v-7c0-1.36-.58-2.61-1.52-3.49Z"/></g></g><g id="n"/><g id="o"/><g id="p"/><g id="q"/><g id="r"/><g id="s"/><g id="t"/><g id="u"/></svg>