<?xml version="1.0" encoding="UTF-8"?><svg xmlns="http://www.w3.org/2000/svg" viewBox="0 0 24 24"><g id="a"/><g id="b"><g><circle cx="10" cy="7" r="4.75"/><path d="M16.87,15.05c-2.64-1.49-5.19-1.8-6.87-1.8-3.02,0-5.4,.98-6.87,1.8-.54,.31-.88,.89-.88,1.52v3.43c0,.96,.79,1.75,1.75,1.75h12c.96,0,1.75-.79,1.75-1.75v-3.42c0-.64-.34-1.22-.88-1.53Z"/><path d="M16.66,4.56c-.29,.29-.29,.77,0,1.06,.79,.79,.79,2.07,0,2.85-.29,.29-.29,.77,0,1.06,.15,.15,.34,.22,.53,.22s.38-.07,.53-.22c1.37-1.37,1.37-3.6,0-4.97-.29-.29-.77-.29-1.06,0Z"/><path d="M20.31,3.6c-.29-.29-.77-.29-1.06,0s-.29,.77,0,1.06c1.33,1.33,1.33,3.48,0,4.81-.29,.29-.29,.77,0,1.06,.15,.15,.34,.22,.53,.22s.38-.07,.53-.22c1.91-1.91,1.91-5.02,0-6.93Z"/></g></g><g id="c"/><g id="d"/><g id="e"/><g id="f"/><g id="g"/><g id="h"/><g id="i"/><g id="j"/><g id="k"/><g id="l"/><g id="m"/><g id="n"/><g id="o"/><g id="p"/><g id="q"/><g id="r"/><g id="s"/><g id="t"/><g id="u"/></svg>