<svg xmlns="http://www.w3.org/2000/svg" viewBox="0 0 32 32"><g id="_3d" data-name="3d"><path d="M16,9a3,3,0,1,0,3,3A3,3,0,0,0,16,9Zm0,4a1,1,0,1,1,1-1A1,1,0,0,1,16,13Z"/><path d="M24,14.83V10.41A2.41,2.41,0,0,0,21.59,8L20.43,6.35A3,3,0,0,0,17.92,5H14.08a3,3,0,0,0-2.51,1.35L10.46,8h-.05A2.41,2.41,0,0,0,8,10.41v4.42c-3.86.89-6,2.35-6,4.17,0,2.81,4.87,4.29,9.8,4.79l-1.51,1.5a1,1,0,0,0,0,1.42,1,1,0,0,0,1.42,0l3-3a1,1,0,0,0,0-1.42l-3-3a1,1,0,0,0-1.42,1.42l1,1C6.45,21.12,4,19.72,4,19c0-.41,1.09-1.44,4.34-2.2A2.4,2.4,0,0,0,10.41,18H21.59a2.4,2.4,0,0,0,2.07-1.2C26.91,17.56,28,18.59,28,19c0,.86-3.45,2.64-10,2.95A1,1,0,0,0,18,24h.05c5.51-.26,12-1.71,12-4.95C30,17.18,27.86,15.72,24,14.83Zm-2,.76a.41.41,0,0,1-.41.41H10.41a.41.41,0,0,1-.41-.41V10.41a.41.41,0,0,1,.41-.41H11a1,1,0,0,0,.83-.45l1.4-2.09A1,1,0,0,1,14.08,7h3.84a1,1,0,0,1,.85.46l1.4,2.09A1,1,0,0,0,21,10h.59a.41.41,0,0,1,.41.41Z"/></g></svg>