<svg xmlns="http://www.w3.org/2000/svg" viewBox="0 0 32 32"><g id="aperture"><path d="M30,16c0-.25,0-.5,0-.75a.94.94,0,0,0,0-.55A14,14,0,0,0,21.4,3.09l0,0A14,14,0,0,0,2,16c0,.25,0,.5,0,.75a.94.94,0,0,0,0,.55A14,14,0,0,0,10.6,28.91l0,0a13.92,13.92,0,0,0,12.59-1,.92.92,0,0,0,.53-.32A14,14,0,0,0,30,16Zm-2.11-1.54L22,17.63v-12A12,12,0,0,1,27.89,14.46ZM12,18.46V13.29l3.91-2.1L20,13.57v5.14L15.78,21ZM20,4.7v6.56l-3.26-1.9A.93.93,0,0,0,16.18,9l-6-3.51A12,12,0,0,1,16,4,11.8,11.8,0,0,1,20,4.7ZM8.37,6.75a.47.47,0,0,0,.13.11L13.88,10,4,15.31A11.93,11.93,0,0,1,8.37,6.75ZM4.11,17.54,10,14.37v12A12,12,0,0,1,4.11,17.54ZM12,27.3V20.87l9,6A11.9,11.9,0,0,1,16,28,12.05,12.05,0,0,1,12,27.3Zm11-1.54-5.29-3.52L28,16.69A12,12,0,0,1,23,25.76Z"/></g></svg>