<svg xmlns="http://www.w3.org/2000/svg" viewBox="0 0 32 32"><g id="auto"><path d="M29.92,16a1.68,1.68,0,0,0-.62-1.31l-3.44-2.77.49-4.4a1.72,1.72,0,0,0-.48-1.38,1.66,1.66,0,0,0-1.37-.48l-4.4.47L17.34,2.7A1.66,1.66,0,0,0,16,2.07h0a1.7,1.7,0,0,0-1.31.62L11.94,6.14,7.55,5.65A1.69,1.69,0,0,0,5.69,7.5l.47,4.4L2.71,14.67A1.66,1.66,0,0,0,2.08,16a1.68,1.68,0,0,0,.62,1.31l3.44,2.77-.49,4.4a1.72,1.72,0,0,0,.48,1.38,1.66,1.66,0,0,0,1.37.48l4.4-.47,2.76,3.45a1.66,1.66,0,0,0,1.31.63h0a1.7,1.7,0,0,0,1.31-.62l2.78-3.45,4.39.49a1.7,1.7,0,0,0,1.37-.48,1.66,1.66,0,0,0,.48-1.37l-.46-4.4,3.45-2.77A1.66,1.66,0,0,0,29.92,16Zm-5.47,2.63a1.68,1.68,0,0,0-.62,1.49l.44,4.18-4.17-.47a1.67,1.67,0,0,0-1.49.62L16,27.74l-2.62-3.28A1.67,1.67,0,0,0,12,23.83h-.18l-4.18.45.47-4.18a1.7,1.7,0,0,0-.61-1.49L4.27,16l3.28-2.63a1.67,1.67,0,0,0,.62-1.49L7.73,7.68l4.17.47a1.68,1.68,0,0,0,1.49-.62L16,4.26l2.62,3.28a1.69,1.69,0,0,0,1.49.62l4.18-.45-.47,4.18a1.7,1.7,0,0,0,.61,1.49L27.73,16Z"/><path d="M16.89,11.55a1,1,0,0,0-1.78,0l-4,8a1,1,0,0,0,1.78.9L14.12,18h3.76l1.23,2.45A1,1,0,0,0,20,21a.93.93,0,0,0,.45-.11,1,1,0,0,0,.44-1.34ZM15.12,16,16,14.24,16.88,16Z"/></g></svg>