<svg xmlns="http://www.w3.org/2000/svg" viewBox="0 0 32 32"><g id="brightness"><path d="M29.92,16a1.67,1.67,0,0,0-.63-1.31l-3.44-2.78.49-4.4a1.66,1.66,0,0,0-.48-1.37,1.69,1.69,0,0,0-1.36-.49l-4.4.47L17.34,2.67A1.67,1.67,0,0,0,16,2h0a1.67,1.67,0,0,0-1.31.63L11.94,6.11,7.55,5.63a1.64,1.64,0,0,0-1.37.47,1.67,1.67,0,0,0-.49,1.37l.47,4.4L2.7,14.64a1.68,1.68,0,0,0,0,2.62L6.14,20l-.49,4.4a1.68,1.68,0,0,0,.48,1.37,1.66,1.66,0,0,0,1.37.48l4.39-.47,2.76,3.45A1.67,1.67,0,0,0,16,29.9h0a1.66,1.66,0,0,0,1.31-.62l2.78-3.45,4.4.49a1.67,1.67,0,0,0,1.85-1.85l-.47-4.4,3.46-2.77A1.65,1.65,0,0,0,29.92,16Zm-5.47,2.62a1.68,1.68,0,0,0-.62,1.49l.44,4.18-4.17-.46a1.69,1.69,0,0,0-1.5.61L16,27.71l-2.63-3.28A1.67,1.67,0,0,0,12,23.8h-.18l-4.17.45.46-4.18a1.65,1.65,0,0,0-.61-1.49L4.26,16l3.28-2.62a1.69,1.69,0,0,0,.63-1.49L7.72,7.66l4.17.46a1.7,1.7,0,0,0,1.5-.62L16,4.23l2.62,3.28a1.67,1.67,0,0,0,1.49.62l4.17-.44-.46,4.17a1.65,1.65,0,0,0,.61,1.49L27.73,16Z"/><path d="M16,9a1,1,0,0,0-1,1V22a1,1,0,0,0,1,1A7,7,0,0,0,16,9Zm1,11.9V11.1a5,5,0,0,1,0,9.8Z"/></g></svg>