<svg xmlns="http://www.w3.org/2000/svg" viewBox="0 0 32 32"><g id="camera_2" data-name="camera 2"><path d="M26.19,14a3.8,3.8,0,0,0-3.69,2.88l-.16.65a.65.65,0,0,1-.34.4V14.09a2.06,2.06,0,0,0-1-1.77V11h.47A1.53,1.53,0,0,0,23,9.47V3.53A1.53,1.53,0,0,0,21.47,2H8.53A1.53,1.53,0,0,0,7,3.53V9.47A1.53,1.53,0,0,0,8.53,11H9v1.32a2.06,2.06,0,0,0-1,1.77V18H4.44A2.44,2.44,0,0,0,2,20.44v7.12A2.44,2.44,0,0,0,4.44,30H27.56A2.44,2.44,0,0,0,30,27.56V17.81A3.82,3.82,0,0,0,26.19,14ZM9,4H21V9H19V7a1,1,0,0,0-2,0V9H16V7a1,1,0,0,0-2,0V9H13V7a1,1,0,0,0-2,0V9H9Zm10,7v1H11V11Zm-9,3.09a.09.09,0,0,1,.09-.09h9.82a.09.09,0,0,1,.09.09V18H10ZM28,27.56a.44.44,0,0,1-.44.44H4.44A.44.44,0,0,1,4,27.56V20.44A.44.44,0,0,1,4.44,20H21.73a2.63,2.63,0,0,0,2.55-2l.16-.64a1.81,1.81,0,0,1,3.56.44Z"/><path d="M26,17h0a1,1,0,1,0,1,1A1,1,0,0,0,26,17Z"/><path d="M8.5,22A2.5,2.5,0,1,0,11,24.5,2.5,2.5,0,0,0,8.5,22Zm0,3a.5.5,0,1,1,.5-.5A.5.5,0,0,1,8.5,25Z"/><path d="M25,25H22a1,1,0,0,0,0,2h3a1,1,0,0,0,0-2Z"/></g></svg>