<svg xmlns="http://www.w3.org/2000/svg" viewBox="0 0 32 32"><g id="camera"><path d="M26.9,8H23V7.42A2.42,2.42,0,0,0,20.58,5H11.42A2.42,2.42,0,0,0,9,7.42V8H5.1A3.1,3.1,0,0,0,2,11.1V22.9A3.1,3.1,0,0,0,5.1,26H26.9A3.1,3.1,0,0,0,30,22.9V11.1A3.1,3.1,0,0,0,26.9,8ZM28,22.9A1.1,1.1,0,0,1,26.9,24H5.1A1.1,1.1,0,0,1,4,22.9V11.1A1.1,1.1,0,0,1,5.1,10H10a1,1,0,0,0,1-1V7.42A.42.42,0,0,1,11.42,7h9.16a.42.42,0,0,1,.42.42V9a1,1,0,0,0,1,1h4.9A1.1,1.1,0,0,1,28,11.1Z"/><path d="M16,10a6,6,0,1,0,6,6A6,6,0,0,0,16,10Zm0,10a4,4,0,1,1,4-4A4,4,0,0,1,16,20Z"/></g></svg>