<svg xmlns="http://www.w3.org/2000/svg" viewBox="0 0 32 32"><g id="camera_3" data-name="camera 3"><path d="M26.83,13H23V11h.8A2.21,2.21,0,0,0,26,8.8V5.2A2.21,2.21,0,0,0,23.8,3H16.2A2.21,2.21,0,0,0,14,5.2V8.8A2.21,2.21,0,0,0,16.2,11H17v2H5.17A3.17,3.17,0,0,0,2,16.17V26.83A3.17,3.17,0,0,0,5.17,30H26.83A3.17,3.17,0,0,0,30,26.83V16.17A3.17,3.17,0,0,0,26.83,13ZM16,8.8V5.2a.2.2,0,0,1,.2-.2h7.6a.2.2,0,0,1,.2.2V8.8a.2.2,0,0,1-.2.2H16.2A.2.2,0,0,1,16,8.8ZM19,11h2v2H19ZM4,26.83V16.17A1.17,1.17,0,0,1,5.17,15H7.83A1.17,1.17,0,0,1,9,16.17V26.83A1.17,1.17,0,0,1,7.83,28H5.17A1.17,1.17,0,0,1,4,26.83Zm24,0A1.17,1.17,0,0,1,26.83,28H10.77A3.25,3.25,0,0,0,11,26.83V16.17A3.25,3.25,0,0,0,10.77,15H26.83A1.17,1.17,0,0,1,28,16.17Z"/><path d="M20.5,16A5.5,5.5,0,1,0,26,21.5,5.51,5.51,0,0,0,20.5,16Zm0,9A3.5,3.5,0,1,1,24,21.5,3.5,3.5,0,0,1,20.5,25Z"/><path d="M6,19a1,1,0,0,0-1,1v2a1,1,0,0,0,2,0V20A1,1,0,0,0,6,19Z"/></g></svg>