<svg xmlns="http://www.w3.org/2000/svg" viewBox="0 0 32 32"><g id="cloud_storage" data-name="cloud storage"><path d="M16,18a3,3,0,1,0,3,3A3,3,0,0,0,16,18Zm0,4a1,1,0,1,1,1-1A1,1,0,0,1,16,22Z"/><path d="M26.34,11.08a5.35,5.35,0,0,0-2.4-.27A7.78,7.78,0,0,0,17.09,4,7.75,7.75,0,0,0,9.37,8.79a6.07,6.07,0,0,0-3.77.32A6.44,6.44,0,0,0,2,15a6.65,6.65,0,0,0,1.85,4.56A4.76,4.76,0,0,0,7.33,21H8v3.56A2.41,2.41,0,0,0,10.41,27H21.59A2.41,2.41,0,0,0,24,24.59V21h1.05a5.1,5.1,0,0,0,3.63-1.54A4.74,4.74,0,0,0,30,16,5.58,5.58,0,0,0,26.34,11.08ZM22,24.59a.41.41,0,0,1-.41.41H10.41a.41.41,0,0,1-.41-.41V19.41a.41.41,0,0,1,.41-.41H11a1,1,0,0,0,.83-.45l1.4-2.09a1,1,0,0,1,.85-.46h3.84a1,1,0,0,1,.85.46l1.4,2.09A1,1,0,0,0,21,19h.59a.41.41,0,0,1,.41.41Zm5.24-6.49a3.06,3.06,0,0,1-2.19.93H24a2.41,2.41,0,0,0-2.37-2l-1.16-1.65A3,3,0,0,0,17.92,14H14.08a3,3,0,0,0-2.51,1.35L10.46,17h-.05A2.41,2.41,0,0,0,8,19H7.33a2.78,2.78,0,0,1-2-.81A4.67,4.67,0,0,1,4,15a4.43,4.43,0,0,1,2.4-4.08,4.26,4.26,0,0,1,3.23,0,1,1,0,0,0,.82,0,1.05,1.05,0,0,0,.52-.63A5.74,5.74,0,0,1,16.91,6,5.78,5.78,0,0,1,22,12a1,1,0,0,0,.4.84,1,1,0,0,0,.92.14,3.65,3.65,0,0,1,2.34,0A3.54,3.54,0,0,1,28,16.14,2.66,2.66,0,0,1,27.24,18.1Z"/></g></svg>