<svg xmlns="http://www.w3.org/2000/svg" viewBox="0 0 32 32"><g id="download"><path d="M12,13a3,3,0,1,0-3-3A3,3,0,0,0,12,13Zm0-4a1,1,0,1,1-1,1A1,1,0,0,1,12,9Z"/><path d="M26,17.35V6.93A2.93,2.93,0,0,0,23.07,4H4.93A2.93,2.93,0,0,0,2,6.93V21.07A2.93,2.93,0,0,0,4.93,24H18.09A6,6,0,1,0,26,17.35ZM4.93,6H23.07a.93.93,0,0,1,.93.93v6.66l-2.38-2.38A2.07,2.07,0,0,0,20,10.57a2.18,2.18,0,0,0-1.58.76l-4.5,5.25a.2.2,0,0,1-.26,0l-3.24-2a2.2,2.2,0,0,0-2.83.48L4,19.44V6.93A.93.93,0,0,1,4.93,6ZM4.48,21.86a.86.86,0,0,0,.29-.22l4.34-5.21a.19.19,0,0,1,.26,0l3.25,1.95a2.19,2.19,0,0,0,2.8-.46l4.5-5.25a.18.18,0,0,1,.14-.06.18.18,0,0,1,.15,0L24,16.41V17a6,6,0,0,0-5.91,5H4.93A.85.85,0,0,1,4.48,21.86ZM24,27a4,4,0,1,1,4-4A4,4,0,0,1,24,27Z"/><path d="M25.29,22.29l-.29.3V21a1,1,0,0,0-2,0v1.59l-.29-.3a1,1,0,0,0-1.42,1.42l2,2a1,1,0,0,0,1.42,0l2-2a1,1,0,0,0-1.42-1.42Z"/></g></svg>