<svg xmlns="http://www.w3.org/2000/svg" viewBox="0 0 32 32"><g id="drone"><path d="M16,20a3,3,0,1,0,3,3A3,3,0,0,0,16,20Zm0,4a1,1,0,1,1,1-1A1,1,0,0,1,16,24Z"/><path d="M29,4H27a2.5,2.5,0,0,0-4.9,0H20a1,1,0,0,0,0,2h2V9h-.55A2.27,2.27,0,0,1,20,8.49,6.32,6.32,0,0,0,16,7a6,6,0,0,0-3.84,1.42A2.54,2.54,0,0,1,10.58,9H10V6h2a1,1,0,0,0,0-2H10a2.5,2.5,0,0,0-4.9,0H3A1,1,0,0,0,3,6H5V9.05A2.5,2.5,0,0,0,5.5,14h.42l-.72.9A10.06,10.06,0,0,0,3,21.17V26a1,1,0,0,0,2,0V21.17a8.09,8.09,0,0,1,1.76-5L8.48,14H13v2.22a3,3,0,0,0-1.43,1.13L10.46,19h-.05A2.41,2.41,0,0,0,8,21.41v5.18A2.41,2.41,0,0,0,10.41,29H21.59A2.41,2.41,0,0,0,24,26.59V21.41A2.41,2.41,0,0,0,21.59,19l-1.16-1.65A3,3,0,0,0,19,16.22V14h4.52l1.72,2.15a8,8,0,0,1,1.76,5V26a1,1,0,0,0,2,0V21.17a10.06,10.06,0,0,0-2.2-6.27l-.72-.9h.42A2.5,2.5,0,0,0,27,9.05V6h2a1,1,0,0,0,0-2Zm-5,.5a.5.5,0,0,1,1,0V9H24ZM7,4.5a.5.5,0,0,1,1,0V9H7ZM20.17,20.55A1,1,0,0,0,21,21h.59a.41.41,0,0,1,.41.41v5.18a.41.41,0,0,1-.41.41H10.41a.41.41,0,0,1-.41-.41V21.41a.41.41,0,0,1,.41-.41H11a1,1,0,0,0,.83-.45l1.4-2.09a1,1,0,0,1,.85-.46h3.84a1,1,0,0,1,.85.46ZM17,16H15V14h2Zm9.5-4H5.5a.5.5,0,0,1,0-1h5.08a4.48,4.48,0,0,0,2.85-1A4,4,0,0,1,16,9a4.32,4.32,0,0,1,2.64,1,4.31,4.31,0,0,0,2.81,1H26.5a.5.5,0,0,1,0,1Z"/></g></svg>