<svg xmlns="http://www.w3.org/2000/svg" viewBox="0 0 32 32"><g id="editing"><path d="M29,22H28V10.41A2.41,2.41,0,0,0,25.59,8H24a2.42,2.42,0,0,0-2.37-2L20.43,4.35A3,3,0,0,0,17.92,3H14.08a3,3,0,0,0-2.51,1.35L10.46,6h-.05A2.42,2.42,0,0,0,8,8H6.41A2.41,2.41,0,0,0,4,10.41V22H3a1,1,0,0,0-1,1v2a3,3,0,0,0,3,3H27a3,3,0,0,0,3-3V23A1,1,0,0,0,29,22ZM10,8.41A.41.41,0,0,1,10.41,8H11a1,1,0,0,0,.83-.45l1.4-2.09A1,1,0,0,1,14.08,5h3.84a1,1,0,0,1,.85.46l1.4,2.09A1,1,0,0,0,21,8h.59a.41.41,0,0,1,.41.41v5.18a.41.41,0,0,1-.41.41H10.41a.41.41,0,0,1-.41-.41Zm-4,2A.41.41,0,0,1,6.41,10H8v3.59A2.41,2.41,0,0,0,10.41,16H21.59A2.41,2.41,0,0,0,24,13.59V10h1.59a.41.41,0,0,1,.41.41V22H19a1,1,0,0,0-.71.29l-.7.71H14.41l-.7-.71A1,1,0,0,0,13,22H6ZM28,25a1,1,0,0,1-1,1H5a1,1,0,0,1-1-1V24h8.59l.7.71A1,1,0,0,0,14,25h4a1,1,0,0,0,.71-.29l.7-.71H28Z"/><path d="M16,13a3,3,0,1,0-3-3A3,3,0,0,0,16,13Zm0-4a1,1,0,1,1-1,1A1,1,0,0,1,16,9Z"/></g></svg>