<svg xmlns="http://www.w3.org/2000/svg" viewBox="0 0 32 32"><g id="folder"><path d="M21.59,14l-1.16-1.65A3,3,0,0,0,17.92,11H14.08a3,3,0,0,0-2.51,1.35L10.46,14h-.05A2.41,2.41,0,0,0,8,16.41v5.18A2.41,2.41,0,0,0,10.41,24H21.59A2.41,2.41,0,0,0,24,21.59V16.41A2.41,2.41,0,0,0,21.59,14ZM22,21.59a.41.41,0,0,1-.41.41H10.41a.41.41,0,0,1-.41-.41V16.41a.41.41,0,0,1,.41-.41H11a1,1,0,0,0,.83-.45l1.4-2.09a1,1,0,0,1,.85-.46h3.84a1,1,0,0,1,.85.46l1.4,2.09A1,1,0,0,0,21,16h.59a.41.41,0,0,1,.41.41Z"/><path d="M16,15a3,3,0,1,0,3,3A3,3,0,0,0,16,15Zm0,4a1,1,0,1,1,1-1A1,1,0,0,1,16,19Z"/><path d="M26.62,8H16.9a1.17,1.17,0,0,1-.83-.34L14.4,6A3.32,3.32,0,0,0,12,5H5.38A3.38,3.38,0,0,0,2,8.38V23.62A3.38,3.38,0,0,0,5.38,27H26.62A3.38,3.38,0,0,0,30,23.62V11.38A3.38,3.38,0,0,0,26.62,8ZM28,23.62A1.38,1.38,0,0,1,26.62,25H5.38A1.38,1.38,0,0,1,4,23.62V8.38A1.38,1.38,0,0,1,5.38,7H12a1.37,1.37,0,0,1,1,.4l1.67,1.67A3.14,3.14,0,0,0,16.9,10h9.72A1.38,1.38,0,0,1,28,11.38Z"/></g></svg>