<svg xmlns="http://www.w3.org/2000/svg" viewBox="0 0 32 32"><g id="lens"><path d="M25,13.08V8a1,1,0,0,0,1-1V3a1,1,0,0,0-1-1H7A1,1,0,0,0,6,3V7A1,1,0,0,0,7,8v5.08a1.91,1.91,0,0,0,1,1.67V16H7.91A1.92,1.92,0,0,0,6,17.91v7.18a1.91,1.91,0,0,0,1.24,1.78l.81,2.45A1,1,0,0,0,9,30H23a1,1,0,0,0,.95-.68l.81-2.45A1.91,1.91,0,0,0,26,25.09V17.91A1.92,1.92,0,0,0,24.09,16H24V14.75A1.91,1.91,0,0,0,25,13.08ZM8,4H24V6H8ZM23,8v5H21V11a1,1,0,0,0-2,0v2H17V11a1,1,0,0,0-2,0v2H13V11a1,1,0,0,0-2,0v2H9V8ZM8,18H24v7H8ZM22.28,28H9.72l-.33-1H22.61ZM10,16V15H22v1Z"/></g></svg>