<svg xmlns="http://www.w3.org/2000/svg" viewBox="0 0 32 32"><g id="panoramic"><path d="M28.34,5.57a49.59,49.59,0,0,0-24.68,0A2.2,2.2,0,0,0,2,7.7V24.92A2.2,2.2,0,0,0,3.53,27,40.3,40.3,0,0,0,16,29a40.41,40.41,0,0,0,12.48-2A2.2,2.2,0,0,0,30,24.92V7.7A2.2,2.2,0,0,0,28.34,5.57ZM4.16,7.51a47.17,47.17,0,0,1,23.68,0A.19.19,0,0,1,28,7.7V18.61L22.65,14a1,1,0,0,0-1.3,0L14.9,19.55l-4.39-2.62a1,1,0,0,0-1.22.15L4,22.37V7.7A.19.19,0,0,1,4.16,7.51ZM27.85,25.12a38.38,38.38,0,0,1-23.7,0l0,0L10.16,19l4.33,2.6a1,1,0,0,0,1.16-.1L22,16.1l6,5.14v3.68A.21.21,0,0,1,27.85,25.12Z"/><path d="M13.5,16A3.5,3.5,0,1,0,10,12.5,3.5,3.5,0,0,0,13.5,16Zm0-5A1.5,1.5,0,1,1,12,12.5,1.5,1.5,0,0,1,13.5,11Z"/></g></svg>