<svg xmlns="http://www.w3.org/2000/svg" viewBox="0 0 32 32"><g id="panorama"><path d="M29.35,6.55a1.62,1.62,0,0,0-1.44-.26,42.46,42.46,0,0,1-23.83,0A1.63,1.63,0,0,0,2,7.84V25.16a1.58,1.58,0,0,0,.65,1.29,1.62,1.62,0,0,0,1.44.26,42.46,42.46,0,0,1,23.83,0,1.82,1.82,0,0,0,.46.06A1.62,1.62,0,0,0,30,25.16V7.84A1.58,1.58,0,0,0,29.35,6.55ZM28,8.34V18.83l-5.35-4.59a1,1,0,0,0-1.3,0L14.9,19.77l-4.39-2.63a1,1,0,0,0-1.22.15L4,22.59V8.34A44.46,44.46,0,0,0,28,8.34ZM5,24.41l5.15-5.15,4.34,2.6a1,1,0,0,0,1.16-.1L22,16.32l6,5.14v3.2A44.41,44.41,0,0,0,5,24.41Z"/><path d="M14,17a3,3,0,1,0-3-3A3,3,0,0,0,14,17Zm0-4a1,1,0,1,1-1,1A1,1,0,0,1,14,13Z"/></g></svg>