<svg xmlns="http://www.w3.org/2000/svg" viewBox="0 0 32 32"><g id="phone"><path d="M23.34,2H8.66A2.66,2.66,0,0,0,6,4.66V27.34A2.66,2.66,0,0,0,8.66,30H23.34A2.66,2.66,0,0,0,26,27.34V4.66A2.66,2.66,0,0,0,23.34,2ZM8.66,4H23.34a.65.65,0,0,1,.66.66V24H8V4.66A.65.65,0,0,1,8.66,4ZM23.34,28H8.66A.65.65,0,0,1,8,27.34V26H24v1.34A.65.65,0,0,1,23.34,28Z"/><path d="M11,12a1,1,0,0,0,1-1v-.34a.67.67,0,0,1,.66-.66H13a1,1,0,0,0,0-2h-.34A2.66,2.66,0,0,0,10,10.66V11A1,1,0,0,0,11,12Z"/><path d="M12.66,19H13a1,1,0,0,0,0-2h-.34a.67.67,0,0,1-.66-.66V16a1,1,0,0,0-2,0v.34A2.66,2.66,0,0,0,12.66,19Z"/><path d="M19,19h.34A2.66,2.66,0,0,0,22,16.34V16a1,1,0,0,0-2,0v.34a.67.67,0,0,1-.66.66H19a1,1,0,0,0,0,2Z"/><path d="M19,10h.34a.67.67,0,0,1,.66.66V11a1,1,0,0,0,2,0v-.34A2.66,2.66,0,0,0,19.34,8H19a1,1,0,0,0,0,2Z"/></g></svg>