<svg xmlns="http://www.w3.org/2000/svg" viewBox="0 0 32 32"><g id="photograph"><path d="M21.59,12l-1.16-1.65A3,3,0,0,0,17.92,9H14.08a3,3,0,0,0-2.51,1.35L10.46,12h-.05A2.41,2.41,0,0,0,8,14.41v5.18A2.41,2.41,0,0,0,10.41,22H21.59A2.41,2.41,0,0,0,24,19.59V14.41A2.41,2.41,0,0,0,21.59,12ZM22,19.59a.41.41,0,0,1-.41.41H10.41a.41.41,0,0,1-.41-.41V14.41a.41.41,0,0,1,.41-.41H11a1,1,0,0,0,.83-.45l1.4-2.09a1,1,0,0,1,.85-.46h3.84a1,1,0,0,1,.85.46l1.4,2.09A1,1,0,0,0,21,14h.59a.41.41,0,0,1,.41.41Z"/><path d="M16,13a3,3,0,1,0,3,3A3,3,0,0,0,16,13Zm0,4a1,1,0,1,1,1-1A1,1,0,0,1,16,17Z"/><path d="M16,2A14,14,0,1,0,30,16,14,14,0,0,0,16,2Zm0,26A12,12,0,1,1,28,16,12,12,0,0,1,16,28Z"/></g></svg>