<svg xmlns="http://www.w3.org/2000/svg" viewBox="0 0 32 32"><g id="photo_frame" data-name="photo frame"><path d="M27.62,9.24a.6.6,0,0,0-.08-.08l-11-7a1,1,0,0,0-1.08,0l-11,7a.6.6,0,0,0-.08.08A3.61,3.61,0,0,0,2,12.63V25.37A3.64,3.64,0,0,0,5.63,29H26.37A3.64,3.64,0,0,0,30,25.37V12.63A3.61,3.61,0,0,0,27.62,9.24ZM16,4.19,23.57,9H8.43ZM4,12.63A1.63,1.63,0,0,1,5.63,11H26.37A1.63,1.63,0,0,1,28,12.63v6.43l-4.13-2.95a2.75,2.75,0,0,0-3.67.42l-5,5.71a.75.75,0,0,1-1,.15L11.8,20.91a2.74,2.74,0,0,0-3.53.6l-4,4.78A1.62,1.62,0,0,1,4,25.37ZM26.37,27H6.3l3.51-4.21a.75.75,0,0,1,1-.16l2.46,1.47a2.75,2.75,0,0,0,3.49-.54l5-5.71a.74.74,0,0,1,1-.11L28,21.51v3.86A1.63,1.63,0,0,1,26.37,27Z"/><path d="M13,19a3,3,0,1,0-3-3A3,3,0,0,0,13,19Zm0-4a1,1,0,1,1-1,1A1,1,0,0,1,13,15Z"/></g></svg>