<svg xmlns="http://www.w3.org/2000/svg" viewBox="0 0 32 32"><g id="picture"><path d="M26.37,4H5.63A3.64,3.64,0,0,0,2,7.63V24.37A3.64,3.64,0,0,0,5.63,28H26.37A3.64,3.64,0,0,0,30,24.37V7.63A3.64,3.64,0,0,0,26.37,4ZM5.63,6H26.37A1.63,1.63,0,0,1,28,7.63v9l-3.74-3.75A2.86,2.86,0,0,0,22,12a2.83,2.83,0,0,0-2.08,1.2l-4.84,6.92a.29.29,0,0,1-.23.13.31.31,0,0,1-.26-.09l-2.3-2.3A2.8,2.8,0,0,0,10,17.06a2.84,2.84,0,0,0-2.09,1.25L4,24.2V7.63A1.63,1.63,0,0,1,5.63,6ZM26.37,26H5.63A1.74,1.74,0,0,1,5.24,26l4.35-6.53a.84.84,0,0,1,.61-.37.87.87,0,0,1,.68.24l2.3,2.3a2.25,2.25,0,0,0,1.84.67,2.28,2.28,0,0,0,1.7-1l4.84-6.91a.87.87,0,0,1,.62-.36.83.83,0,0,1,.66.25L28,19.41v5A1.63,1.63,0,0,1,26.37,26Z"/><path d="M13.5,15A3.5,3.5,0,1,0,10,11.5,3.5,3.5,0,0,0,13.5,15Zm0-5A1.5,1.5,0,1,1,12,11.5,1.5,1.5,0,0,1,13.5,10Z"/></g></svg>