<svg xmlns="http://www.w3.org/2000/svg" viewBox="0 0 32 32"><g id="pictures"><path d="M28.89,16.42a.35.35,0,0,0,.05-.08,1,1,0,0,0,0-.68.35.35,0,0,0-.05-.08.57.57,0,0,0-.13-.21s0,0,0,0l-12-13a1,1,0,0,0-1.11-.24l-12,5h0a.72.72,0,0,0-.19.11.43.43,0,0,0-.1.09l0,0a1.12,1.12,0,0,0-.18.28s0,0,0,.06A.88.88,0,0,0,3,8H3V24H3a.88.88,0,0,0,.07.33s0,0,0,.06a1.12,1.12,0,0,0,.18.28l0,0a.43.43,0,0,0,.1.09l.13.07.07,0,12,5A1,1,0,0,0,16,30a1,1,0,0,0,.73-.32l12-13s0,0,0-.05A.57.57,0,0,0,28.89,16.42ZM5,9.39,24.84,16,5,22.61Zm10.74-5.2,8.89,9.63L6.85,7.9Zm0,23.62L6.85,24.1l17.78-5.92Z"/><path d="M7,13a1,1,0,0,0-1,1v4a1,1,0,0,0,2,0V14A1,1,0,0,0,7,13Z"/></g></svg>