<svg xmlns="http://www.w3.org/2000/svg" viewBox="0 0 32 32"><g id="refresh"><path d="M26.9,8H23V7.42A2.42,2.42,0,0,0,20.58,5H11.42A2.42,2.42,0,0,0,9,7.42V8H5.1A3.1,3.1,0,0,0,2,11.1V22.9A3.1,3.1,0,0,0,5.1,26H26.9A3.1,3.1,0,0,0,30,22.9V11.1A3.1,3.1,0,0,0,26.9,8ZM28,22.9A1.1,1.1,0,0,1,26.9,24H5.1A1.1,1.1,0,0,1,4,22.9V11.1A1.1,1.1,0,0,1,5.1,10H10a1,1,0,0,0,1-1V7.42A.42.42,0,0,1,11.42,7h9.16a.42.42,0,0,1,.42.42V9a1,1,0,0,0,1,1h4.9A1.1,1.1,0,0,1,28,11.1Z"/><path d="M18.67,20a4,4,0,0,1-3.45.94,4,4,0,0,1-3.13-3.07,1,1,0,0,0-.57-.68,2.12,2.12,0,0,0-.2-.12,1,1,0,0,0-1.27.63l-1,3A1,1,0,0,0,9.68,22,1.25,1.25,0,0,0,10,22a1,1,0,0,0,.95-.68l.24-.74a6,6,0,0,0,3.63,2.3A6.11,6.11,0,0,0,16,23a5.94,5.94,0,0,0,4-1.53A1,1,0,0,0,18.67,20Z"/><path d="M22.32,12.05a1,1,0,0,0-1.27.63l-.24.74A6,6,0,0,0,12,12.53,1,1,0,0,0,13.33,14a4,4,0,0,1,3.45-.94,4,4,0,0,1,3.13,3.07,1,1,0,0,0,.66.73l.11.07A1.25,1.25,0,0,0,21,17a1,1,0,0,0,.95-.68l1-3A1,1,0,0,0,22.32,12.05Z"/></g></svg>