<svg xmlns="http://www.w3.org/2000/svg" viewBox="0 0 32 32"><g id="smartphone"><path d="M27.59,13l-1.16-1.65A3,3,0,0,0,24,10V4.66A2.66,2.66,0,0,0,21.34,2H6.66A2.66,2.66,0,0,0,4,4.66V27.34A2.66,2.66,0,0,0,6.66,30H21.34A2.66,2.66,0,0,0,24,27.34V23h3.59A2.41,2.41,0,0,0,30,20.59V15.41A2.41,2.41,0,0,0,27.59,13Zm-11-9-.32,1,0,0L11.71,5l-.32-1ZM22,27.34a.65.65,0,0,1-.66.66H6.66A.65.65,0,0,1,6,27.34V4.66A.65.65,0,0,1,6.66,4H9.28l.54,1.61A2,2,0,0,0,11.74,7h4.52a2,2,0,0,0,1.92-1.39L18.72,4h2.62a.65.65,0,0,1,.66.66V10H20.08a3,3,0,0,0-2.51,1.35L16.46,13h-.05A2.41,2.41,0,0,0,14,15.41v5.18A2.41,2.41,0,0,0,16.41,23H22Zm6-6.75a.41.41,0,0,1-.41.41H16.41a.41.41,0,0,1-.41-.41V15.41a.41.41,0,0,1,.41-.41H17a1,1,0,0,0,.83-.45l1.4-2.09a1,1,0,0,1,.85-.46h3.84a1,1,0,0,1,.85.46l1.4,2.09A1,1,0,0,0,27,15h.59a.41.41,0,0,1,.41.41Z"/><path d="M22,14a3,3,0,1,0,3,3A3,3,0,0,0,22,14Zm0,4a1,1,0,1,1,1-1A1,1,0,0,1,22,18Z"/></g></svg>