<svg xmlns="http://www.w3.org/2000/svg" viewBox="0 0 32 32"><g id="target"><path d="M24,19.59V14.41A2.41,2.41,0,0,0,21.59,12l-1.16-1.65A3,3,0,0,0,17.92,9H14.08a3,3,0,0,0-2.51,1.35L10.46,12h-.05A2.41,2.41,0,0,0,8,14.41v5.18A2.41,2.41,0,0,0,10.41,22H21.59A2.41,2.41,0,0,0,24,19.59Zm-2,0a.41.41,0,0,1-.41.41H10.41a.41.41,0,0,1-.41-.41V14.41a.41.41,0,0,1,.41-.41H11a1,1,0,0,0,.83-.45l1.4-2.09a1,1,0,0,1,.85-.46h3.84a1,1,0,0,1,.85.46l1.4,2.09A1,1,0,0,0,21,14h.59a.41.41,0,0,1,.41.41Z"/><path d="M16,13a3,3,0,1,0,3,3A3,3,0,0,0,16,13Zm0,4a1,1,0,1,1,1-1A1,1,0,0,1,16,17Z"/><path d="M9,27H5.54A1.54,1.54,0,0,1,4,25.46V22a1,1,0,0,0-2,0v3.46A3.55,3.55,0,0,0,5.54,29H9a1,1,0,0,0,0-2Z"/><path d="M29,21a1,1,0,0,0-1,1v3.46A1.54,1.54,0,0,1,26.46,27H23a1,1,0,0,0,0,2h3.46A3.55,3.55,0,0,0,30,25.46V22A1,1,0,0,0,29,21Z"/><path d="M26.46,3H23a1,1,0,0,0,0,2h3.46A1.54,1.54,0,0,1,28,6.54V10a1,1,0,0,0,2,0V6.54A3.55,3.55,0,0,0,26.46,3Z"/><path d="M3,11a1,1,0,0,0,1-1V6.54A1.54,1.54,0,0,1,5.54,5H9A1,1,0,0,0,9,3H5.54A3.55,3.55,0,0,0,2,6.54V10A1,1,0,0,0,3,11Z"/></g></svg>